<?xml version="1.0" encoding="utf-8"?>
<!-- Generator: Adobe Illustrator 23.0.0, SVG Export Plug-In . SVG Version: 6.00 Build 0)  -->
<svg version="1.1" id="Layer_1" xmlns="http://www.w3.org/2000/svg" xmlns:xlink="http://www.w3.org/1999/xlink" x="0px" y="0px"
	 viewBox="0 0 387 219.6" style="enable-background:new 0 0 387 219.6;" xml:space="preserve">
<style type="text/css">
	.st0{fill:#E94093;}
</style>
<title>iono logo - black text</title>
<circle class="st0" cx="110.9" cy="90.3" r="6.4"/>
<path d="M105.2,101.2h11.3v35.4h-11.3V101.2z"/>
<path d="M118.7,120c0-10,7.3-18.5,19.3-18.5c12.2,0,19.3,8.6,19.3,18.5s-7.2,18.6-19.3,18.6C126,138.6,118.7,130,118.7,120z
	 M145.8,120c0-4.7-2.8-8.6-7.8-8.6c-4.9,0-7.6,3.9-7.6,8.6c0,4.8,2.7,8.6,7.6,8.6C143,128.6,145.8,124.7,145.8,120z"/>
<path d="M183.5,116.1c0-4.3-2.3-5.9-5.8-5.9c-3.4,0-5.6,1.8-6.9,3.4v22.9h-11.3v-35.4h11.3v4.3c2.1-2.5,6.3-5.2,12.2-5.2
	c8.1,0,11.7,4.7,11.7,11.2v25.1h-11.3V116.1z"/>
<path d="M197,118.8c0-10,7.3-18.5,19.3-18.5c12.2,0,19.3,8.6,19.3,18.5s-7.2,18.6-19.3,18.6C204.3,137.4,197,128.8,197,118.8z
	 M224.1,118.8c0-4.7-2.8-8.6-7.8-8.6c-4.9,0-7.6,3.9-7.6,8.6c0,4.8,2.7,8.6,7.6,8.6C221.3,127.5,224.1,123.6,224.1,118.8z"/>
<path d="M240.3,128c2.5,0,4.6,2.1,4.6,4.6c0,2.5-2.1,4.6-4.6,4.6s-4.6-2.1-4.6-4.6v0C235.8,130,237.8,128,240.3,128z"/>
<path d="M247.5,119.5h-3.9V113h3.9v-1.2c0-5,3.6-8.3,8.5-8.3c2.1,0,3.8,0.4,5,1.1l-1.4,5.1c-0.6-0.3-1.3-0.5-2-0.5
	c-1.6,0-2.6,1-2.6,2.8v1h4.8v6.5H255v17h-7.5L247.5,119.5z"/>
<path d="M289.5,122.2c0-1.8-0.9-3.2-3.1-3.2c-2.1,0-3.5,1.3-4.2,2.3v15.2h-7.5v-14.4c0-1.8-0.8-3.2-3.1-3.2c-2,0-3.4,1.3-4.2,2.3
	v15.2h-7.5V113h7.5v2.9c1-1.4,4.1-3.5,7.8-3.5c3.4,0,5.7,1.4,6.7,4.2c1.4-2.1,4.4-4.2,8.2-4.2c4.3,0,7.1,2.2,7.1,7.1v17.1h-7.5
	V122.2z"/>
</svg>
