<svg id="Layer_1" data-name="Layer 1" xmlns="http://www.w3.org/2000/svg" viewBox="0 0 113.39 113.39"><defs><style>.cls-1{fill:#b0d235;}.cls-2{fill:none;stroke:#b0d235;stroke-miterlimit:3.86;stroke-width:0.37px;}.cls-3{fill:#231f20;}</style></defs><title>News App Logos</title><path class="cls-1" d="M24,55H19.2V34.24h3L28,43.08l5.78-8.84h3V55H32V51.6h1.63V41.3c0-.62,0-1.19.06-1.88a18.83,18.83,0,0,1-1.1,1.81l-4.37,6.44-4.71-6.52a9.14,9.14,0,0,1-1.06-1.73V51.6H24Z"/><path class="cls-2" d="M24,55H19.2V34.24h3L28,43.08l5.78-8.84h3V55H32V51.6h1.63V41.3c0-.62,0-1.19.06-1.88a18.83,18.83,0,0,1-1.1,1.81l-4.37,6.44-4.71-6.52a9.14,9.14,0,0,1-1.06-1.73V51.6H24Z"/><path class="cls-3" d="M105.65,68.49h-.89v-3.8c0-.78-.15-1.31-.92-1.31a2.92,2.92,0,0,0-1.83.86c0,.09,0,.24,0,.35v3.9h-.89V64.7c0-.77-.18-1.32-.94-1.32a2.84,2.84,0,0,0-1.81.88v4.23h-.9V62.71h.75l.12.71a3.32,3.32,0,0,1,2.07-.84,1.42,1.42,0,0,1,1.42,1,3.39,3.39,0,0,1,2.11-1,1.57,1.57,0,0,1,1.7,1.79ZM97,60.05l-.18.71a1.42,1.42,0,0,0-.7-.16c-.53,0-.77.37-.77,1v1.1h1.5l-.31.74H95.3v5h-.88v-5h-.73v-.74h.73v-1a1.59,1.59,0,0,1,1.67-1.83,2,2,0,0,1,.86.19"/><path class="cls-1" d="M24,61.71H22.41V72c0,.62,0,1.19-.05,1.88a15,15,0,0,1,1.08-1.8l4.37-6.46,4.72,6.54a9.22,9.22,0,0,1,1.06,1.72V61.71H32V58.29H36.8V79.07h-3L28,70.23l-5.78,8.84h-3V58.29H24Z"/><path class="cls-2" d="M24,61.71H22.41V72c0,.62,0,1.19-.05,1.88a15,15,0,0,1,1.08-1.8l4.37-6.46,4.72,6.54a9.22,9.22,0,0,1,1.06,1.72V61.71H32V58.29H36.8V79.07h-3L28,70.23l-5.78,8.84h-3V58.29H24Z"/><path class="cls-3" d="M89,62.34a2.05,2.05,0,1,0-4,0Zm2.22,1.57H85a2.78,2.78,0,0,0,2.93,2.81A4.87,4.87,0,0,0,90.33,66l.55,1.4a6.08,6.08,0,0,1-3.4,1c-3.27,0-4.72-2.5-4.72-5.15s1.62-5.05,4.26-5.05,4.19,2,4.19,5ZM49,63.91H42.78a2.77,2.77,0,0,0,2.92,2.81A4.87,4.87,0,0,0,48.15,66l.55,1.4a6.05,6.05,0,0,1-3.39,1c-3.27,0-4.74-2.5-4.74-5.15s1.63-5.05,4.26-5.05,4.2,2,4.2,5Zm-2.22-1.57a2.05,2.05,0,1,0-4.05,0Zm12.77,6.15H57.44V62.66c0-1-.21-2.24-1.53-2.24a4.7,4.7,0,0,0-2.65,1.16v6.91H51.12V58.75h1.79l.25,1.09a5.5,5.5,0,0,1,3.45-1.34c1.44,0,3,1,3,3.48Zm10.54-4.58H63.87a2.77,2.77,0,0,0,2.93,2.81A4.86,4.86,0,0,0,69.24,66l.56,1.4a6.11,6.11,0,0,1-3.4,1c-3.27,0-4.74-2.5-4.74-5.15s1.63-5.05,4.27-5.05,4.19,2,4.19,5ZM67.9,62.34a2.05,2.05,0,1,0-4.05,0Zm12.76,6.15H78.53V62.66c0-1-.21-2.24-1.52-2.24a4.67,4.67,0,0,0-2.66,1.16v6.91H72.21V58.75H74l.25,1.09A5.48,5.48,0,0,1,77.7,58.5c1.44,0,3,1,3,3.48Z"/><path class="cls-3" d="M86.08,46.54c-1.65,0-2.51,1.38-2.51,3.38s1,3.38,2.55,3.38,2.53-1.4,2.53-3.38-1-3.38-2.57-3.38m0-1.72a4.51,4.51,0,0,1,3.41,1.36,5.25,5.25,0,0,1,1.34,3.73,5.32,5.32,0,0,1-1.38,3.76A4.64,4.64,0,0,1,86.1,55a4.52,4.52,0,0,1-3.26-1.2A5.29,5.29,0,0,1,81.39,50a5.37,5.37,0,0,1,1.4-3.78,4.44,4.44,0,0,1,3.31-1.35m-71,10H13.36l-.39-1a4.72,4.72,0,0,1-3,1.17c-1.3,0-3.19-.65-3.19-3.66V45.06H8.89v6.13c0,1.36.61,2.07,1.8,2.07a3.09,3.09,0,0,0,2.12-1V45.06H15v6.57a11.88,11.88,0,0,0,.19,3.17m34.49,0H47.49V49c0-1.13-.2-2.25-1.56-2.25a4.28,4.28,0,0,0-2.58,1.2V54.8H41.22V40.23h2.13v5.93a5.21,5.21,0,0,1,3.29-1.34c1.45,0,3,.79,3,3.57Zm6.87-.22a3.53,3.53,0,0,1-1.71.42,1.83,1.83,0,0,1-2-2V40.23H54.9V52c0,.79.16,1,.69,1a2.18,2.18,0,0,0,.64-.08ZM63,44.82a4.53,4.53,0,0,1,3.42,1.36,5.29,5.29,0,0,1,1.33,3.73,5.35,5.35,0,0,1-1.37,3.76A4.68,4.68,0,0,1,63,55a4.47,4.47,0,0,1-3.25-1.2A5.22,5.22,0,0,1,58.3,50a5.33,5.33,0,0,1,1.41-3.78A4.44,4.44,0,0,1,63,44.82m0,1.72c-1.64,0-2.51,1.38-2.51,3.38s1,3.38,2.55,3.38,2.54-1.4,2.54-3.38-1-3.38-2.58-3.38m16.06,3A5.31,5.31,0,0,1,73.43,55a6.5,6.5,0,0,1-3-.65V40.23h2.15v4.94a5.82,5.82,0,0,1,2-.35,4.4,4.4,0,0,1,4.53,4.75m-2.15.17a2.8,2.8,0,0,0-2.79-3.06,3.51,3.51,0,0,0-1.57.36v6a3.39,3.39,0,0,0,1.31.17,3.21,3.21,0,0,0,3-3.46"/></svg>