<svg id="Layer_1" data-name="Layer 1" xmlns="http://www.w3.org/2000/svg" xmlns:xlink="http://www.w3.org/1999/xlink" viewBox="0 0 113.39 113.39"><defs><style>.cls-1,.cls-14,.cls-3{fill:#ffcb05;}.cls-1{clip-rule:evenodd;}.cls-2{fill:url(#New_Gradient_1);}.cls-10,.cls-11,.cls-12,.cls-13,.cls-15,.cls-16,.cls-17,.cls-18,.cls-20,.cls-21,.cls-22,.cls-28,.cls-29,.cls-3,.cls-30,.cls-34,.cls-39,.cls-40,.cls-41,.cls-49,.cls-50,.cls-51,.cls-52,.cls-53,.cls-54,.cls-55,.cls-56,.cls-57,.cls-58,.cls-59,.cls-60,.cls-62,.cls-9{fill-rule:evenodd;}.cls-4{clip-path:url(#clip-path);}.cls-5{fill:url(#New_Gradient_2);}.cls-6,.cls-9{fill:none;}.cls-7{fill:url(#New_Gradient_3);}.cls-8{fill:url(#New_Gradient_4);}.cls-10{fill:url(#New_Gradient_43);}.cls-11{fill:url(#New_Gradient_43-2);}.cls-12{fill:url(#New_Gradient_42);}.cls-15{fill:url(#New_Gradient_7);}.cls-16{fill:url(#New_Gradient_9);}.cls-17{fill:url(#New_Gradient_9-2);}.cls-18{fill:#f3c108;}.cls-19{fill:url(#New_Gradient_41);}.cls-20{fill:url(#New_Gradient_40);}.cls-21{fill:url(#New_Gradient_39);}.cls-22{fill:url(#New_Gradient_38);}.cls-23{fill:url(#New_Gradient_37);}.cls-24{fill:url(#New_Gradient_15);}.cls-25{fill:url(#New_Gradient_19);}.cls-26{fill:url(#New_Gradient_33);}.cls-27{fill:url(#New_Gradient_19-2);}.cls-28{fill:url(#New_Gradient_19-3);}.cls-29{fill:url(#New_Gradient_18);}.cls-30{fill:url(#New_Gradient_19-4);}.cls-31{fill:url(#New_Gradient_33-2);}.cls-32{fill:url(#New_Gradient_20);}.cls-33{fill:url(#New_Gradient_21);}.cls-34,.cls-43{fill:#fff;}.cls-35{fill:url(#New_Gradient_21-2);}.cls-36{fill:url(#New_Gradient_22);}.cls-37{fill:url(#New_Gradient_21-3);}.cls-38{fill:url(#New_Gradient_23);}.cls-39{fill:url(#New_Gradient_24);}.cls-40{fill:url(#New_Gradient_25);}.cls-41{fill:url(#New_Gradient_26);}.cls-42{fill:url(#New_Gradient_27);}.cls-44{fill:url(#New_Gradient_31);}.cls-45{fill:url(#New_Gradient_17);}.cls-46{fill:url(#New_Gradient_16);}.cls-47{fill:url(#New_Gradient_36);}.cls-48{fill:url(#New_Gradient_8);}.cls-49{fill:url(#New_Gradient_33-3);}.cls-50{fill:url(#New_Gradient_18-2);}.cls-51{fill:url(#New_Gradient_33-4);}.cls-52{fill:url(#New_Gradient_34);}.cls-53{fill:url(#New_Gradient_25-2);}.cls-54{fill:url(#New_Gradient_35);}.cls-55{fill:url(#New_Gradient_33-5);}.cls-56{fill:url(#New_Gradient_18-3);}.cls-57{fill:url(#New_Gradient_33-6);}.cls-58{fill:url(#New_Gradient_34-2);}.cls-59{fill:url(#New_Gradient_25-3);}.cls-60{fill:url(#New_Gradient_35-2);}.cls-61{fill:url(#New_Gradient_36-2);}.cls-62,.cls-63{fill:#231f20;}</style><radialGradient id="New_Gradient_1" cx="12.02" cy="41.22" r="89.08" gradientUnits="userSpaceOnUse"><stop offset="0" stop-color="#fceecd"/><stop offset="0.11" stop-color="#f3c108"/><stop offset="1" stop-color="#b28f04"/></radialGradient><clipPath id="clip-path"><path class="cls-1" d="M98,34.49h.31a2.35,2.35,0,0,1,.59.1A2,2,0,0,1,100,36a.33.33,0,0,1,0,.14c0,.11,0,.22,0,.33V65.83s0,.17,0,.25a1.43,1.43,0,0,1-.38.66,1.73,1.73,0,0,1-1.14.64H14.61a1.82,1.82,0,0,1-.52-.16,2.83,2.83,0,0,1-.76-.78,1.18,1.18,0,0,1-.2-.55V36.09a1.75,1.75,0,0,1,0-.25,1.81,1.81,0,0,1,.37-.69,1.7,1.7,0,0,1,1.32-.66Z"/></clipPath><radialGradient id="New_Gradient_2" cx="70.2" cy="49.61" r="31.92" gradientUnits="userSpaceOnUse"><stop offset="0" stop-color="#bc9109"/><stop offset="0.81" stop-color="#ffcb05"/><stop offset="1" stop-color="#ffcb05"/></radialGradient><radialGradient id="New_Gradient_3" cx="67.1" cy="46" r="12.87" gradientUnits="userSpaceOnUse"><stop offset="0" stop-color="#fff"/><stop offset="0.18" stop-color="#c9654c"/><stop offset="1" stop-color="#9b0a0d"/></radialGradient><radialGradient id="New_Gradient_4" cx="66.94" cy="45.94" r="11.67" gradientUnits="userSpaceOnUse"><stop offset="0" stop-color="#e34a34"/><stop offset="0.14" stop-color="#e34a34"/><stop offset="0.9" stop-color="#d71920"/><stop offset="1" stop-color="#c4161c"/></radialGradient><linearGradient id="New_Gradient_43" x1="90.52" y1="76.46" x2="22.6" y2="25.28" gradientUnits="userSpaceOnUse"><stop offset="0" stop-color="#231f20"/><stop offset="1" stop-color="#bcbec0"/></linearGradient><linearGradient id="New_Gradient_43-2" x1="91.5" y1="77.26" x2="21.64" y2="24.62" xlink:href="#New_Gradient_43"/><linearGradient id="New_Gradient_42" x1="22.8" y1="25.43" x2="90.31" y2="76.31" gradientUnits="userSpaceOnUse"><stop offset="0"/><stop offset="1" stop-color="#bcbec0"/></linearGradient><linearGradient id="New_Gradient_7" x1="26.7" y1="49.04" x2="20.82" y2="44.1" gradientUnits="userSpaceOnUse"><stop offset="0" stop-color="#d3a809"/><stop offset="1" stop-color="#fff"/></linearGradient><linearGradient id="New_Gradient_9" x1="31.98" y1="59.04" x2="15.12" y2="44.89" gradientUnits="userSpaceOnUse"><stop offset="0" stop-color="#d3a809"/><stop offset="1" stop-color="#f3c108"/></linearGradient><linearGradient id="New_Gradient_9-2" x1="21.64" y1="44.58" x2="26.08" y2="48.31" xlink:href="#New_Gradient_9"/><radialGradient id="New_Gradient_41" cx="49.7" cy="41.11" r="21.97" gradientUnits="userSpaceOnUse"><stop offset="0" stop-color="#d1d3d4"/><stop offset="0.09" stop-color="#58595b"/><stop offset="1"/></radialGradient><radialGradient id="New_Gradient_40" cx="18.7" cy="40.67" r="22.02" gradientUnits="userSpaceOnUse"><stop offset="0" stop-color="#d1d3d4"/><stop offset="0.14" stop-color="#58595b"/><stop offset="1"/></radialGradient><linearGradient id="New_Gradient_39" x1="27.55" y1="49.11" x2="20.21" y2="43.58" gradientUnits="userSpaceOnUse"><stop offset="0" stop-color="#231f20"/><stop offset="1" stop-color="#58595b"/></linearGradient><radialGradient id="New_Gradient_38" cx="26.41" cy="49.42" r="7.51" gradientUnits="userSpaceOnUse"><stop offset="0" stop-color="#808285"/><stop offset="0.09" stop-color="#808285"/><stop offset="0.27" stop-color="#58595b"/><stop offset="1"/></radialGradient><radialGradient id="New_Gradient_37" cx="35.31" cy="41.55" r="21.52" gradientUnits="userSpaceOnUse"><stop offset="0" stop-color="#d1d3d4"/><stop offset="0.09" stop-color="#58595b"/><stop offset="1"/></radialGradient><radialGradient id="New_Gradient_15" cx="67.75" cy="46.86" r="10.86" gradientUnits="userSpaceOnUse"><stop offset="0" stop-color="#fff"/><stop offset="0.34" stop-color="#c9654c"/><stop offset="1" stop-color="#d71920"/></radialGradient><linearGradient id="New_Gradient_19" x1="87.25" y1="52.43" x2="83.4" y2="49.21" gradientUnits="userSpaceOnUse"><stop offset="0" stop-color="#3f2f00"/><stop offset="1" stop-color="#d3a809"/></linearGradient><linearGradient id="New_Gradient_33" x1="95.84" y1="52.7" x2="91.5" y2="49.05" gradientUnits="userSpaceOnUse"><stop offset="0" stop-color="#3f2f00"/><stop offset="1" stop-color="#ffcb05"/></linearGradient><linearGradient id="New_Gradient_19-2" x1="87.28" y1="42.56" x2="83.44" y2="39.34" xlink:href="#New_Gradient_19"/><linearGradient id="New_Gradient_19-3" x1="91.13" y1="42.89" x2="86.87" y2="39.31" xlink:href="#New_Gradient_19"/><linearGradient id="New_Gradient_18" x1="90.29" y1="42.19" x2="87.7" y2="40.01" gradientUnits="userSpaceOnUse"><stop offset="0" stop-color="#3f2f00"/><stop offset="1" stop-color="#fff7e5"/></linearGradient><linearGradient id="New_Gradient_19-4" x1="87.9" y1="40.18" x2="90.09" y2="42.02" xlink:href="#New_Gradient_19"/><linearGradient id="New_Gradient_33-2" x1="83.43" y1="51.57" x2="81.23" y2="49.72" xlink:href="#New_Gradient_33"/><radialGradient id="New_Gradient_20" cx="85.67" cy="59.74" r="9.21" gradientUnits="userSpaceOnUse"><stop offset="0" stop-color="#d3a809"/><stop offset="0.32" stop-color="#d3a809"/><stop offset="0.6" stop-color="#3f2f00"/><stop offset="0.74" stop-color="#d3a809"/><stop offset="1" stop-color="#3f2f00"/></radialGradient><linearGradient id="New_Gradient_21" x1="88.38" y1="62.43" x2="84.45" y2="59.12" gradientUnits="userSpaceOnUse"><stop offset="0" stop-color="#808285"/><stop offset="1" stop-color="#d1d3d4"/></linearGradient><linearGradient id="New_Gradient_21-2" x1="93.82" y1="63.9" x2="88.62" y2="59.54" xlink:href="#New_Gradient_21"/><linearGradient id="New_Gradient_22" x1="86.99" y1="52.22" x2="83.66" y2="49.42" gradientUnits="userSpaceOnUse"><stop offset="0" stop-color="#808285"/><stop offset="0.65" stop-color="#808285"/><stop offset="1" stop-color="#d1d3d4"/></linearGradient><linearGradient id="New_Gradient_21-3" x1="95.59" y1="52.48" x2="91.75" y2="49.27" xlink:href="#New_Gradient_21"/><radialGradient id="New_Gradient_23" cx="84.76" cy="39.05" r="4.87" gradientUnits="userSpaceOnUse"><stop offset="0" stop-color="#d1d3d4"/><stop offset="0.44" stop-color="#808285"/><stop offset="1" stop-color="#808285"/></radialGradient><radialGradient id="New_Gradient_24" cx="88.02" cy="39.56" r="4.36" gradientUnits="userSpaceOnUse"><stop offset="0" stop-color="#d1d3d4"/><stop offset="0.6" stop-color="#808285"/><stop offset="1" stop-color="#808285"/></radialGradient><linearGradient id="New_Gradient_25" x1="90.47" y1="42.34" x2="87.52" y2="39.86" gradientUnits="userSpaceOnUse"><stop offset="0" stop-color="#a7a9ac"/><stop offset="1" stop-color="#fff"/></linearGradient><linearGradient id="New_Gradient_26" x1="87.72" y1="40.03" x2="90.27" y2="42.17" gradientUnits="userSpaceOnUse"><stop offset="0" stop-color="#a7a9ac"/><stop offset="0.51" stop-color="#a7a9ac"/><stop offset="1" stop-color="#d1d3d4"/></linearGradient><linearGradient id="New_Gradient_27" x1="83.18" y1="51.36" x2="81.48" y2="49.94" gradientUnits="userSpaceOnUse"><stop offset="0" stop-color="#808285"/><stop offset="1" stop-color="#fff"/></linearGradient><radialGradient id="New_Gradient_31" cx="19.58" cy="43.5" r="18.28" gradientUnits="userSpaceOnUse"><stop offset="0" stop-color="#808285"/><stop offset="0.59" stop-color="#231f20"/><stop offset="1"/></radialGradient><radialGradient id="New_Gradient_17" cx="34.57" cy="41.76" r="20.4" gradientUnits="userSpaceOnUse"><stop offset="0" stop-color="#808285"/><stop offset="0.26" stop-color="#231f20"/><stop offset="1"/></radialGradient><radialGradient id="New_Gradient_16" cx="48.72" cy="40.93" r="21.25" gradientUnits="userSpaceOnUse"><stop offset="0" stop-color="#d1d3d4"/><stop offset="0.28" stop-color="#231f20"/><stop offset="1"/></radialGradient><radialGradient id="New_Gradient_36" cx="38.64" cy="56.78" r="4.49" gradientUnits="userSpaceOnUse"><stop offset="0" stop-color="#fff"/><stop offset="0.05" stop-color="#d1d3d4"/><stop offset="0.19" stop-color="#808285"/><stop offset="0.36" stop-color="#414042"/><stop offset="1"/></radialGradient><radialGradient id="New_Gradient_8" cx="54.29" cy="57.47" r="4.25" gradientUnits="userSpaceOnUse"><stop offset="0" stop-color="#d1d3d4"/><stop offset="0.31" stop-color="#58595b"/><stop offset="0.53" stop-color="#231f20"/><stop offset="1"/></radialGradient><linearGradient id="New_Gradient_33-3" x1="95.55" y1="42.89" x2="91.29" y2="39.31" xlink:href="#New_Gradient_33"/><linearGradient id="New_Gradient_18-2" x1="94.71" y1="42.19" x2="92.12" y2="40.01" xlink:href="#New_Gradient_18"/><linearGradient id="New_Gradient_33-4" x1="92.32" y1="40.18" x2="94.51" y2="42.02" xlink:href="#New_Gradient_33"/><radialGradient id="New_Gradient_34" cx="92.19" cy="39.13" r="4.79" gradientUnits="userSpaceOnUse"><stop offset="0" stop-color="#d1d3d4"/><stop offset="0.3" stop-color="#808285"/><stop offset="1" stop-color="#808285"/></radialGradient><linearGradient id="New_Gradient_25-2" x1="94.89" y1="42.34" x2="91.94" y2="39.86" xlink:href="#New_Gradient_25"/><linearGradient id="New_Gradient_35" x1="92.14" y1="40.03" x2="94.69" y2="42.17" gradientUnits="userSpaceOnUse"><stop offset="0" stop-color="#a7a9ac"/><stop offset="0.52" stop-color="#a7a9ac"/><stop offset="1" stop-color="#d1d3d4"/></linearGradient><linearGradient id="New_Gradient_33-5" x1="91" y1="52.72" x2="86.74" y2="49.15" xlink:href="#New_Gradient_33"/><linearGradient id="New_Gradient_18-3" x1="90.17" y1="52.02" x2="87.57" y2="49.85" xlink:href="#New_Gradient_18"/><linearGradient id="New_Gradient_33-6" x1="87.78" y1="50.02" x2="89.97" y2="51.86" xlink:href="#New_Gradient_33"/><radialGradient id="New_Gradient_34-2" cx="87.64" cy="48.97" r="4.79" xlink:href="#New_Gradient_34"/><linearGradient id="New_Gradient_25-3" x1="90.35" y1="52.17" x2="87.4" y2="49.7" xlink:href="#New_Gradient_25"/><linearGradient id="New_Gradient_35-2" x1="87.6" y1="49.87" x2="90.15" y2="52.01" xlink:href="#New_Gradient_35"/><radialGradient id="New_Gradient_36-2" cx="38.59" cy="56.86" r="4.58" xlink:href="#New_Gradient_36"/></defs><title>News App Logos</title><path class="cls-2" d="M98.35,33.24a3.65,3.65,0,0,1,.84.15A3.18,3.18,0,0,1,101,35.6a2,2,0,0,1,.06.45V65.88a5.2,5.2,0,0,1-.08.55,2.67,2.67,0,0,1-.71,1.24,2.72,2.72,0,0,1-1.88,1H14.52l-.09,0a3.14,3.14,0,0,1-.91-.33,3.9,3.9,0,0,1-1.11-1.14A2.56,2.56,0,0,1,12,65.89V36a2.64,2.64,0,0,1,.1-.57,2.89,2.89,0,0,1,.64-1.2,2.74,2.74,0,0,1,2.11-1H98S98.17,33.23,98.35,33.24Z"/><path class="cls-3" d="M98,34.49h.31a2.35,2.35,0,0,1,.59.1A2,2,0,0,1,100,36a.33.33,0,0,1,0,.14c0,.11,0,.22,0,.33V65.83s0,.17,0,.25a1.43,1.43,0,0,1-.38.66,1.73,1.73,0,0,1-1.14.64H14.61a1.82,1.82,0,0,1-.52-.16,2.83,2.83,0,0,1-.76-.78,1.18,1.18,0,0,1-.2-.55V36.09a1.75,1.75,0,0,1,0-.25,1.81,1.81,0,0,1,.37-.69,1.7,1.7,0,0,1,1.32-.66Z"/><g class="cls-4"><path class="cls-5" d="M68.88,51.76c-2.16-1.53.37-6.57,2.75-3.07,2.13,3.13-1.7,9.35-5,4.68s2.23-13.27,6.62-7c2,2.85,1.45,7.31-.42,10-2.23,3.16-5.75,2.4-7.85-.59-2.45-3.47-1.93-9,.41-12.31,2.68-3.79,6.94-3.06,9.51.59,2.9,4.11,2.39,10.68-.41,14.66-3.13,4.42-8.13,3.72-11.16-.59-3.35-4.75-2.86-12.37.41-17,3.57-5.07,9.32-4.38,12.81.58C80.38,47,79.9,55.7,76.17,61c-4,5.71-10.51,5-14.47-.58-4.25-6-3.77-15.76.42-21.7,4.47-6.35,11.7-5.68,16.12.59,4.7,6.67,4.23,17.45-.42,24-4.93,7-12.89,6.33-17.77-.59-5.16-7.31-4.69-19.14.41-26.38,5.39-7.64,14.1-7,19.43.58,5.61,8,5.15,20.84-.41,28.73C73.64,74,64.19,73.32,58.4,65.1c-6.07-8.6-5.61-22.54.41-31.08,6.29-8.92,16.48-8.28,22.73.59,6.52,9.24,6.07,24.23-.41,33.42C74.38,77.6,63.45,77,56.74,67.44c-7-9.89-6.52-25.93.42-35.77,7.2-10.21,18.87-9.57,26,.59,7.42,10.54,7,27.63-.42,38.12-7.65,10.86-20.07,10.22-27.69-.59-7.88-11.18-7.44-29.33.41-40.46,8.11-11.51,21.27-10.88,29.35.58,8.34,11.83,7.89,31-.41,42.81-8.57,12.15-22.47,11.53-31-.58-8.79-12.48-8.35-32.73.42-45.16,9-12.79,23.66-12.17,32.65.59,9.12,12.94,9.12,34,0,46.91l-.82-1.17C94.34,61,94.34,41,85.68,28.74s-22.47-12.7-31-.59C46.33,40,46,59.18,54.26,71c8.11,11.5,21.27,12,29.35.58,7.89-11.18,8.27-29.33.42-40.47C76.37,20.22,64,19.68,56.33,30.5,48.9,41,48.52,58.13,55.91,68.62c7.2,10.22,18.88,10.76,26.05.59,7-9.89,7.35-25.94.41-35.78C75.63,23.86,64.69,23.32,58,32.84c-6.52,9.25-6.9,24.24-.41,33.44,6.29,8.92,16.48,9.45,22.74.58,6.06-8.6,6.43-22.54.41-31.09-5.84-8.28-15.29-8.8-21.09-.58-5.61,8-6,20.84-.41,28.74,5.38,7.63,14.09,8.16,19.43.59,5.16-7.32,5.53-19.15.42-26.4-4.93-7-12.9-7.51-17.78-.59-4.71,6.67-5.07,17.45-.42,24,4.48,6.35,11.71,6.86,16.13.59,4.25-6,4.61-15.75.41-21.7-4-5.71-10.51-6.21-14.47-.59-3.8,5.38-4.15,14.06-.41,19.36,3.57,5.06,9.31,5.56,12.82.58,3.34-4.74,3.68-12.36.41-17-3.12-4.42-8.12-4.9-11.17-.58-2.89,4.1-3.22,10.67-.41,14.66,2.67,3.79,6.93,4.25,9.51.59,2.45-3.47,2.77-9,.42-12.32-2.23-3.16-5.74-3.59-7.86-.59-5,7,2,15.9,5.79,10.56s-1.45-12-4.14-8.21.88,8.11,2.49,5.86-.27-4.23-.86-3.49c-.21.27-.48.74-.13,1Z"/></g><path class="cls-6" d="M70,42.84c2.47,0,4,2,4.82,4.21a11.39,11.39,0,0,1,.67,3.81A12.34,12.34,0,0,1,75,54.22c-.69,2.23-2.21,4.65-5.08,4.65a4.26,4.26,0,0,1-3-1.38c-2.06-2-2.43-5.41-2.43-6.62a12,12,0,0,1,1-4.62C66.35,44.38,68,42.84,70,42.84Z"/><path class="cls-6" d="M14.87,33.66H98a3.76,3.76,0,0,1,1.12.13,2.81,2.81,0,0,1,1.6,1.93,3.25,3.25,0,0,1,0,.7V65.8a2.27,2.27,0,0,1-.66,1.56,2.44,2.44,0,0,1-1.64.86H14.55a2.54,2.54,0,0,1-.84-.28,3.5,3.5,0,0,1-1-1,2.05,2.05,0,0,1-.33-1V36.09A2.54,2.54,0,0,1,13,34.56,2.4,2.4,0,0,1,14.87,33.66Z"/><path class="cls-6" d="M98.35,33.24a3.65,3.65,0,0,1,.84.15A3.18,3.18,0,0,1,101,35.6a2,2,0,0,1,.06.45V65.88a5.2,5.2,0,0,1-.08.55,2.67,2.67,0,0,1-.71,1.24,2.72,2.72,0,0,1-1.88,1H14.52l-.09,0a3.14,3.14,0,0,1-.91-.33,3.9,3.9,0,0,1-1.11-1.14A2.56,2.56,0,0,1,12,65.89V36a2.64,2.64,0,0,1,.1-.57,2.89,2.89,0,0,1,.64-1.2,2.74,2.74,0,0,1,2.11-1H98S98.17,33.23,98.35,33.24Z"/><path class="cls-7" d="M75,54.22c-.7,2.24-2.21,4.65-5.08,4.65a4.28,4.28,0,0,1-3-1.38c-2.06-2-2.43-5.41-2.43-6.62a12,12,0,0,1,1-4.62c.88-1.87,2.49-3.41,4.51-3.41,2.46,0,4,2,4.82,4.21a11.39,11.39,0,0,1,.67,3.81A12.34,12.34,0,0,1,75,54.22Z"/><path class="cls-8" d="M74.36,50.86a11.08,11.08,0,0,1-.46,2.94c-.63,2-1.86,3.81-4,3.81a3.22,3.22,0,0,1-2.24-1.07c-1.69-1.65-2-4.57-2-5.67a10.72,10.72,0,0,1,.87-4A4.2,4.2,0,0,1,70,44.09c1.82,0,3.07,1.45,3.79,3.43A10.07,10.07,0,0,1,74.36,50.86Z"/><path class="cls-6" d="M98,34.49h.31a2.35,2.35,0,0,1,.59.1A2,2,0,0,1,100,36a.33.33,0,0,1,0,.14c0,.11,0,.22,0,.33V65.83s0,.17,0,.25a1.43,1.43,0,0,1-.38.66,1.73,1.73,0,0,1-1.14.64H14.61a1.82,1.82,0,0,1-.52-.16,2.83,2.83,0,0,1-.76-.78,1.18,1.18,0,0,1-.2-.55V36.09a1.75,1.75,0,0,1,0-.25,1.81,1.81,0,0,1,.37-.69,1.7,1.7,0,0,1,1.32-.66Z"/><path class="cls-9" d="M15,36.45H98.13V65.29H15Zm83-2h.31a2.35,2.35,0,0,1,.59.1A2,2,0,0,1,100,36a.33.33,0,0,1,0,.14c0,.11,0,.22,0,.33V65.83s0,.17,0,.25a1.43,1.43,0,0,1-.38.66,1.73,1.73,0,0,1-1.14.64H14.61a1.82,1.82,0,0,1-.52-.16,2.83,2.83,0,0,1-.76-.78,1.18,1.18,0,0,1-.2-.55V36.09a1.75,1.75,0,0,1,0-.25,1.81,1.81,0,0,1,.37-.69,1.7,1.7,0,0,1,1.32-.66Z"/><path class="cls-10" d="M14.62,65.29a.41.41,0,0,0,.37.42H98.14a.42.42,0,0,0,.37-.42V36.45a.42.42,0,0,0-.36-.42H15a.42.42,0,0,0-.37.42Zm-.25-28.84a.67.67,0,0,1,.61-.7H98.15a.69.69,0,0,1,.6.7V65.29a.67.67,0,0,1-.61.7H15a.67.67,0,0,1-.62-.7Z"/><path class="cls-11" d="M98.27,34.92a2,2,0,0,1,.51.08,1.61,1.61,0,0,1,.84,1.06c0,.11,0,.25,0,.36V65.81a.8.8,0,0,1,0,.15,1,1,0,0,1-.26.46,1.42,1.42,0,0,1-.9.54H14.64l-.2,0-.16-.06a2.48,2.48,0,0,1-.64-.65,1.73,1.73,0,0,1-.12-.25s0,0,0-.06V36.11s0-.07,0-.15a1.31,1.31,0,0,1,.28-.51,1.33,1.33,0,0,1,1.06-.54h83.4Zm.58-.19a1.9,1.9,0,0,1,1,1.25v.07c0,.11,0,.26,0,.37v29.4a1.12,1.12,0,0,1,0,.22,1.26,1.26,0,0,1-.34.59,1.61,1.61,0,0,1-1.06.61H14.6l-.22,0a1.1,1.1,0,0,1-.23-.09,2.66,2.66,0,0,1-.71-.74,1.66,1.66,0,0,1-.15-.3l0-.1V36.09a.8.8,0,0,1,0-.21,1.67,1.67,0,0,1,.33-.63,1.61,1.61,0,0,1,1.24-.62H98.29A2.62,2.62,0,0,1,98.85,34.73Z"/><path class="cls-12" d="M14.62,65.29V36.45A.42.42,0,0,1,15,36H98.14a.42.42,0,0,1,.36.42V65.29a.42.42,0,0,1-.37.42H15A.41.41,0,0,1,14.62,65.29Zm.24-28.84a.14.14,0,0,1,.12-.14H98.14a.16.16,0,0,1,.12.14V65.29a.14.14,0,0,1-.12.14H15a.15.15,0,0,1-.13-.14Z"/><path class="cls-13" d="M14.62,65.29a.41.41,0,0,0,.37.42H98.14a.42.42,0,0,0,.37-.42V36.45a.42.42,0,0,0-.36-.42H15a.42.42,0,0,0-.37.42ZM98.27,34.92a2,2,0,0,1,.51.08,1.61,1.61,0,0,1,.84,1.06c0,.11,0,.25,0,.36V65.81a.8.8,0,0,1,0,.15,1,1,0,0,1-.26.46,1.42,1.42,0,0,1-.9.54H14.64l-.2,0-.16-.06a2.48,2.48,0,0,1-.64-.65,1.73,1.73,0,0,1-.12-.25s0,0,0-.06V36.11s0-.07,0-.15a1.31,1.31,0,0,1,.28-.51,1.33,1.33,0,0,1,1.06-.54h83.4Z"/><path class="cls-14" d="M54.54,43.53A1.74,1.74,0,0,0,53.17,43c-1.12,0-1.82.72-2.34,2.09A16.93,16.93,0,0,0,50,51a17.26,17.26,0,0,0,.68,5.45c.51,1.45,1.35,2.37,2.69,2.37s2-1.21,2.28-2.43a8.81,8.81,0,0,0,.24-1.67c0-.45,0-.75,0-.75H53.16V49.53h7.07v1.76c0,.6,0,1.38-.08,2.41a23.49,23.49,0,0,1-.69,3.89c-.77,3-2.32,4.35-3.68,5a5.59,5.59,0,0,1-1.78.49,4,4,0,0,1-.74,0,6.05,6.05,0,0,1-4.94-2.26c-1.74-2-2.89-5.41-2.89-9.92,0-6.78,2.37-12.24,7.74-12.24a6.55,6.55,0,0,1,6.18,4.64l.34.93L55.53,46l-.27-1A3.67,3.67,0,0,0,54.54,43.53Z"/><path class="cls-14" d="M37,58.7a2.42,2.42,0,0,0,2.51-2.6A3.12,3.12,0,0,0,38,53.42l-1.24-.93a13.84,13.84,0,0,1-1.86-1.63,7,7,0,0,1-1.91-5.19,7.89,7.89,0,0,1,1.52-5.05,5.44,5.44,0,0,1,4.26-2,7.16,7.16,0,0,1,2.67.61,5.69,5.69,0,0,1,.55.27l.49.27v4.35l-1.26-.74a3.53,3.53,0,0,0-1.67-.56,2.09,2.09,0,0,0-2.37,2.35,3.59,3.59,0,0,0,.9,2.23,6.76,6.76,0,0,0,.7.71l.5.41c.1.08.44.33.9.7s1,.87,1.6,1.44a6.72,6.72,0,0,1,1.48,2.26,7.14,7.14,0,0,1,.49,2.89,8.43,8.43,0,0,1-1.27,4.71,5.65,5.65,0,0,1-4.91,2.53,6.63,6.63,0,0,1-2.83-.6,5,5,0,0,1-.53-.28l-.45-.28V57.6l1.2.58A4.84,4.84,0,0,0,37,58.7Z"/><path class="cls-15" d="M22.41,42.88H23.7a2.36,2.36,0,0,1,1.46.64,2.84,2.84,0,0,1,.78,2v.82a3.48,3.48,0,0,1,0,.46,3.83,3.83,0,0,1-.3,1,2.4,2.4,0,0,1-2.35,1.46h-.84Zm1.29-.83a3.06,3.06,0,0,1,2,.85,3.71,3.71,0,0,1,1,2.6v.83a3.87,3.87,0,0,1-.06.59,4.47,4.47,0,0,1-.37,1.25,3.14,3.14,0,0,1-3,1.92H21.67v-8Z"/><path class="cls-16" d="M22.42,51.68a1,1,0,0,0,0,.18V62.7h-4.3V39h4.8a8.49,8.49,0,0,1,5.21,1.48c1.27,1,2,2.89,2,5.32a7.3,7.3,0,0,1-1.56,4.81,5.39,5.39,0,0,1-1.06,1,3.44,3.44,0,0,1-.47.29l3.8,10.77H26.3l-3.8-11Z"/><path class="cls-17" d="M22.41,42.88H23.7a2.36,2.36,0,0,1,1.46.64,2.84,2.84,0,0,1,.78,2v.82a3.48,3.48,0,0,1,0,.46,3.83,3.83,0,0,1-.3,1,2.4,2.4,0,0,1-2.35,1.46h-.84Zm1.29.84a1.7,1.7,0,0,1,1,.42,1.92,1.92,0,0,1,.54,1.36v.82a1.62,1.62,0,0,1,0,.31,2.94,2.94,0,0,1-.22.77,1.68,1.68,0,0,1-1.7,1h-.1V43.72Z"/><path class="cls-18" d="M22.41,42.88H23.7a2.36,2.36,0,0,1,1.46.64,2.84,2.84,0,0,1,.78,2v.82a3.48,3.48,0,0,1,0,.46,3.83,3.83,0,0,1-.3,1,2.4,2.4,0,0,1-2.35,1.46h-.84Zm0,8.8a1,1,0,0,0,0,.18V62.7h-4.3V39h4.8a8.49,8.49,0,0,1,5.21,1.48c1.27,1,2,2.89,2,5.32a7.3,7.3,0,0,1-1.56,4.81,5.39,5.39,0,0,1-1.06,1,3.44,3.44,0,0,1-.47.29l3.8,10.77H26.3l-3.8-11Z"/><path class="cls-6" d="M38.72,38.64a7.06,7.06,0,0,1,3.71,1.18v4.51s-1.61-1.49-2.93-1.49a2.09,2.09,0,0,0-2.37,2.35c0,1.79,1.7,3,2.1,3.35a23.21,23.21,0,0,1,2.5,2.14,6.72,6.72,0,0,1,1.48,2.26,7.14,7.14,0,0,1,.49,2.89,8.43,8.43,0,0,1-1.27,4.71,5.65,5.65,0,0,1-4.91,2.53,6,6,0,0,1-3.81-1.2V57.42A5.74,5.74,0,0,0,37,58.7a2.42,2.42,0,0,0,2.51-2.6A3.12,3.12,0,0,0,38,53.42l-1.24-.93a13.84,13.84,0,0,1-1.86-1.63,7,7,0,0,1-1.91-5.19,7.89,7.89,0,0,1,1.52-5.05A5.37,5.37,0,0,1,38.72,38.64Z"/><path class="cls-6" d="M55.45,46l4.17-1.78s-1.09-5.6-6.46-5.6-7.74,5.47-7.74,12.24c0,4.5,1.15,7.88,2.89,9.92a6,6,0,0,0,4.93,2.26s4.67.48,6.21-5.48a22.11,22.11,0,0,0,.77-6.29c0-1.48,0-1.77,0-1.77H53.16v4.38h2.76s.13,4.86-2.55,4.86S50,55.07,50,51a16.93,16.93,0,0,1,.83-5.9c.52-1.36,1.22-2.09,2.34-2.09a1.74,1.74,0,0,1,1.37.57A5,5,0,0,1,55.45,46Z"/><path class="cls-9" d="M18.11,39h4.8a8.49,8.49,0,0,1,5.21,1.48c1.27,1,2,2.89,2,5.32,0,4.69-3.11,6.09-3.11,6.09L30.84,62.7H26.3l-3.8-11s-.09-.07-.09.11V62.7h-4.3Zm4.3,3.85H23.7a2.36,2.36,0,0,1,1.46.64,2.84,2.84,0,0,1,.78,2v.82s0,2.93-2.69,2.93h-.84Z"/><path class="cls-19" d="M54.54,43.53A1.74,1.74,0,0,0,53.17,43c-1.12,0-1.82.72-2.34,2.09A16.93,16.93,0,0,0,50,51a17.26,17.26,0,0,0,.68,5.45c.51,1.45,1.35,2.37,2.69,2.37s2-1.21,2.28-2.43a8.81,8.81,0,0,0,.24-1.67c0-.45,0-.75,0-.75H53.16V49.53h7.07v1.76c0,.6,0,1.38-.08,2.41a23.49,23.49,0,0,1-.69,3.89c-.77,3-2.32,4.35-3.68,5a5.59,5.59,0,0,1-1.78.49,4,4,0,0,1-.74,0,6.05,6.05,0,0,1-4.94-2.26c-1.74-2-2.89-5.41-2.89-9.92,0-6.78,2.37-12.24,7.74-12.24a6.55,6.55,0,0,1,6.18,4.64l.34.93L55.53,46l-.27-1A3.67,3.67,0,0,0,54.54,43.53Z"/><path d="M56.09,44.71a4.74,4.74,0,0,0-.94-1.88,2.56,2.56,0,0,0-2-.84c-1.6,0-2.54,1.11-3.13,2.68a18,18,0,0,0-.9,6.28,18.37,18.37,0,0,0,.74,5.81c.58,1.67,1.67,3,3.49,3s2.78-1.83,3.11-3.14a11.22,11.22,0,0,0,.28-1.86c0-.51,0-.86,0-.86a1,1,0,0,0-.86-.94H54V50.51h5.34v.78c0,.57,0,1.32-.07,2.32a21.06,21.06,0,0,1-.66,3.71c-.69,2.67-2,3.82-3.18,4.34a4.79,4.79,0,0,1-1.53.42,4.45,4.45,0,0,1-.63,0,5.24,5.24,0,0,1-4.35-2c-1.54-1.8-2.65-4.91-2.65-9.24,0-6.66,2.29-11.26,6.88-11.26a5.66,5.66,0,0,1,5.38,4Z"/><path class="cls-20" d="M22,40h.88a7.69,7.69,0,0,1,4.73,1.3c1,.76,1.63,2.3,1.63,4.52A6.28,6.28,0,0,1,27.94,50a4.59,4.59,0,0,1-.89.83,2.93,2.93,0,0,1-.35.22,1.06,1.06,0,0,0-.48,1.27l3.34,9.42H26.89L23.3,51.39A3.13,3.13,0,0,0,23,51s-1.46-1.45-1.46.89v9.86H19V40Zm.4,11.67a1,1,0,0,0,0,.18V62.7h-4.3V39h4.8a8.49,8.49,0,0,1,5.21,1.48c1.27,1,2,2.89,2,5.32a7.3,7.3,0,0,1-1.56,4.81,5.39,5.39,0,0,1-1.06,1,3.44,3.44,0,0,1-.47.29l3.8,10.77H26.3l-3.8-11Z"/><path class="cls-21" d="M21.55,49.25a1,1,0,0,0,.86,1h.84a3.26,3.26,0,0,0,3.12-2A4.85,4.85,0,0,0,26.75,47a4.47,4.47,0,0,0,.06-.63V45.5a3.86,3.86,0,0,0-1.07-2.7,3.12,3.12,0,0,0-2-.89H22.41a.94.94,0,0,0-.86,1Zm-.95-6.37a1.87,1.87,0,0,1,1.73-2h1.28a4,4,0,0,1,2.63,1.14,4.94,4.94,0,0,1,1.35,3.43v.82a5.21,5.21,0,0,1-.07.8,5.79,5.79,0,0,1-.47,1.57,4.09,4.09,0,0,1-3.86,2.52,1.75,1.75,0,0,0-.28-.32,1.29,1.29,0,0,0-.71-.37c-1,0-1.6-.21-1.6-1.27Z"/><path class="cls-22" d="M21.55,49.25V42.88a.94.94,0,0,1,.86-1H23.7a3.12,3.12,0,0,1,2,.89,3.86,3.86,0,0,1,1.07,2.7v.82a4.47,4.47,0,0,1-.06.63,4.85,4.85,0,0,1-.38,1.29,3.26,3.26,0,0,1-3.12,2h-.84A.92.92,0,0,1,21.55,49.25Zm.86-6.37H23.7a2.36,2.36,0,0,1,1.46.64,2.84,2.84,0,0,1,.78,2v.82a3.48,3.48,0,0,1,0,.46,3.83,3.83,0,0,1-.3,1,2.4,2.4,0,0,1-2.35,1.46h-.84Z"/><path class="cls-23" d="M37,58.7a2.42,2.42,0,0,0,2.51-2.6A3.12,3.12,0,0,0,38,53.42l-1.24-.93a13.84,13.84,0,0,1-1.86-1.63,7,7,0,0,1-1.91-5.19,7.89,7.89,0,0,1,1.52-5.05,5.44,5.44,0,0,1,4.26-2,7.16,7.16,0,0,1,2.67.61,5.69,5.69,0,0,1,.55.27l.49.26v4.36l-1.26-.74a3.53,3.53,0,0,0-1.67-.56,2.09,2.09,0,0,0-2.37,2.35,3.59,3.59,0,0,0,.9,2.23,6.76,6.76,0,0,0,.7.71l.5.41c.1.08.44.33.9.7s1,.87,1.6,1.44a6.72,6.72,0,0,1,1.48,2.26,7.14,7.14,0,0,1,.49,2.89,8.43,8.43,0,0,1-1.27,4.71,5.65,5.65,0,0,1-4.91,2.53,6.63,6.63,0,0,1-2.83-.6,5,5,0,0,1-.53-.28l-.45-.28V57.6l1.2.58A4.84,4.84,0,0,0,37,58.7Z"/><path d="M34.57,59.08a5.64,5.64,0,0,0,2.42.6,3.34,3.34,0,0,0,3.37-3.58,4.1,4.1,0,0,0-1.92-3.49l-1.25-.93a12.66,12.66,0,0,1-1.74-1.54,5.91,5.91,0,0,1-1.65-4.47,6.79,6.79,0,0,1,1.3-4.39,4.55,4.55,0,0,1,3.62-1.66,6.13,6.13,0,0,1,2.36.54c.19.08.35.17.49.24v2.13a4.41,4.41,0,0,0-2.07-.67,3,3,0,0,0-3.23,3.33,4.55,4.55,0,0,0,1.13,2.89,8.1,8.1,0,0,0,.8.83c.23.2.43.35.53.43s.44.33.89.69,1,.83,1.54,1.38a5.77,5.77,0,0,1,1.26,1.94,5.92,5.92,0,0,1,.42,2.48A7.43,7.43,0,0,1,41.74,60a4.85,4.85,0,0,1-4.22,2.13,6,6,0,0,1-2.5-.52l-.45-.24Z"/><path class="cls-13" d="M22,40h.88a7.69,7.69,0,0,1,4.73,1.3c1,.76,1.63,2.3,1.63,4.52A6.28,6.28,0,0,1,27.94,50a4.59,4.59,0,0,1-.89.83,2.93,2.93,0,0,1-.35.22,1.06,1.06,0,0,0-.48,1.27l3.34,9.42H26.89L23.3,51.39A3.13,3.13,0,0,0,23,51s-1.46-1.45-1.46.89v9.86H19V40Zm-.47,9.24a1,1,0,0,0,.86,1h.84a3.26,3.26,0,0,0,3.12-2A4.85,4.85,0,0,0,26.75,47a4.47,4.47,0,0,0,.06-.63V45.5a3.86,3.86,0,0,0-1.07-2.7,3.12,3.12,0,0,0-2-.89H22.41a.94.94,0,0,0-.86,1Z"/><path class="cls-24" d="M69.87,57.72a3.33,3.33,0,0,1-2.3-1.1c-1.72-1.68-2.08-4.64-2.08-5.75a10.82,10.82,0,0,1,.88-4.08A4.29,4.29,0,0,1,70,44c1.88,0,3.15,1.49,3.87,3.49a10.11,10.11,0,0,1,.6,3.38,11.35,11.35,0,0,1-.46,3C73.35,55.88,72.1,57.72,69.87,57.72Zm4-3.93a10.87,10.87,0,0,0,.45-2.93,10,10,0,0,0-.58-3.33c-.71-2-2-3.4-3.76-3.4a4.17,4.17,0,0,0-3.5,2.73,10.6,10.6,0,0,0-.87,4c0,1.09.36,4,2,5.64a3.18,3.18,0,0,0,2.22,1.07C72,57.58,73.24,55.81,73.87,53.79Z"/><polygon class="cls-3" points="86.09 58.55 85.08 59.7 85.02 59.91 85.02 60.44 85.63 60.44 85.63 63.72 86.51 63.72 86.51 60.44 87.12 60.44 87.12 59.91 87.06 59.7 86.73 59.32 86.73 59.26 86.91 59.05 87.56 59.05 87.56 58.13 86.77 58.13 86.09 58.55"/><polygon class="cls-3" points="92.04 63.72 92.04 61.41 92.19 60.88 92.42 60.62 92.84 60.44 92.94 60.44 93.35 60.62 93.61 60.91 93.76 61.43 93.76 63.72 94.63 63.72 94.63 61.01 94.26 60.05 94.17 59.95 93.36 59.53 92.62 59.53 91.61 60.02 90.74 59.53 90 59.53 89.1 60.05 88.92 59.98 88.58 59.6 88.39 59.53 87.95 59.53 87.95 60.02 88.01 60.23 88.42 60.69 88.57 61.11 88.57 63.72 89.44 63.72 89.44 61.41 89.6 60.88 89.83 60.62 90.24 60.44 90.34 60.44 90.76 60.62 91.02 60.91 91.16 61.43 91.16 63.72 92.04 63.72"/><polygon class="cls-25" points="84.2 50 84.2 49.11 85.27 47.9 86.2 47.9 86.2 54.05 84.81 54.05 84.81 50 84.2 50"/><polygon class="cls-3" points="85.06 49.72 85.06 53.77 85.95 53.77 85.95 48.18 85.37 48.18 84.44 49.23 84.44 49.72 85.06 49.72"/><polygon class="cls-26" points="92.97 51.29 93.35 51.29 93.35 47.94 94.74 47.94 94.74 51.29 95.64 51.29 95.64 52.86 94.74 52.86 94.74 54.09 93.35 54.09 93.35 52.86 91.47 52.86 91.47 51.5 92.08 50.11 92.08 49.34 93.47 49.34 93.47 50.25 92.97 51.29"/><polygon class="cls-3" points="94.49 51.57 94.49 48.22 93.6 48.22 93.6 51.57 92.61 51.57 92.61 51.44 93.23 50.18 93.23 49.62 92.33 49.62 92.33 50.18 91.71 51.57 91.71 52.58 93.6 52.58 93.6 53.81 94.49 53.81 94.49 52.58 95.39 52.58 95.39 51.57 94.49 51.57"/><polygon class="cls-27" points="84.23 40.13 84.23 39.24 85.3 38.03 86.24 38.03 86.24 44.17 84.84 44.17 84.84 40.13 84.23 40.13"/><polygon class="cls-3" points="85.09 39.85 85.09 43.89 85.99 43.89 85.99 38.31 85.4 38.31 84.48 39.35 84.48 39.85 85.09 39.85"/><path class="cls-28" d="M88.54,43.89h.92l.83-.42.09-.1.37-1V39.8l-.37-1-.09-.11-.83-.41h-.92l-.83.41-.1.11-.37,1v2.6l.37,1,.1.1Zm-1-.18-.16-.18L87,42.46V39.74l.41-1.07.16-.18.92-.46h1l.91.46.16.18L91,39.74v2.72l-.41,1.07-.16.18-.91.46h-1Z"/><path class="cls-29" d="M89,39.25H89l.42.18.25.28.16.53V42l-.16.53-.25.29L89,43H89l-.43-.17-.25-.29L88.14,42V40.24l.15-.53.25-.28Zm.1-.28.51.22.34.37.18.64V42l-.18.63-.33.39-.52.21h-.15L88.41,43l-.33-.39L87.89,42V40.2l.19-.64.33-.37.51-.22Z"/><path class="cls-30" d="M89,39.25H89l.42.18.25.28.16.53V42l-.16.53-.25.29L89,43H89l-.43-.17-.25-.29L88.14,42V40.24l.15-.53.25-.28Zm0,3.42-.31-.13-.17-.2-.13-.43V40.29l.13-.43.17-.19.31-.13.32.13.17.19.13.43v1.62l-.13.43-.17.2Z"/><path class="cls-3" d="M88.54,43.89h.92l.83-.42.09-.1.37-1V39.8l-.37-1-.09-.11-.83-.41h-.92l-.83.41-.1.11-.37,1v2.6l.37,1,.1.1ZM89,39.25H89l.42.18.25.28.16.53V42l-.16.53-.25.29L89,43H89l-.43-.17-.25-.29L88.14,42V40.24l.15-.53.25-.28Z"/><rect class="cls-31" x="81.04" y="49.94" width="2.57" height="1.41"/><rect class="cls-14" x="81.29" y="50.22" width="2.08" height="0.85"/><polygon class="cls-32" points="87.08 59.33 87.28 59.55 87.37 59.87 87.37 60.72 86.75 60.72 86.75 64 85.39 64 85.39 60.72 84.77 60.72 84.77 59.87 84.86 59.55 85.94 58.33 86.71 57.85 87.81 57.85 87.81 59.25 88.43 59.25 88.71 59.35 89.05 59.74 89.08 59.75 89.94 59.25 90.8 59.25 91.62 59.71 92.57 59.25 93.42 59.25 94.31 59.72 94.47 59.88 94.88 60.96 94.88 64 93.51 64 93.51 61.48 93.39 61.06 93.22 60.86 92.89 60.72 92.56 60.86 92.41 61.03 92.29 61.45 92.29 64 90.92 64 90.92 61.48 90.8 61.06 90.62 60.86 90.3 60.72 89.97 60.86 89.82 61.03 89.69 61.45 89.69 64 88.32 64 88.32 61.16 88.21 60.84 87.8 60.39 87.71 60.07 87.71 59.33 87.08 59.33"/><polygon class="cls-33" points="85.61 60.46 84.99 60.46 84.99 59.9 85.06 59.68 86.08 58.53 86.77 58.1 87.58 58.1 87.58 59.07 86.91 59.07 86.75 59.27 86.75 59.32 87.08 59.68 87.15 59.9 87.15 60.46 86.53 60.46 86.53 63.75 85.61 63.75 85.61 60.46"/><path class="cls-34" d="M86.83,58.38h.51v.41h-.43a.4.4,0,0,0-.16.08l-.18.21a.58.58,0,0,0-.06.17v.07a1,1,0,0,0,.06.18l.3.33,0,.12v.23h-.39a.25.25,0,0,0-.23.26v3h-.43v-3a.25.25,0,0,0-.22-.26h-.39V60l0-.12,1-1.08Z"/><polygon class="cls-35" points="91.14 61.45 91.14 61.42 90.99 60.91 90.74 60.64 90.35 60.48 90.32 60.47 90.27 60.47 90.23 60.48 89.84 60.65 89.62 60.9 89.47 61.39 89.47 61.43 89.47 63.75 88.55 63.75 88.55 61.11 88.4 60.7 87.99 60.25 87.93 60.03 87.93 59.5 88.4 59.5 88.59 59.57 88.94 59.96 89.11 60.02 89.99 59.5 90.75 59.5 91.62 59.99 92.62 59.5 93.37 59.5 94.18 59.93 94.28 60.03 94.66 61.01 94.66 63.75 93.73 63.75 93.73 61.45 93.73 61.42 93.59 60.91 93.33 60.64 92.95 60.48 92.91 60.47 92.86 60.47 92.83 60.48 92.43 60.65 92.21 60.9 92.07 61.39 92.06 61.43 92.06 63.75 91.14 63.75 91.14 61.45"/><path class="cls-34" d="M91.39,63.47V61.36l-.15-.53-.06-.11-.26-.28-.08-.06-.41-.17-.08,0h-.1l-.07,0-.42.17-.08.06-.23.26,0,.1-.16.53v2.14h-.43V61.11s0-.09,0-.1l-.15-.42,0-.08-.37-.41,0-.11v-.21h.18l.1,0,.3.34.09.06.19.07a.3.3,0,0,0,.16,0l.85-.49h.64l.82.46a.41.41,0,0,0,.19,0l1-.47h.65l.72.38,0,0,.33.87v2.4H94V61.36l-.15-.53-.06-.11-.25-.28-.08-.06L93,60.21l-.07,0h-.1l-.08,0-.41.17-.08.06L92,60.7l-.06.1-.15.53v2.14Z"/><polygon class="cls-36" points="85.03 49.75 84.42 49.75 84.42 49.22 85.36 48.15 85.98 48.15 85.98 53.8 85.03 53.8 85.03 49.75"/><path class="cls-34" d="M84.67,49.47v-.14l.79-.9h.27v5.09h-.45v-3.8a.24.24,0,0,0-.22-.25Z"/><polygon class="cls-37" points="94.52 51.54 95.42 51.54 95.42 52.61 94.52 52.61 94.52 53.84 93.57 53.84 93.57 52.61 91.69 52.61 91.69 51.56 92.31 50.17 92.3 49.59 93.25 49.59 93.25 50.19 92.63 51.45 92.64 51.54 93.57 51.54 93.57 48.19 94.52 48.19 94.52 51.54"/><path class="cls-34" d="M95.17,51.82v.51h-.68a.25.25,0,0,0-.22.25v1h-.45v-1a.25.25,0,0,0-.22-.25H91.94v-.7l.59-1.34,0-.11v-.31H93v.24l-.58,1.2a.61.61,0,0,0,0,.13v.13a.24.24,0,0,0,.22.25h1a.25.25,0,0,0,.22-.25v-3.1h.45v3.1a.25.25,0,0,0,.22.25Z"/><polygon class="cls-38" points="85.07 39.88 84.45 39.88 84.45 39.34 85.39 38.28 86.01 38.28 86.01 43.92 85.07 43.92 85.07 39.88"/><path class="cls-34" d="M84.7,39.6v-.14l.8-.9h.27v5.08h-.46V39.85a.24.24,0,0,0-.22-.25Z"/><path class="cls-39" d="M87.83,43.26l0,0-.34-.87v-2.5L87.8,39l0,0,.75-.38h.84l.74.37,0,0,.33.87v2.5l-.33.87,0,0-.74.38h-.84Zm-.24.12-.38-1V39.79l.38-1,.1-.12.84-.42h.94l.83.42.1.12.38,1v2.62l-.38,1-.1.12-.83.42h-.94l-.84-.42Z"/><path class="cls-40" d="M88.47,39.19l-.08.06-.26.29,0,.09-.15.53,0,.08V42l0,.08.15.53,0,.09.25.29.09.07.42.16.08,0H89l.07,0,.42-.16.09-.07.25-.29,0-.09.16-.53V40.16l-.16-.53,0-.09-.25-.29-.08-.06L89.1,39,89,39H89l-.08,0Zm.35-.44.12,0h.11l.12,0,.44.18.17.12.25.29a1.05,1.05,0,0,1,.12.21l.16.54,0,.13V42l0,.12-.16.55a1.39,1.39,0,0,1-.11.21l-.26.29a.83.83,0,0,1-.18.13l-.44.18-.11,0H89l-.12,0-.44-.18-.18-.13L88,42.86a.84.84,0,0,1-.11-.21l-.17-.55v-2l.17-.54a.7.7,0,0,1,.11-.21l.25-.29.17-.12Z"/><path class="cls-41" d="M88.47,39.19l.42-.17L89,39H89l.07,0,.43.17.08.06.25.29,0,.09.16.53V42l-.16.53,0,.09-.25.29-.09.07-.42.16-.07,0H89l-.08,0L88.47,43,88.38,43l-.25-.29,0-.09L87.93,42l0-.08V40.24l0-.08.15-.53,0-.09.26-.29Zm.48.1H89l.4.16.24.28.15.5V42l-.15.51-.25.28-.39.15H89l-.4-.16-.24-.28-.14-.5V40.23l.15-.51.24-.27Z"/><path class="cls-34" d="M87.83,43.26l0,0-.34-.87v-2.5L87.8,39l0,0,.75-.38h.84l.74.37,0,0,.33.87v2.5l-.33.87,0,0-.74.38h-.84Zm.64-4.07-.08.06-.26.29,0,.09-.15.53,0,.08V42l0,.08.15.53,0,.09.25.29.09.07.42.16.08,0H89l.07,0,.42-.16.09-.07.25-.29,0-.09.16-.53V40.16l-.16-.53,0-.09-.25-.29-.08-.06L89.1,39,89,39H89l-.08,0Z"/><rect class="cls-42" x="81.26" y="50.19" width="2.13" height="0.9"/><rect class="cls-43" x="81.51" y="50.47" width="1.63" height="0.34"/><path class="cls-44" d="M22.9,40a7.73,7.73,0,0,1,4.76,1.31c1,.78,1.66,2.34,1.66,4.58a5.93,5.93,0,0,1-2.24,5,2.93,2.93,0,0,1-.35.22,1,1,0,0,0-.45,1.18l3.34,9.42c0,.06,0,.1-.06.1H26.89s-.05,0-.06,0L23.24,51.42A3.51,3.51,0,0,0,23,51c0-.06-1.36-1.33-1.36.84v9.86a.07.07,0,0,1-.06.07H19a.07.07,0,0,1-.06-.07V40a.07.07,0,0,1,.06-.07H22.9Zm0,.14H19V61.65h2.45V51.86c0-1.25.45-1.78,1.33-1.14a2,2,0,0,1,.23.19,3.7,3.7,0,0,1,.31.46l3.57,10.28h2.54l-3.31-9.33A1.13,1.13,0,0,1,26.68,51a2.37,2.37,0,0,0,.34-.21,5.82,5.82,0,0,0,2.18-4.91c0-2.21-.67-3.72-1.61-4.47A7.65,7.65,0,0,0,22.9,40.09Zm-.49,10.07h.84a3.41,3.41,0,0,0,3.44-3.23,4.11,4.11,0,0,0,.06-.61V45.5a3.81,3.81,0,0,0-1.05-2.65,3.08,3.08,0,0,0-2-.87H22.41a.88.88,0,0,0-.8.9v6.37A.89.89,0,0,0,22.41,50.16Zm0,.14a1,1,0,0,1-.92-1V42.88a1,1,0,0,1,.92-1H23.7a3.2,3.2,0,0,1,2.08.91,3.89,3.89,0,0,1,1.09,2.75v.82a4.54,4.54,0,0,1-.06.64,3.54,3.54,0,0,1-3.56,3.34Z"/><path class="cls-45" d="M37,59.61A3.27,3.27,0,0,0,40.3,56.1a4,4,0,0,0-1.9-3.43l-1.24-.93a12.68,12.68,0,0,1-1.75-1.54,6,6,0,0,1-1.67-4.53c0-3.58,1.7-6,5-6.12a6.36,6.36,0,0,1,2.87.78.1.1,0,0,1,0,.07v2.13c0,.07,0,.09-.09.07a4.19,4.19,0,0,0-2-.67,2.93,2.93,0,0,0-3.17,3.26,5,5,0,0,0,1.91,3.66c.23.2.42.35.53.43s.44.33.89.7a18.77,18.77,0,0,1,1.54,1.38,5.8,5.8,0,0,1,1.28,2,6.08,6.08,0,0,1,.42,2.51A7.46,7.46,0,0,1,41.79,60a4.88,4.88,0,0,1-4.27,2.16,5.84,5.84,0,0,1-3-.77.17.17,0,0,1,0-.06V59.08c0-.06,0-.09.09-.07A5.5,5.5,0,0,0,37,59.61Zm0,.14a5.62,5.62,0,0,1-2.36-.57v2.11a5.78,5.78,0,0,0,2.89.73,4.76,4.76,0,0,0,4.17-2.11,7.31,7.31,0,0,0,1.08-4.08,6.07,6.07,0,0,0-.4-2.46,5.81,5.81,0,0,0-1.25-1.91c-.55-.54-1.1-1-1.53-1.37s-.79-.61-.89-.69a8.51,8.51,0,0,1-1.35-1.27,4.66,4.66,0,0,1-1.14-2.94,3.05,3.05,0,0,1,3.29-3.4,4.21,4.21,0,0,1,2,.63v-2a6.21,6.21,0,0,0-2.78-.75c-3.21.08-4.86,2.47-4.86,6a5.84,5.84,0,0,0,1.63,4.42,12,12,0,0,0,1.74,1.53l1.24.93a4.17,4.17,0,0,1,2,3.55A3.41,3.41,0,0,1,37,59.75Z"/><path class="cls-46" d="M55.1,42.88a2.46,2.46,0,0,0-1.93-.82c-1.56,0-2.49,1.09-3.07,2.64A17.7,17.7,0,0,0,49.2,51a18.51,18.51,0,0,0,.73,5.79c.58,1.65,1.66,2.93,3.44,2.93,2.42,0,3.19-2.79,3.33-4.93,0-.51,0-.85,0-.85a.91.91,0,0,0-.8-.88H54S54,53,54,52.94V50.51a.07.07,0,0,1,.06-.07h5.34a.07.07,0,0,1,.06.07v.78c0,.57,0,1.33-.07,2.32a21.23,21.23,0,0,1-.66,3.73C58,60,56.62,61.19,55.46,61.72a4.73,4.73,0,0,1-2.19.44,5.32,5.32,0,0,1-4.39-2c-1.55-1.82-2.66-5-2.66-9.29,0-6.67,2.3-11.33,6.94-11.33a5.72,5.72,0,0,1,5.44,4.08.08.08,0,0,1,0,.09l-2.45,1.05a.07.07,0,0,1-.08-.05A4.68,4.68,0,0,0,55.1,42.88Zm.09-.1a4.81,4.81,0,0,1,.94,1.84l2.33-1a5.59,5.59,0,0,0-5.3-3.92c-4.53,0-6.82,4.54-6.82,11.19,0,4.32,1.11,7.41,2.63,9.19A5.17,5.17,0,0,0,53.28,62a4.45,4.45,0,0,0,.63,0c2.4-.25,4-2.07,4.65-4.71a22,22,0,0,0,.66-3.7c.08-1,.07-1.75.07-2.31v-.71H54.08v2.29h1.84a1,1,0,0,1,.92,1s0,.35,0,.87c-.14,2.22-1,5.06-3.45,5.06-1.85,0-3-1.34-3.55-3A18.31,18.31,0,0,1,49.07,51,17.89,17.89,0,0,1,50,44.64c.6-1.58,1.56-2.72,3.19-2.72A2.59,2.59,0,0,1,55.19,42.78Z"/><path class="cls-6" d="M98.35,33.24a3.65,3.65,0,0,1,.84.15A3.18,3.18,0,0,1,101,35.6a2,2,0,0,1,.06.45V65.88a5.2,5.2,0,0,1-.08.55,2.67,2.67,0,0,1-.71,1.24,2.72,2.72,0,0,1-1.88,1H14.52l-.09,0a3.14,3.14,0,0,1-.91-.33,3.9,3.9,0,0,1-1.11-1.14A2.56,2.56,0,0,1,12,65.89V36a2.64,2.64,0,0,1,.1-.57,2.89,2.89,0,0,1,.64-1.2,2.74,2.74,0,0,1,2.11-1H98S98.17,33.23,98.35,33.24Z"/><path class="cls-47" d="M34.26,57.82m3-5,1.23.92c1,.75,1.78,1.41,1.78,2.67A2.62,2.62,0,0,1,37.54,59,5.15,5.15,0,0,1,35,58.2a4.79,4.79,0,0,0,2,.5,2.42,2.42,0,0,0,2.51-2.6A3.12,3.12,0,0,0,38,53.42l-1.24-.93C36.15,52.07,36.71,52.37,37.27,52.79Z"/><path class="cls-48" d="M55.92,53.89l.59-.67.21.57v.7a8.55,8.55,0,0,1-.46,2.85,4.27,4.27,0,0,1-1,1.66,3.29,3.29,0,0,1-1.25.68,2.93,2.93,0,0,1-.61.06h-.13a2.12,2.12,0,0,1-1.32-1.46,2.35,2.35,0,0,0,1.47.43c1.72,0,2.38-2.05,2.53-4.22Z"/><path class="cls-49" d="M93,43.89h.92l.83-.42.09-.1.37-1V39.8l-.37-1-.09-.11-.83-.41H93l-.83.41-.1.11-.37,1v2.6l.37,1,.1.1Zm-1-.18-.17-.18-.41-1.07V39.74l.41-1.07.17-.18L92.9,38h1l.91.46.16.18.41,1.07v2.72L95,43.53l-.16.18-.91.46h-1Z"/><path class="cls-50" d="M93.39,39.25h.06l.42.18.25.28.16.53V42l-.16.53-.25.29-.42.17h-.06L93,42.78l-.26-.29L92.56,42V40.24l.15-.53.26-.28Zm.1-.28.52.22.33.37.18.64V42l-.18.63L94,43l-.52.21h-.14L92.83,43l-.33-.39L92.31,42V40.2l.19-.64.33-.37.51-.22Z"/><path class="cls-51" d="M93.39,39.25h.06l.42.18.25.28.16.53V42l-.16.53-.25.29-.42.17h-.06L93,42.78l-.26-.29L92.56,42V40.24l.15-.53.26-.28Zm0,3.42-.31-.13-.17-.2-.13-.43V40.29l.13-.43.17-.19.31-.13.32.13.18.19.12.43v1.62l-.13.43-.17.2Z"/><path class="cls-3" d="M93,43.89h.92l.83-.42.09-.1.37-1V39.8l-.37-1-.09-.11-.83-.41H93l-.83.41-.1.11-.37,1v2.6l.37,1,.1.1Zm.43-4.64h.06l.42.18.25.28.16.53V42l-.16.53-.25.29-.42.17h-.06L93,42.78l-.26-.29L92.56,42V40.24l.15-.53.26-.28Z"/><path class="cls-52" d="M92.26,43.26l0,0-.34-.87v-2.5l.34-.87,0,0,.75-.38h.83l.74.37,0,0,.33.87v2.5l-.33.87,0,0-.74.38H93Zm-.25.12-.37-1V39.79l.37-1,.1-.12.84-.42h.94l.83.42.1.12.38,1v2.62l-.38,1-.1.12-.83.42H93l-.84-.42Z"/><path class="cls-53" d="M92.89,39.19l-.08.06-.25.29s-.06.09-.06.09l-.15.53,0,.08V42l0,.08.15.53,0,.09.26.29s.08.06.08.07l.42.16.08,0h.06l.07,0,.42-.16L94,43l.25-.29s0-.09,0-.09l.16-.53V40.16l-.16-.53,0-.09L94,39.25,94,39.19,93.52,39l-.07,0h-.06l-.08,0Zm.36-.44.12,0h.1l.12,0,.44.18.17.12.25.29a1.05,1.05,0,0,1,.12.21l.16.54,0,.13V42l0,.12-.16.55a1.39,1.39,0,0,1-.11.21l-.25.29a.91.91,0,0,1-.19.13l-.44.18-.11,0h-.1l-.12,0-.44-.18-.18-.13-.25-.29a.84.84,0,0,1-.11-.21l-.16-.55,0-.12V40.22l0-.13.16-.54a.7.7,0,0,1,.11-.21l.25-.29.17-.12Z"/><path class="cls-54" d="M92.89,39.19l.42-.17.08,0h.06l.07,0,.43.17.08.06.25.29,0,.09.16.53V42l-.16.53s0,.09,0,.09L94,43l-.09.07-.42.16-.07,0h-.06l-.08,0L92.89,43s-.08-.06-.08-.07l-.26-.29,0-.09L92.35,42l0-.08V40.24l0-.08.15-.53s0-.09.06-.09l.25-.29Zm.49.1h.08l.4.16.24.28.15.5V42l-.15.51-.25.28-.39.15h-.09l-.4-.16-.24-.28-.14-.5V40.23l.15-.51.24-.27Z"/><path class="cls-34" d="M92.26,43.26l0,0-.34-.87v-2.5l.34-.87,0,0,.75-.38h.83l.74.37,0,0,.33.87v2.5l-.33.87,0,0-.74.38H93Zm.63-4.07-.08.06-.25.29s-.06.09-.06.09l-.15.53,0,.08V42l0,.08.15.53,0,.09.26.29s.08.06.08.07l.42.16.08,0h.06l.07,0,.42-.16L94,43l.25-.29s0-.09,0-.09l.16-.53V40.16l-.16-.53,0-.09L94,39.25,94,39.19,93.52,39l-.07,0h-.06l-.08,0Z"/><path class="cls-55" d="M88.41,53.73h.93l.82-.42.1-.11.37-1V49.63l-.37-1-.1-.11-.82-.42h-.93l-.83.42-.09.11-.37,1v2.61l.37,1,.09.11Zm-1-.19-.16-.18-.41-1.06V49.57l.41-1.06.16-.18.92-.47h1l.92.47.16.18.41,1.06V52.3l-.41,1.06-.16.18-.92.47h-1Z"/><path class="cls-56" d="M88.84,49.09h.06l.43.17.25.29.15.53v1.71l-.15.53-.25.29-.43.17h-.06l-.42-.17-.25-.29L88,51.79V50.08l.16-.53.25-.29Zm.11-.28.51.21.33.38L90,50v1.81l-.19.63-.33.39-.51.2H88.8l-.51-.2L88,52.47l-.18-.63V50L88,49.4l.34-.38.51-.21Z"/><path class="cls-57" d="M88.84,49.09h.06l.43.17.25.29.15.53v1.71l-.15.53-.25.29-.43.17h-.06l-.42-.17-.25-.29L88,51.79V50.08l.16-.53.25-.29Zm0,3.41-.31-.13-.17-.2-.13-.42V50.12l.13-.42.17-.2.31-.12.32.13.17.19.13.42v1.63l-.13.42-.17.2Z"/><path class="cls-3" d="M88.41,53.73h.93l.82-.42.1-.11.37-1V49.63l-.37-1-.1-.11-.82-.42h-.93l-.83.42-.09.11-.37,1v2.61l.37,1,.09.11Zm.43-4.64h.06l.43.17.25.29.15.53v1.71l-.15.53-.25.29-.43.17h-.06l-.42-.17-.25-.29L88,51.79V50.08l.16-.53.25-.29Z"/><path class="cls-58" d="M87.71,53.1l0,0-.33-.88v-2.5l.33-.87,0,0,.75-.38h.83l.75.38,0,0,.34.87v2.5l-.34.88,0,0-.75.38h-.83Zm-.24.12-.38-1V49.63l.38-1,.1-.11.84-.43h.94l.83.43.1.11.38,1v2.61l-.38,1-.1.11-.83.43h-.94l-.84-.43Z"/><path class="cls-59" d="M88.35,49l-.09.06-.25.28s-.05.09-.05.1L87.8,50v1.87l.16.53.05.1.25.29.09.06.42.17H89l.42-.17.09-.06.25-.29.05-.1.15-.53,0-.08V50.08l0-.08-.15-.53s-.05-.09-.05-.1l-.26-.28A.24.24,0,0,0,89.4,49L89,48.85h-.21Zm.35-.45.12,0h.11l.12,0,.44.19a.66.66,0,0,1,.17.12l.25.28a.84.84,0,0,1,.11.21l.17.55v2l-.17.55a.78.78,0,0,1-.11.2l-.25.29a.55.55,0,0,1-.18.13l-.44.18-.12,0h-.1l-.11,0-.44-.18a.46.46,0,0,1-.18-.13l-.26-.29a1.28,1.28,0,0,1-.11-.2l-.16-.55,0-.12V50.05l0-.12.16-.55a1.43,1.43,0,0,1,.12-.21l.25-.28a.66.66,0,0,1,.17-.12Z"/><path class="cls-60" d="M88.35,49l.42-.18H89l.42.18a.24.24,0,0,1,.08.06l.26.28s.05.09.05.1l.15.53,0,.08v1.71l0,.08-.15.53-.05.1-.25.29-.09.06L89,53h-.21l-.42-.17-.09-.06L88,52.5,88,52.4l-.16-.53V50l.16-.53s.05-.09.05-.1l.25-.28Zm.48.09h.09l.4.17.24.28.14.49v1.75l-.15.5-.24.28-.39.16h-.09l-.4-.16-.24-.29L88,51.81V50.06l.15-.5.25-.28Z"/><path class="cls-34" d="M87.71,53.1l0,0-.33-.88v-2.5l.33-.87,0,0,.75-.38h.83l.75.38,0,0,.34.87v2.5l-.34.88,0,0-.75.38h-.83ZM88.35,49l-.09.06-.25.28s-.05.09-.05.1L87.8,50v1.87l.16.53.05.1.25.29.09.06.42.17H89l.42-.17.09-.06.25-.29.05-.1.15-.53,0-.08V50.08l0-.08-.15-.53s-.05-.09-.05-.1l-.26-.28A.24.24,0,0,0,89.4,49L89,48.85h-.21Z"/><path class="cls-61" d="M34.26,57.82m3-5,1.23.92c1,.75,1.78,1.41,1.78,2.67A2.62,2.62,0,0,1,37.54,59,5.15,5.15,0,0,1,35,58.2a4.79,4.79,0,0,0,2,.5,2.42,2.42,0,0,0,2.51-2.6A3.12,3.12,0,0,0,38,53.42l-1.24-.93C36.15,52.07,36.71,52.37,37.27,52.79Z"/><path class="cls-62" d="M53.66,78.42c2.34,0,3.17-1.56,3.17-3.7,0-4.2-3.11-3.83-3.37-3.83H52.33v7.53Zm.16-1.34V72.23c1.23,0,1.53,1.52,1.53,2.48S55,77.14,53.82,77.08Z"/><rect class="cls-63" x="58.13" y="70.89" width="1.49" height="7.53"/><path class="cls-62" d="M64.11,71.14a2.54,2.54,0,0,0-1.31-.37,2,2,0,0,0-2,2.22,2.49,2.49,0,0,0,1.39,2.24c.42.3.87.52.87,1.09a.8.8,0,0,1-.85.82,1.92,1.92,0,0,1-1.13-.4v1.42a2.31,2.31,0,0,0,1.28.38,2.12,2.12,0,0,0,2.16-2.35c0-2-2.26-2.1-2.26-3.34a.69.69,0,0,1,.74-.74,1.7,1.7,0,0,1,1.08.48Z"/><path class="cls-62" d="M70.2,78.42c2.34,0,3.17-1.56,3.17-3.7,0-4.2-3.11-3.83-3.37-3.83H68.87v7.53Zm.16-1.34V72.23c1.22,0,1.52,1.52,1.52,2.48S71.55,77.14,70.36,77.08Z"/><rect class="cls-63" x="74.67" y="70.89" width="1.49" height="7.53"/><polygon class="cls-62" points="77.56 70.89 77.56 78.42 80.57 78.42 80.57 77.02 79.04 77.02 79.04 75.33 80.37 75.33 80.37 73.93 79.04 73.93 79.04 72.29 80.55 72.29 80.55 70.89 77.56 70.89"/><polygon class="cls-62" points="84.99 70.89 84.99 78.42 88 78.42 88 77.02 86.48 77.02 86.48 75.33 87.8 75.33 87.8 73.93 86.48 73.93 86.48 72.29 87.98 72.29 87.98 70.89 84.99 70.89"/><polygon class="cls-62" points="89.54 70.89 89.54 78.42 92.56 78.42 92.56 77.02 91.03 77.02 91.03 75.33 92.36 75.33 92.36 73.93 91.03 73.93 91.03 72.29 92.54 72.29 92.54 70.89 89.54 70.89"/><path class="cls-62" d="M94.09,70.89v7.53h1.49V74.66l-.07-.76,0,0,1.84,4.54h1.4V70.89H97.28v3.39a4.74,4.74,0,0,0,.12,1.14l0,0-1.86-4.55Z"/></svg>