<svg id="Layer_1" data-name="Layer 1" xmlns="http://www.w3.org/2000/svg" xmlns:xlink="http://www.w3.org/1999/xlink" viewBox="0 0 113.39 113.39"><defs><style>.cls-1{fill:none;}.cls-2{clip-path:url(#clip-path);}.cls-3{fill:#fff;}.cls-4{fill:#ffd600;}.cls-5{fill:#3dae2b;}.cls-6{fill:#f5333f;}.cls-7{fill:#007bc1;}.cls-8{fill:#000001;}</style><clipPath id="clip-path"><rect class="cls-1" x="-12.85" y="-14.5" width="133.31" height="147.37"/></clipPath></defs><title>News App Logos</title><g class="cls-2"><polygon class="cls-3" points="46.73 23.17 26.47 23.17 26.47 43.37 35.81 50.5 26.47 57.59 26.47 77.84 46.71 77.84 53.81 68.54 60.86 77.84 81.14 77.84 81.14 57.64 71.8 50.5 81.14 43.41 81.14 23.17 60.93 23.17 53.81 32.49 46.73 23.17"/><rect class="cls-4" x="32.64" y="65.02" width="6.68" height="6.65"/><rect class="cls-5" x="68.29" y="65" width="6.67" height="6.67"/><rect class="cls-6" x="68.29" y="29.33" width="6.67" height="6.68"/><rect class="cls-7" x="32.64" y="29.33" width="6.67" height="6.67"/><polygon class="cls-3" points="61.59 50.5 60.58 49.5 59.41 48.33 59.41 48.32 55.67 44.59 53.81 42.72 51.94 44.59 51.63 44.9 51.63 44.9 48.2 48.32 47.89 48.63 46.03 50.5 46.03 50.5 47.89 52.37 48.2 52.68 51.63 56.1 51.63 56.1 53.81 58.28 55.67 56.42 55.99 56.1 59.41 52.68 59.72 52.37 61.59 50.5 61.59 50.5"/><path class="cls-8" d="M39.09,55.75,46,50.5l-6.9-5.25h9.46V35.78l5.26,6.91,5.25-6.91v9.47h9.46l-6.9,5.25,6.91,5.25H59.06v9.47l-5.25-6.9-5.26,6.9V55.75ZM30,42.17l11,8.33L30,58.84H45.47V74.36l8.33-11,8.33,11V58.84H77.66l-11-8.34,11-8.33H62.14V26.65l-8.33,11-8.34-11V42.17Z"/><path class="cls-8" d="M25.23,84.05v7.61H23.36V84.05h1.87Zm59,0v7.62H82.38V84h1.86ZM74,84.19V85.8H69.4V87H74v1.75H69.4v1.18H74v1.75H67.44V84H74Zm-24.38,0V85.8H45V87H49.6v1.75H45v1.18H49.6v1.75H43.06V84H49.6Zm-7.47,6.9V84h-2v4.79L38,86.29l-2.38,2.63V84h-2v7.62h2l.51-.57L38,89l1.79,2.06.41.48.09.09h1.87Zm24.38,0V84h-2v4.79l-2.2-2.54L60,88.92V84H58v7.62h2l.51-.57L62.35,89l1.79,2.06.41.48.08.09h1.88ZM28.12,88.73v2.94h-2V84.05h2v4.68ZM30.73,84V86L29.3,87l-1.18.83,2.61,1.9v2h2V88.85l-1.49-1.07,1.49-1V84ZM52.5,88.73v2.94h-2V84.05h2v4.68ZM55.11,84V86l-1.43,1-1.18.83,2.61,1.9v2h2V88.86l-1.48-1.08,1.48-1V84ZM80.45,85.8l1-1.76H74.91V85.8h3.34l-2.34,4.11-1,1.75h6.54V89.91H78.11L80,86.52Z"/><path class="cls-8" d="M42.39,61.92H29.56V74.75H42.39Zm-9.75,9.75V65h6.67v6.67Z"/><path class="cls-8" d="M78.05,61.92H65.21V74.75H78.05Zm-9.76,9.75V65H75v6.67Z"/><path class="cls-8" d="M78.05,26.25H65.21V39.09H78.05ZM68.29,36V29.33H75V36Z"/><path class="cls-8" d="M42.39,26.25H29.56V39.09H42.39ZM32.64,36V29.33h6.67V36Z"/><path class="cls-8" d="M59.4,20.06l-5.59,7.35-5.59-7.35H23.36V44.9l7.37,5.6-7.37,5.6V81H48.24l5.57-7.32L59.37,81H84.25V56.11L76.88,50.5l7.37-5.6V20.06ZM81.14,43.41,71.8,50.5l9.34,7.14v20.2H60.86l-7-9.3-7.1,9.3H26.47V57.59l9.34-7.09-9.34-7.13V23.17H46.73l7.08,9.32,7.12-9.32H81.14Z"/><polygon class="cls-8" points="56.17 80.95 53.8 77.83 51.44 80.95 56.17 80.95"/><polygon class="cls-8" points="88 84.04 88 84.53 88 84.58 86.66 84.58 86.66 85.16 88 85.16 88 85.2 88 85.65 88 85.69 86.66 85.69 86.66 86.36 86.61 86.36 86.17 86.36 86.12 86.36 86.12 84.04 86.17 84.04 88 84.04"/><polygon class="cls-8" points="89.84 85.01 88.9 84.05 88.9 86.35 88.94 86.35 89.39 86.35 89.43 86.35 89.43 85.41 89.84 85.83 90.25 85.42 90.25 86.35 90.29 86.35 90.73 86.35 90.78 86.35 90.78 84.72 90.78 84.71 90.78 84.71 90.78 84.05 89.84 85.01"/><path class="cls-8" d="M61.59,50.5l-1-1-1.17-1.18h0l-3.73-3.73-1.87-1.87-1.87,1.87-.31.31h0l-3.42,3.42-.32.31L46,50.5l1.86,1.87.32.31,3.42,3.43h0l2.18,2.17,1.87-1.86.31-.31,3.42-3.43.31-.31,1.87-1.87Zm-7.78,3.43L50.38,50.5l3.43-3.42,3.42,3.42Z"/><path class="cls-4" d="M61.62,50.5l6.91-5.25H59.06V35.78l-5.25,6.91-5.26-6.91v9.47H39.09L46,50.5l-6.9,5.26h9.46v9.46l5.26-6.9,5.25,6.9V55.76h9.47Zm0,0-7.78,7.78L46,50.5l7.78-7.78,7.78,7.78Z"/><path class="cls-8" d="M81.52,97.17h-.73V94.79h.73Zm0,1.1h-.73v-.73h.73Zm-4.58-2.19h2.2v-.55h-2.2Zm-.73-1.29h3.66v3.48h-.73V96.81h-2.2v1.46h-.73Zm-.92,3.48h-.73V96.81h-2.2v1.46h-.74V94.79h.74v1.29h2.2V94.79h.73Zm-7.52-.73H70v-.73h-2.2Zm0-1.46h1.47v-.55H67.77Zm2.94,2.19H67V94.79H70v1.29h.74ZM58.88,96.08h2.2v-.55h-2.2Zm-.73-1.29h3.66v3.48h-.73V96.81h-2.2v1.46h-.73Zm-.92,2H55.76v1.46H55V96.81H53.56v-2h.73v1.29h2.2V94.79h.74Zm-4.59,1.46h-.73l-2.2-2.42v2.42H49V94.79h.73l2.2,2.43V94.79h.73Zm-7.51-2.19h2.2v-.55h-2.2Zm-.74-1.29h3.67v3.48h-.73V96.81h-2.2v1.46h-.74Zm-.91,3.48h-.74V96.81h-2.2v1.46h-.73V94.79h.73v1.29h2.2V94.79h.74Zm-5.8-1.81,1.21,1.81H38l-1-1.46H36v1.46h-.73V94.79H36v1.29h1.12L38,94.79h.87Zm-3.37,1.81H30.64V94.79h.73v2.75h2.2V94.79h.74Zm-5.8-1.81,1.21,1.81h-.87l-1-1.46H26.79v1.46h-.73V94.79h.73v1.29h1.13l.93-1.29h.87Z"/><path class="cls-8" d="M44.35,98.32h.82V96.85h2.12v1.47h.81V94.75H44.35ZM47.29,96H45.17v-.47h2.12Z"/><polygon class="cls-8" points="28.83 94.75 27.9 96.04 26.83 96.04 26.83 94.75 26.02 94.75 26.02 98.31 26.83 98.31 26.83 96.85 27.86 96.85 28.83 98.31 29.8 98.31 28.56 96.46 29.8 94.75 28.83 94.75"/><polygon class="cls-8" points="51.87 97.12 49.73 94.75 48.94 94.75 48.94 98.31 49.75 98.31 49.75 95.95 51.88 98.3 51.89 98.31 52.69 98.31 52.69 94.75 51.87 94.75 51.87 97.12"/><polygon class="cls-8" points="38 94.75 37.06 96.04 36 96.04 36 94.75 35.19 94.75 35.19 98.31 36 98.31 36 96.85 37.02 96.85 38 98.31 38.97 98.31 37.73 96.46 38.97 94.75 38 94.75"/><polygon class="cls-8" points="42.7 96.04 40.58 96.04 40.58 94.75 39.77 94.75 39.77 98.31 40.58 98.31 40.58 96.85 42.7 96.85 42.7 98.31 43.52 98.31 43.52 94.75 42.7 94.75 42.7 96.04"/><polygon class="cls-8" points="33.53 97.5 31.41 97.5 31.41 94.75 30.6 94.75 30.6 98.31 34.35 98.31 34.35 94.75 33.53 94.75 33.53 97.5"/><rect class="cls-8" x="80.75" y="97.5" width="0.81" height="0.81"/><path class="cls-8" d="M76.17,98.32H77V96.85H79.1v1.47h.81V94.75H76.17ZM79.1,96H77v-.47H79.1Z"/><rect class="cls-8" x="80.75" y="94.75" width="0.81" height="2.46"/><path class="cls-8" d="M58.11,98.32h.81V96.85H61v1.47h.81V94.75H58.11ZM61,96H58.92v-.47H61Z"/><polygon class="cls-8" points="56.45 96.04 54.33 96.04 54.33 94.75 53.52 94.75 53.52 96.85 54.99 96.85 54.99 98.31 55.8 98.31 55.8 96.85 57.27 96.85 57.27 94.75 56.45 94.75 56.45 96.04"/><polygon class="cls-8" points="74.52 96.04 72.4 96.04 72.4 94.75 71.58 94.75 71.58 98.31 72.4 98.31 72.4 96.85 74.52 96.85 74.52 98.31 75.33 98.31 75.33 94.75 74.52 94.75 74.52 96.04"/><path class="cls-8" d="M70,94.75H67v3.57h3.75V96H70Zm-2.2,2.1h2.12v.65H67.81Zm0-1.28H69.2V96H67.81Z"/></g></svg>