<svg id="Layer_1" data-name="Layer 1" xmlns="http://www.w3.org/2000/svg" viewBox="0 0 113.39 113.39"><defs><style>.cls-1{fill:#f99b1c;}.cls-1,.cls-2,.cls-3{fill-rule:evenodd;}.cls-2{fill:#951b1e;}.cls-3,.cls-4{fill:#231f20;}</style></defs><title>News App Logos</title><path class="cls-1" d="M54.05,52.12a.51.51,0,0,1-.58-.58.52.52,0,0,1,.58-.59.52.52,0,0,1,.59.59A.52.52,0,0,1,54.05,52.12Z"/><path class="cls-2" d="M52.57,50.66a.51.51,0,0,1-.58-.58.58.58,0,1,1,1.16,0A.51.51,0,0,1,52.57,50.66Z"/><path class="cls-1" d="M54.05,53.56a.58.58,0,0,1,0-1.16.58.58,0,1,1,0,1.16Z"/><path class="cls-2" d="M52.57,52.12a.51.51,0,0,1-.58-.58.58.58,0,1,1,1.16,0A.51.51,0,0,1,52.57,52.12Z"/><path class="cls-3" d="M51.09,50.66a.51.51,0,0,1-.57-.58.58.58,0,1,1,.57.58Z"/><path class="cls-1" d="M54.05,55a.58.58,0,1,1,0-1.15.58.58,0,1,1,0,1.15Z"/><path class="cls-2" d="M52.57,53.56a.58.58,0,1,1,.58-.58A.51.51,0,0,1,52.57,53.56Z"/><path class="cls-3" d="M51.09,52.12a.51.51,0,0,1-.57-.58.58.58,0,1,1,.57.58Z"/><path class="cls-1" d="M54.05,56.47a.52.52,0,0,1-.58-.59.51.51,0,0,1,.58-.58.52.52,0,0,1,.59.58A.52.52,0,0,1,54.05,56.47Z"/><path class="cls-2" d="M52.57,55a.58.58,0,1,1,.58-.57A.51.51,0,0,1,52.57,55Z"/><path class="cls-3" d="M51.09,53.56a.58.58,0,1,1,.58-.58A.51.51,0,0,1,51.09,53.56Z"/><path class="cls-1" d="M54.05,57.91a.52.52,0,0,1-.58-.59.51.51,0,0,1,.58-.58.52.52,0,0,1,.59.58A.52.52,0,0,1,54.05,57.91Z"/><path class="cls-2" d="M52.57,56.47a.52.52,0,0,1-.58-.59.58.58,0,0,1,1.16,0A.52.52,0,0,1,52.57,56.47Z"/><path class="cls-3" d="M51.09,55a.58.58,0,0,1,0-1.15.58.58,0,1,1,0,1.15Z"/><path class="cls-1" d="M54.05,59.37a.51.51,0,0,1-.58-.58.52.52,0,0,1,.58-.59.52.52,0,0,1,.59.59A.52.52,0,0,1,54.05,59.37Z"/><path class="cls-2" d="M52.57,57.91a.52.52,0,0,1-.58-.59.58.58,0,0,1,1.16,0A.52.52,0,0,1,52.57,57.91Z"/><path class="cls-3" d="M51.09,56.47a.51.51,0,0,1-.57-.59.58.58,0,1,1,1.15,0A.52.52,0,0,1,51.09,56.47Z"/><path class="cls-1" d="M54.05,60.81a.51.51,0,0,1-.58-.58.52.52,0,0,1,.58-.59.52.52,0,0,1,.59.59A.52.52,0,0,1,54.05,60.81Z"/><path class="cls-2" d="M52.57,59.37a.51.51,0,0,1-.58-.58.58.58,0,1,1,1.16,0A.51.51,0,0,1,52.57,59.37Z"/><path class="cls-3" d="M51.09,57.91a.51.51,0,0,1-.57-.59.58.58,0,1,1,1.15,0A.52.52,0,0,1,51.09,57.91Z"/><path class="cls-3" d="M49.69,50.66a.52.52,0,0,1-.59-.58.52.52,0,0,1,.59-.59.52.52,0,0,1,.58.59A.51.51,0,0,1,49.69,50.66Z"/><path class="cls-3" d="M43.69,50.66a.5.5,0,0,1-.56-.58c0-.39.19-.59.56-.59a.52.52,0,0,1,.59.59A.52.52,0,0,1,43.69,50.66Z"/><path class="cls-3" d="M49.83,51.53c-.2,0-.31-.11-.31-.33a.28.28,0,0,1,.31-.32.29.29,0,0,1,.32.32A.29.29,0,0,1,49.83,51.53Z"/><path class="cls-1" d="M54.05,62.28a.52.52,0,0,1-.58-.59.51.51,0,0,1,.58-.58.52.52,0,0,1,.59.58A.52.52,0,0,1,54.05,62.28Z"/><path class="cls-2" d="M52.57,60.81a.51.51,0,0,1-.58-.58.58.58,0,1,1,1.16,0A.51.51,0,0,1,52.57,60.81Z"/><path class="cls-3" d="M51.09,59.37a.51.51,0,0,1-.57-.58.58.58,0,1,1,.57.58Z"/><path class="cls-3" d="M48.21,50.66a.52.52,0,0,1-.59-.58.59.59,0,1,1,1.17,0A.51.51,0,0,1,48.21,50.66Z"/><path class="cls-3" d="M43.69,52.1a.5.5,0,0,1-.56-.56c0-.39.19-.59.56-.59a.52.52,0,0,1,.59.59C44.28,51.91,44.08,52.1,43.69,52.1Z"/><path class="cls-3" d="M42.23,50.66a.51.51,0,0,1-.58-.58.52.52,0,0,1,.58-.59c.38,0,.56.2.56.59S42.61,50.66,42.23,50.66Z"/><path class="cls-3" d="M48.6,51.53c-.21,0-.31-.11-.31-.33a.28.28,0,0,1,.31-.32c.23,0,.34.11.34.32S48.83,51.53,48.6,51.53Z"/><path class="cls-3" d="M49.69,52.89a.59.59,0,1,1,0-1.17.59.59,0,0,1,0,1.17Z"/><path class="cls-1" d="M54.05,63.71a.58.58,0,0,1,0-1.16.58.58,0,1,1,0,1.16Z"/><path class="cls-2" d="M52.57,62.28a.52.52,0,0,1-.58-.59.58.58,0,0,1,1.16,0A.52.52,0,0,1,52.57,62.28Z"/><path class="cls-3" d="M51.09,60.81a.51.51,0,0,1-.57-.58.58.58,0,1,1,.57.58Z"/><path class="cls-3" d="M43.69,53.56a.58.58,0,0,1,0-1.16.58.58,0,1,1,0,1.16Z"/><path class="cls-3" d="M46.68,50.66a.51.51,0,0,1-.58-.58.52.52,0,0,1,.58-.59.52.52,0,0,1,.59.59A.52.52,0,0,1,46.68,50.66Z"/><path class="cls-3" d="M42.23,52.1a.5.5,0,0,1-.58-.56.52.52,0,0,1,.58-.59c.38,0,.56.2.56.59A.49.49,0,0,1,42.23,52.1Z"/><path class="cls-3" d="M40.75,50.66a.52.52,0,0,1-.59-.58.52.52,0,0,1,.59-.59.52.52,0,0,1,.58.59A.51.51,0,0,1,40.75,50.66Z"/><path class="cls-3" d="M47.39,51.53c-.21,0-.31-.11-.31-.33a.31.31,0,1,1,.62,0C47.7,51.42,47.6,51.53,47.39,51.53Z"/><path class="cls-3" d="M48.21,52.89a.59.59,0,1,1,0-1.17.59.59,0,0,1,0,1.17Z"/><path class="cls-1" d="M54.05,65.22a.52.52,0,0,1-.58-.59.5.5,0,0,1,.58-.56c.39,0,.59.19.59.56A.52.52,0,0,1,54.05,65.22Z"/><path class="cls-2" d="M52.57,63.71a.58.58,0,1,1,.58-.58A.51.51,0,0,1,52.57,63.71Z"/><path class="cls-3" d="M51.09,62.28a.51.51,0,0,1-.57-.59.58.58,0,1,1,1.15,0A.52.52,0,0,1,51.09,62.28Z"/><path class="cls-3" d="M43.69,55c-.37,0-.56-.2-.56-.59a.5.5,0,0,1,.56-.56c.39,0,.59.19.59.56A.52.52,0,0,1,43.69,55Z"/><path class="cls-3" d="M42.23,53.56a.58.58,0,0,1,0-1.16c.38,0,.56.19.56.58S42.61,53.56,42.23,53.56Z"/><path class="cls-3" d="M45.21,50.66a.52.52,0,0,1-.59-.58.52.52,0,0,1,.59-.59.52.52,0,0,1,.58.59A.51.51,0,0,1,45.21,50.66Z"/><path class="cls-3" d="M40.75,52.1c-.39,0-.59-.19-.59-.56a.52.52,0,0,1,.59-.59.52.52,0,0,1,.58.59A.5.5,0,0,1,40.75,52.1Z"/><path class="cls-3" d="M46.16,51.53a.29.29,0,0,1-.32-.33.29.29,0,0,1,.32-.32.28.28,0,0,1,.31.32C46.47,51.42,46.37,51.53,46.16,51.53Z"/><path class="cls-3" d="M46.68,52.89a.59.59,0,1,1,.59-.59A.52.52,0,0,1,46.68,52.89Z"/><path class="cls-2" d="M52.57,65.22a.52.52,0,0,1-.58-.59.58.58,0,0,1,1.16,0A.52.52,0,0,1,52.57,65.22Z"/><path class="cls-3" d="M51.09,63.71a.58.58,0,1,1,.58-.58A.51.51,0,0,1,51.09,63.71Z"/><path class="cls-3" d="M43.69,56.47c-.37,0-.56-.2-.56-.59a.5.5,0,0,1,.56-.58.52.52,0,0,1,.59.58A.52.52,0,0,1,43.69,56.47Z"/><path class="cls-3" d="M44.93,51.53a.29.29,0,0,1-.32-.33.29.29,0,0,1,.32-.32.29.29,0,0,1,.33.32A.29.29,0,0,1,44.93,51.53Z"/><path class="cls-3" d="M42.23,55a.52.52,0,0,1-.58-.59.5.5,0,0,1,.58-.56.49.49,0,0,1,.56.56C42.79,54.81,42.61,55,42.23,55Z"/><path class="cls-3" d="M40.75,53.56a.58.58,0,1,1,0-1.16.58.58,0,0,1,0,1.16Z"/><path class="cls-3" d="M45.22,52.89a.59.59,0,1,1,0-1.17.51.51,0,0,1,.56.58C45.78,52.69,45.59,52.89,45.22,52.89Z"/><path class="cls-3" d="M51.09,65.22a.51.51,0,0,1-.57-.59.58.58,0,0,1,1.15,0A.52.52,0,0,1,51.09,65.22Z"/><path class="cls-3" d="M43.69,57.91c-.37,0-.56-.2-.56-.59a.5.5,0,0,1,.56-.58.52.52,0,0,1,.59.58A.52.52,0,0,1,43.69,57.91Z"/><path class="cls-3" d="M42.23,56.47a.52.52,0,0,1-.58-.59.51.51,0,0,1,.58-.58c.38,0,.56.19.56.58S42.61,56.47,42.23,56.47Z"/><path class="cls-3" d="M40.75,55a.52.52,0,0,1-.59-.59c0-.37.2-.56.59-.56a.5.5,0,0,1,.58.56A.52.52,0,0,1,40.75,55Z"/><path class="cls-3" d="M43.69,59.37a.5.5,0,0,1-.56-.58c0-.39.19-.59.56-.59a.52.52,0,0,1,.59.59A.52.52,0,0,1,43.69,59.37Z"/><path class="cls-3" d="M42.23,57.91a.52.52,0,0,1-.58-.59.51.51,0,0,1,.58-.58c.38,0,.56.19.56.58S42.61,57.91,42.23,57.91Z"/><path class="cls-3" d="M40.75,56.47a.52.52,0,0,1-.59-.59.52.52,0,0,1,.59-.58.51.51,0,0,1,.58.58A.52.52,0,0,1,40.75,56.47Z"/><path class="cls-3" d="M43.69,60.81a.5.5,0,0,1-.56-.58c0-.39.19-.59.56-.59a.52.52,0,0,1,.59.59A.52.52,0,0,1,43.69,60.81Z"/><path class="cls-3" d="M42.23,59.37a.51.51,0,0,1-.58-.58.52.52,0,0,1,.58-.59c.38,0,.56.2.56.59S42.61,59.37,42.23,59.37Z"/><path class="cls-3" d="M40.75,57.91a.52.52,0,0,1-.59-.59.52.52,0,0,1,.59-.58.51.51,0,0,1,.58.58A.52.52,0,0,1,40.75,57.91Z"/><path class="cls-3" d="M43.69,62.25a.5.5,0,0,1-.56-.56.5.5,0,0,1,.56-.58.52.52,0,0,1,.59.58C44.28,62.06,44.08,62.25,43.69,62.25Z"/><path class="cls-3" d="M42.23,60.81a.51.51,0,0,1-.58-.58.52.52,0,0,1,.58-.59c.38,0,.56.2.56.59S42.61,60.81,42.23,60.81Z"/><path class="cls-3" d="M40.75,59.37a.52.52,0,0,1-.59-.58.52.52,0,0,1,.59-.59.52.52,0,0,1,.58.59A.51.51,0,0,1,40.75,59.37Z"/><path class="cls-3" d="M43.69,63.71a.58.58,0,0,1,0-1.16.58.58,0,1,1,0,1.16Z"/><path class="cls-3" d="M42.23,62.25a.5.5,0,0,1-.58-.56.51.51,0,0,1,.58-.58c.38,0,.56.19.56.58A.49.49,0,0,1,42.23,62.25Z"/><path class="cls-3" d="M40.75,60.81a.52.52,0,0,1-.59-.58.52.52,0,0,1,.59-.59.52.52,0,0,1,.58.59A.51.51,0,0,1,40.75,60.81Z"/><path class="cls-3" d="M43.69,65.16c-.37,0-.56-.2-.56-.59a.5.5,0,0,1,.56-.56c.39,0,.59.19.59.56A.52.52,0,0,1,43.69,65.16Z"/><path class="cls-3" d="M42.23,63.71a.58.58,0,1,1,0-1.16c.38,0,.56.19.56.58S42.61,63.71,42.23,63.71Z"/><path class="cls-3" d="M40.75,62.25c-.39,0-.59-.19-.59-.56a.52.52,0,0,1,.59-.58.51.51,0,0,1,.58.58A.5.5,0,0,1,40.75,62.25Z"/><path class="cls-3" d="M42.23,65.16a.52.52,0,0,1-.58-.59.5.5,0,0,1,.58-.56.49.49,0,0,1,.56.56C42.79,65,42.61,65.16,42.23,65.16Z"/><path class="cls-3" d="M40.75,63.71a.58.58,0,1,1,0-1.16.58.58,0,1,1,0,1.16Z"/><path class="cls-3" d="M40.75,65.16a.52.52,0,0,1-.59-.59c0-.37.2-.56.59-.56a.5.5,0,0,1,.58.56A.52.52,0,0,1,40.75,65.16Z"/><path class="cls-3" d="M43.69,46.31a.5.5,0,0,1-.56-.58c0-.39.19-.59.56-.59a.52.52,0,0,1,.59.59A.52.52,0,0,1,43.69,46.31Z"/><path class="cls-3" d="M43.69,47.75a.49.49,0,0,1-.56-.56.5.5,0,0,1,.56-.58.52.52,0,0,1,.59.58C44.28,47.57,44.08,47.75,43.69,47.75Z"/><path class="cls-3" d="M42.23,46.31a.51.51,0,0,1-.58-.58.52.52,0,0,1,.58-.59c.38,0,.56.2.56.59S42.61,46.31,42.23,46.31Z"/><path class="cls-3" d="M43.69,49.22c-.37,0-.56-.2-.56-.59a.5.5,0,0,1,.56-.58.52.52,0,0,1,.59.58A.52.52,0,0,1,43.69,49.22Z"/><path class="cls-3" d="M42.23,47.75c-.39,0-.58-.18-.58-.56a.51.51,0,0,1,.58-.58c.38,0,.56.19.56.58A.49.49,0,0,1,42.23,47.75Z"/><path class="cls-3" d="M40.75,46.31a.52.52,0,0,1-.59-.58.52.52,0,0,1,.59-.59.52.52,0,0,1,.58.59A.51.51,0,0,1,40.75,46.31Z"/><path class="cls-3" d="M42.23,49.22a.52.52,0,0,1-.58-.59.51.51,0,0,1,.58-.58c.38,0,.56.19.56.58S42.61,49.22,42.23,49.22Z"/><path class="cls-3" d="M40.75,47.75c-.39,0-.59-.18-.59-.56a.52.52,0,0,1,.59-.58.51.51,0,0,1,.58.58C41.33,47.57,41.14,47.75,40.75,47.75Z"/><path class="cls-3" d="M40.75,49.22a.52.52,0,0,1-.59-.59.52.52,0,0,1,.59-.58.51.51,0,0,1,.58.58A.52.52,0,0,1,40.75,49.22Z"/><path class="cls-4" d="M68.48,55.42a2,2,0,0,1,2-1.63h.13l-.15.88h-.13a1,1,0,0,0-.93.75l-.08.44h.93l-.15.88h-.93l-.12.67a2.08,2.08,0,0,1-2,1.68h-.13l.15-.89h.14a1,1,0,0,0,.93-.79l.11-.67H67.8l.16-.88h.44Z"/><path class="cls-4" d="M68.48,55.42a2,2,0,0,1,2-1.63h.13l-.15.88h-.13a1,1,0,0,0-.93.75l-.08.44h.93l-.15.88h-.93l-.12.67a2.08,2.08,0,0,1-2,1.68h-.13l.15-.89h.14a1,1,0,0,0,.93-.79l.11-.67H67.8l.16-.88h.44Z"/><polygon class="cls-4" points="71.28 54.89 71.96 56.74 73.28 54.89 73.89 58 73.11 58.31 72.72 56.85 71.61 58.71 71.15 56.85 70.25 58.31 69.59 58 71.28 54.89"/><polygon class="cls-4" points="71.28 54.89 71.96 56.74 73.28 54.89 73.89 58 73.11 58.31 72.72 56.85 71.61 58.71 71.15 56.85 70.25 58.31 69.59 58 71.28 54.89"/><path class="cls-1" d="M68.58,47.53a.52.52,0,0,1-.58.58.51.51,0,0,1-.57-.58A.5.5,0,0,1,68,47,.51.51,0,0,1,68.58,47.53Z"/><path class="cls-1" d="M70,47.26a.57.57,0,1,1-.57-.57A.51.51,0,0,1,70,47.26Z"/><path class="cls-1" d="M71.45,47.22a.58.58,0,1,1-1.15,0,.58.58,0,0,1,1.15,0Z"/><path class="cls-1" d="M72.84,47.34a.58.58,0,1,1-.58-.57A.51.51,0,0,1,72.84,47.34Z"/><path class="cls-1" d="M74.22,47.72a.57.57,0,1,1-.57-.58A.5.5,0,0,1,74.22,47.72Z"/><path class="cls-1" d="M75.54,48.31a.58.58,0,1,1-.58-.57A.51.51,0,0,1,75.54,48.31Z"/><path class="cls-1" d="M76.79,49.09a.58.58,0,1,1-.57-.57A.5.5,0,0,1,76.79,49.09Z"/><path class="cls-1" d="M77.9,50.12a.51.51,0,0,1-.57.58.52.52,0,0,1-.58-.58.51.51,0,0,1,.58-.57A.5.5,0,0,1,77.9,50.12Z"/><path class="cls-1" d="M78.92,51.27a.58.58,0,1,1-.58-.57A.51.51,0,0,1,78.92,51.27Z"/><path class="cls-1" d="M79.63,52.6a.57.57,0,1,1-.57-.57A.5.5,0,0,1,79.63,52.6Z"/><path class="cls-1" d="M80.16,54A.58.58,0,1,1,79,54a.58.58,0,0,1,1.15,0Z"/><path class="cls-1" d="M80.47,55.34a.58.58,0,1,1-.58-.57A.51.51,0,0,1,80.47,55.34Z"/><path class="cls-1" d="M80.57,56.77A.57.57,0,1,1,80,56.2.5.5,0,0,1,80.57,56.77Z"/><path class="cls-1" d="M80.43,58.2a.58.58,0,1,1-.57-.57A.5.5,0,0,1,80.43,58.2Z"/><path class="cls-1" d="M80,59.62a.57.57,0,1,1-1.14,0,.57.57,0,0,1,1.14,0Z"/><path class="cls-1" d="M79.46,61a.51.51,0,0,1-.58.57.57.57,0,1,1,0-1.14A.51.51,0,0,1,79.46,61Z"/><path class="cls-1" d="M78.71,62.19a.51.51,0,0,1-.58.57.57.57,0,1,1,0-1.14A.51.51,0,0,1,78.71,62.19Z"/><path class="cls-1" d="M77.76,63.27a.51.51,0,0,1-.57.58.52.52,0,0,1-.58-.58.51.51,0,0,1,.58-.57A.5.5,0,0,1,77.76,63.27Z"/><path class="cls-1" d="M76.65,64.27a.57.57,0,1,1-.57-.57A.51.51,0,0,1,76.65,64.27Z"/><path class="cls-1" d="M75.39,65a.58.58,0,1,1-.58-.58A.51.51,0,0,1,75.39,65Z"/><path class="cls-1" d="M74.05,65.55a.57.57,0,1,1-.57-.57A.5.5,0,0,1,74.05,65.55Z"/><path class="cls-1" d="M72.6,65.87a.57.57,0,1,1-.57-.58A.5.5,0,0,1,72.6,65.87Z"/><path class="cls-1" d="M71.2,66a.58.58,0,0,1-1.15,0,.58.58,0,1,1,1.15,0Z"/><path class="cls-1" d="M69.8,65.93a.57.57,0,1,1-.57-.57A.5.5,0,0,1,69.8,65.93Z"/><path class="cls-1" d="M68.38,65.59A.58.58,0,1,1,67.8,65,.51.51,0,0,1,68.38,65.59Z"/><path class="cls-1" d="M66.92,65a.51.51,0,0,1-.58.57.57.57,0,1,1,0-1.14A.51.51,0,0,1,66.92,65Z"/><path class="cls-1" d="M65.63,64.16a.51.51,0,0,1-.57.58.58.58,0,1,1,0-1.15A.5.5,0,0,1,65.63,64.16Z"/><path class="cls-1" d="M64.45,63.21a.58.58,0,1,1-.58-.57A.51.51,0,0,1,64.45,63.21Z"/><path class="cls-1" d="M63.47,62a.51.51,0,0,1-.58.57.58.58,0,0,1,0-1.15A.51.51,0,0,1,63.47,62Z"/><path class="cls-1" d="M62.72,60.77a.51.51,0,0,1-.58.57.57.57,0,0,1,0-1.14A.51.51,0,0,1,62.72,60.77Z"/><path class="cls-1" d="M62.17,59.37a.58.58,0,1,1-1.15,0,.58.58,0,0,1,1.15,0Z"/><path class="cls-1" d="M61.87,58a.57.57,0,1,1-.57-.57A.51.51,0,0,1,61.87,58Z"/><path class="cls-1" d="M61.82,56.59a.57.57,0,1,1-.57-.57A.5.5,0,0,1,61.82,56.59Z"/><path class="cls-1" d="M61.87,55.13a.58.58,0,1,1-.58-.57A.51.51,0,0,1,61.87,55.13Z"/><path class="cls-1" d="M62.23,53.68a.51.51,0,0,1-.57.58.58.58,0,1,1,0-1.15A.5.5,0,0,1,62.23,53.68Z"/><path class="cls-1" d="M62.87,52.26a.58.58,0,1,1-1.15,0,.58.58,0,0,1,1.15,0Z"/><path class="cls-1" d="M63.61,51a.58.58,0,1,1-1.15,0,.58.58,0,0,1,1.15,0Z"/><path class="cls-1" d="M64.66,49.78a.58.58,0,1,1-.58-.57A.51.51,0,0,1,64.66,49.78Z"/><path class="cls-1" d="M65.86,48.87a.51.51,0,0,1-.58.57.58.58,0,0,1,0-1.15A.51.51,0,0,1,65.86,48.87Z"/><path class="cls-1" d="M67.21,48.08a.57.57,0,1,1-.57-.57A.5.5,0,0,1,67.21,48.08Z"/><path class="cls-2" d="M66.56,46.54a.64.64,0,0,1-1.27,0c0-.44.21-.67.64-.67S66.56,46.1,66.56,46.54Z"/><path class="cls-2" d="M68.13,46a.64.64,0,0,1-1.28,0c0-.44.21-.66.64-.66A.58.58,0,0,1,68.13,46Z"/><path class="cls-2" d="M69.89,45.61a.64.64,0,1,1-1.28,0,.58.58,0,0,1,.64-.66C69.68,45,69.89,45.17,69.89,45.61Z"/><path class="cls-2" d="M71.57,45.58a.64.64,0,0,1-1.27,0c0-.45.21-.67.63-.67S71.57,45.13,71.57,45.58Z"/><path class="cls-2" d="M73.29,45.78a.64.64,0,0,1-1.28,0c0-.44.21-.66.64-.66A.58.58,0,0,1,73.29,45.78Z"/><path class="cls-2" d="M74.93,46.16a.64.64,0,1,1-1.27,0q0-.66.63-.66C74.72,45.5,74.93,45.72,74.93,46.16Z"/><path class="cls-2" d="M76.46,46.89a.64.64,0,1,1-1.28,0c0-.44.21-.66.64-.66A.58.58,0,0,1,76.46,46.89Z"/><path class="cls-2" d="M77.88,47.82a.64.64,0,0,1-1.28,0,.58.58,0,0,1,.64-.66C77.67,47.16,77.88,47.38,77.88,47.82Z"/><path class="cls-2" d="M79.17,49a.64.64,0,1,1-1.28,0,.64.64,0,1,1,1.28,0Z"/><path class="cls-2" d="M80.34,50.35a.64.64,0,1,1-1.27,0c0-.44.21-.66.64-.66S80.34,49.91,80.34,50.35Z"/><path class="cls-2" d="M81.19,51.85a.64.64,0,0,1-1.28,0c0-.44.21-.67.64-.67A.58.58,0,0,1,81.19,51.85Z"/><path class="cls-2" d="M81.82,53.46a.64.64,0,0,1-1.27,0c0-.45.21-.67.64-.67S81.82,53,81.82,53.46Z"/><path class="cls-2" d="M82.17,55.08a.64.64,0,1,1-1.28,0,.58.58,0,0,1,.64-.67C82,54.41,82.17,54.64,82.17,55.08Z"/><path class="cls-2" d="M82.34,56.83a.64.64,0,0,1-1.27,0c0-.45.21-.67.63-.67S82.34,56.38,82.34,56.83Z"/><path class="cls-2" d="M82.15,58.42a.64.64,0,0,1-1.28,0c0-.44.21-.67.64-.67A.58.58,0,0,1,82.15,58.42Z"/><path class="cls-2" d="M81.79,60a.64.64,0,0,1-1.27,0c0-.45.21-.67.63-.67S81.79,59.57,81.79,60Z"/><path class="cls-2" d="M81.1,61.58a.64.64,0,1,1-1.27,0q0-.66.63-.66C80.89,60.92,81.1,61.14,81.1,61.58Z"/><path class="cls-2" d="M80.23,63A.64.64,0,1,1,79,63c0-.44.21-.66.64-.66A.58.58,0,0,1,80.23,63Z"/><path class="cls-2" d="M79.15,64.3a.64.64,0,1,1-1.27,0q0-.66.63-.66C78.94,63.64,79.15,63.86,79.15,64.3Z"/><path class="cls-2" d="M77.82,65.42a.64.64,0,0,1-1.27,0c0-.44.21-.67.64-.67S77.82,65,77.82,65.42Z"/><path class="cls-2" d="M76.4,66.36a.64.64,0,0,1-1.28,0c0-.44.21-.66.64-.66A.58.58,0,0,1,76.4,66.36Z"/><path class="cls-2" d="M74.7,67.09a.64.64,0,0,1-1.28,0c0-.44.21-.67.64-.67A.58.58,0,0,1,74.7,67.09Z"/><path class="cls-2" d="M73.15,67.5a.64.64,0,0,1-1.28,0c0-.45.21-.67.64-.67S73.15,67.05,73.15,67.5Z"/><path class="cls-2" d="M71.54,67.7a.64.64,0,1,1-1.28,0c0-.44.21-.66.64-.66A.58.58,0,0,1,71.54,67.7Z"/><path class="cls-2" d="M69.82,67.63a.64.64,0,1,1-1.28,0,.58.58,0,0,1,.64-.66C69.61,67,69.82,67.19,69.82,67.63Z"/><path class="cls-2" d="M68.18,67.26a.64.64,0,0,1-1.28,0c0-.45.21-.67.64-.67S68.18,66.81,68.18,67.26Z"/><path class="cls-2" d="M66.56,66.6a.64.64,0,1,1-1.27,0c0-.44.21-.66.64-.66S66.56,66.16,66.56,66.6Z"/><path class="cls-2" d="M64.93,65.68a.64.64,0,1,1-1.27,0q0-.66.63-.66C64.72,65,64.93,65.24,64.93,65.68Z"/><path class="cls-2" d="M63.58,64.58a.64.64,0,1,1-1.28,0,.58.58,0,0,1,.64-.66C63.37,63.92,63.58,64.14,63.58,64.58Z"/><path class="cls-2" d="M62.31,63.24a.64.64,0,0,1-1.28,0,.58.58,0,0,1,.64-.66C62.1,62.58,62.31,62.8,62.31,63.24Z"/><path class="cls-2" d="M61.35,61.58a.64.64,0,1,1-1.27,0c0-.44.21-.66.64-.66S61.35,61.14,61.35,61.58Z"/><path class="cls-2" d="M60.69,60a.64.64,0,0,1-1.28,0,.58.58,0,0,1,.64-.66C60.48,59.33,60.69,59.55,60.69,60Z"/><path class="cls-2" d="M60.22,58.16a.64.64,0,0,1-1.28,0c0-.44.21-.66.64-.66A.58.58,0,0,1,60.22,58.16Z"/><path class="cls-2" d="M60.18,56.45a.64.64,0,1,1-1.27,0q0-.66.63-.66C60,55.79,60.18,56,60.18,56.45Z"/><path class="cls-2" d="M60.35,54.8a.64.64,0,1,1-1.27,0c0-.44.21-.66.64-.66S60.35,54.36,60.35,54.8Z"/><path class="cls-2" d="M60.73,53.05a.64.64,0,1,1-1.27,0q0-.66.63-.66C60.52,52.39,60.73,52.61,60.73,53.05Z"/><path class="cls-2" d="M61.45,51.37a.64.64,0,1,1-1.27,0q0-.66.63-.66C61.24,50.71,61.45,50.93,61.45,51.37Z"/><path class="cls-2" d="M62.43,49.93a.64.64,0,0,1-1.28,0,.58.58,0,0,1,.64-.66C62.22,49.27,62.43,49.49,62.43,49.93Z"/><path class="cls-2" d="M63.58,48.57a.64.64,0,0,1-1.28,0,.58.58,0,0,1,.64-.66C63.37,47.91,63.58,48.13,63.58,48.57Z"/><path class="cls-2" d="M65,47.44a.64.64,0,0,1-1.27,0c0-.44.21-.67.63-.67S65,47,65,47.44Z"/><path class="cls-3" d="M67.48,44.36a.64.64,0,1,1-1.28,0,.58.58,0,0,1,.64-.66C67.27,43.7,67.48,43.92,67.48,44.36Z"/><path class="cls-3" d="M69.2,43.94a.64.64,0,0,1-1.28,0,.58.58,0,0,1,.64-.66C69,43.28,69.2,43.5,69.2,43.94Z"/><path class="cls-3" d="M70.86,43.78a.64.64,0,1,1-1.27,0c0-.44.21-.66.64-.66S70.86,43.34,70.86,43.78Z"/><path class="cls-3" d="M72.57,43.88a.64.64,0,1,1-1.28,0,.58.58,0,0,1,.64-.66C72.36,43.22,72.57,43.44,72.57,43.88Z"/><path class="cls-3" d="M74.19,44.16a.64.64,0,0,1-1.28,0c0-.45.21-.67.64-.67S74.19,43.71,74.19,44.16Z"/><path class="cls-3" d="M75.8,44.71a.64.64,0,0,1-1.27,0c0-.44.21-.67.64-.67S75.8,44.27,75.8,44.71Z"/><path class="cls-3" d="M77.35,45.39a.64.64,0,1,1-1.27,0q0-.66.63-.66C77.14,44.73,77.35,45,77.35,45.39Z"/><path class="cls-3" d="M78.82,46.24a.64.64,0,0,1-1.27,0c0-.44.21-.66.64-.66S78.82,45.8,78.82,46.24Z"/><path class="cls-3" d="M80.14,47.35a.64.64,0,1,1-1.28,0c0-.44.21-.66.64-.66A.58.58,0,0,1,80.14,47.35Z"/><path class="cls-3" d="M81.31,48.66a.64.64,0,0,1-1.28,0c0-.44.21-.66.64-.66A.58.58,0,0,1,81.31,48.66Z"/><path class="cls-3" d="M82.27,50.11a.64.64,0,0,1-1.28,0c0-.45.22-.67.64-.67S82.27,49.66,82.27,50.11Z"/><path class="cls-3" d="M83,51.69a.64.64,0,0,1-1.28,0c0-.44.21-.66.64-.66A.58.58,0,0,1,83,51.69Z"/><path class="cls-3" d="M83.61,53.37a.64.64,0,1,1-1.27,0q0-.66.63-.66C83.4,52.71,83.61,52.93,83.61,53.37Z"/><path class="cls-3" d="M84,55.09a.64.64,0,1,1-1.27,0c0-.44.21-.66.64-.66S84,54.65,84,55.09Z"/><path class="cls-3" d="M84.13,56.88a.64.64,0,0,1-1.28,0c0-.44.21-.66.64-.66A.58.58,0,0,1,84.13,56.88Z"/><path class="cls-3" d="M84,58.67a.64.64,0,1,1-1.27,0c0-.44.21-.66.64-.66S84,58.23,84,58.67Z"/><path class="cls-3" d="M83.51,60.36a.64.64,0,0,1-1.28,0,.64.64,0,1,1,1.28,0Z"/><path class="cls-3" d="M82.89,62a.64.64,0,0,1-1.28,0,.58.58,0,0,1,.64-.66C82.68,61.35,82.89,61.57,82.89,62Z"/><path class="cls-3" d="M82.06,63.52a.64.64,0,1,1-1.27,0q0-.66.63-.66C81.85,62.86,82.06,63.08,82.06,63.52Z"/><path class="cls-3" d="M81,64.9a.64.64,0,0,1-1.28,0c0-.44.21-.67.64-.67A.58.58,0,0,1,81,64.9Z"/><path class="cls-3" d="M78.52,67.2a.64.64,0,1,1-1.28,0,.58.58,0,0,1,.64-.66C78.31,66.54,78.52,66.76,78.52,67.2Z"/><path class="cls-3" d="M77.09,68.11a.64.64,0,0,1-1.28,0c0-.45.22-.67.64-.67S77.09,67.66,77.09,68.11Z"/><path class="cls-3" d="M75.49,68.82a.64.64,0,0,1-1.27,0c0-.44.21-.66.64-.66S75.49,68.38,75.49,68.82Z"/><path class="cls-3" d="M73.77,69.3a.64.64,0,1,1-1.27,0c0-.44.21-.66.64-.66S73.77,68.86,73.77,69.3Z"/><path class="cls-3" d="M72,69.47a.64.64,0,1,1-1.27,0c0-.44.21-.66.64-.66S72,69,72,69.47Z"/><path class="cls-3" d="M70.26,69.5a.64.64,0,0,1-1.28,0c0-.45.22-.67.64-.67S70.26,69.05,70.26,69.5Z"/><path class="cls-3" d="M68.62,69.21a.64.64,0,1,1-1.27,0c0-.44.21-.66.64-.66S68.62,68.77,68.62,69.21Z"/><path class="cls-3" d="M65.41,68.06a.64.64,0,1,1-1.27,0c0-.44.21-.66.64-.66S65.41,67.62,65.41,68.06Z"/><path class="cls-3" d="M63.87,67.1a.64.64,0,0,1-1.28,0c0-.44.21-.66.64-.66A.58.58,0,0,1,63.87,67.1Z"/><path class="cls-3" d="M62.45,66a.64.64,0,1,1-1.28,0c0-.44.21-.66.64-.66A.58.58,0,0,1,62.45,66Z"/><path class="cls-3" d="M61.15,64.6a.64.64,0,0,1-1.27,0c0-.44.21-.67.64-.67S61.15,64.16,61.15,64.6Z"/><path class="cls-3" d="M60.08,63.07a.64.64,0,1,1-1.27,0c0-.44.21-.66.64-.66S60.08,62.63,60.08,63.07Z"/><path class="cls-3" d="M59.29,61.46a.64.64,0,0,1-1.27,0c0-.44.21-.67.64-.67S59.29,61,59.29,61.46Z"/><path class="cls-3" d="M58.81,59.81a.64.64,0,0,1-1.27,0c0-.44.21-.67.63-.67S58.81,59.37,58.81,59.81Z"/><path class="cls-3" d="M58.5,58.05a.64.64,0,1,1-1.27,0q0-.66.63-.66C58.29,57.39,58.5,57.61,58.5,58.05Z"/><path class="cls-3" d="M58.4,56.3a.64.64,0,0,1-1.28,0,.58.58,0,0,1,.64-.66C58.19,55.64,58.4,55.86,58.4,56.3Z"/><path class="cls-3" d="M58.55,54.53a.64.64,0,1,1-1.27,0c0-.44.21-.66.64-.66S58.55,54.09,58.55,54.53Z"/><path class="cls-3" d="M59.06,52.69a.64.64,0,0,1-1.28,0c0-.45.21-.67.64-.67S59.06,52.24,59.06,52.69Z"/><path class="cls-3" d="M59.68,51.05a.64.64,0,1,1-1.27,0q0-.66.63-.66C59.47,50.39,59.68,50.61,59.68,51.05Z"/><path class="cls-3" d="M60.56,49.59a.64.64,0,1,1-1.27,0c0-.44.21-.66.64-.66S60.56,49.15,60.56,49.59Z"/><path class="cls-3" d="M61.7,48.25a.64.64,0,1,1-1.27,0q0-.66.63-.66C61.49,47.59,61.7,47.81,61.7,48.25Z"/><path class="cls-3" d="M62.83,46.91a.64.64,0,0,1-1.27,0c0-.44.21-.66.64-.66S62.83,46.47,62.83,46.91Z"/><path class="cls-3" d="M64.18,45.88a.64.64,0,0,1-1.28,0c0-.44.21-.66.64-.66A.58.58,0,0,1,64.18,45.88Z"/><path class="cls-3" d="M65.79,45.05a.64.64,0,1,1-1.27,0c0-.44.21-.66.64-.66S65.79,44.61,65.79,45.05Z"/><path class="cls-3" d="M67,68.77a.64.64,0,1,1-1.27,0c0-.44.21-.66.64-.66S67,68.33,67,68.77Z"/><path class="cls-3" d="M79.86,66.13a.64.64,0,1,1-1.27,0q0-.66.63-.66C79.65,65.47,79.86,65.69,79.86,66.13Z"/><path class="cls-1" d="M27.46,50.65a.51.51,0,0,1-.57-.59.51.51,0,0,1,.57-.58.51.51,0,0,1,.58.58A.52.52,0,0,1,27.46,50.65Z"/><path class="cls-1" d="M27.46,52.09a.5.5,0,0,1-.57-.56c0-.4.19-.59.57-.59a.52.52,0,0,1,.58.59A.51.51,0,0,1,27.46,52.09Z"/><path class="cls-2" d="M26,50.65a.52.52,0,0,1-.58-.59.58.58,0,1,1,.58.59Z"/><path class="cls-1" d="M27.46,53.55a.51.51,0,0,1-.57-.58.51.51,0,0,1,.57-.59A.52.52,0,0,1,28,53,.51.51,0,0,1,27.46,53.55Z"/><path class="cls-2" d="M26,52.09a.5.5,0,0,1-.58-.56.51.51,0,0,1,.58-.59c.38,0,.57.19.57.59A.5.5,0,0,1,26,52.09Z"/><path class="cls-3" d="M24.51,50.65a.52.52,0,0,1-.59-.59.52.52,0,0,1,.59-.58.51.51,0,0,1,.58.58A.52.52,0,0,1,24.51,50.65Z"/><path class="cls-1" d="M27.46,55a.58.58,0,1,1,.58-.58A.51.51,0,0,1,27.46,55Z"/><path class="cls-2" d="M26,53.55a.51.51,0,0,1-.58-.58.58.58,0,1,1,1.15,0A.51.51,0,0,1,26,53.55Z"/><path class="cls-3" d="M24.51,52.09c-.39,0-.59-.19-.59-.56a.52.52,0,0,1,.59-.59.51.51,0,0,1,.58.59A.5.5,0,0,1,24.51,52.09Z"/><path class="cls-1" d="M27.46,56.45a.51.51,0,0,1-.57-.58.51.51,0,0,1,.57-.59.52.52,0,0,1,.58.59A.51.51,0,0,1,27.46,56.45Z"/><path class="cls-2" d="M26,55a.58.58,0,1,1,0-1.15A.58.58,0,0,1,26,55Z"/><path class="cls-3" d="M24.51,53.55a.52.52,0,0,1-.59-.58.52.52,0,0,1,.59-.59.52.52,0,0,1,.58.59A.51.51,0,0,1,24.51,53.55Z"/><path class="cls-1" d="M27.46,57.9a.51.51,0,0,1-.57-.59.51.51,0,0,1,.57-.58.51.51,0,0,1,.58.58A.52.52,0,0,1,27.46,57.9Z"/><path class="cls-2" d="M26,56.45a.51.51,0,0,1-.58-.58.58.58,0,1,1,1.15,0A.51.51,0,0,1,26,56.45Z"/><path class="cls-3" d="M24.51,55a.58.58,0,1,1,0-1.15.58.58,0,1,1,0,1.15Z"/><path class="cls-1" d="M27.46,59.36a.51.51,0,0,1-.57-.59.51.51,0,0,1,.57-.58.51.51,0,0,1,.58.58A.52.52,0,0,1,27.46,59.36Z"/><path class="cls-2" d="M26,57.9a.52.52,0,0,1-.58-.59.58.58,0,1,1,.58.59Z"/><path class="cls-3" d="M24.51,56.45a.52.52,0,0,1-.59-.58.52.52,0,0,1,.59-.59.52.52,0,0,1,.58.59A.51.51,0,0,1,24.51,56.45Z"/><path class="cls-1" d="M27.46,60.8a.51.51,0,0,1-.57-.59.51.51,0,0,1,.57-.58.51.51,0,0,1,.58.58A.52.52,0,0,1,27.46,60.8Z"/><path class="cls-2" d="M26,59.36a.52.52,0,0,1-.58-.59.58.58,0,1,1,.58.59Z"/><path class="cls-3" d="M24.51,57.9a.52.52,0,0,1-.59-.59.52.52,0,0,1,.59-.58.51.51,0,0,1,.58.58A.52.52,0,0,1,24.51,57.9Z"/><path class="cls-1" d="M27.46,62.24a.5.5,0,0,1-.57-.56.51.51,0,0,1,.57-.59.52.52,0,0,1,.58.59A.51.51,0,0,1,27.46,62.24Z"/><path class="cls-2" d="M26,60.8a.52.52,0,0,1-.58-.59.58.58,0,1,1,.58.59Z"/><path class="cls-3" d="M24.51,59.36a.52.52,0,0,1-.59-.59.52.52,0,0,1,.59-.58.51.51,0,0,1,.58.58A.52.52,0,0,1,24.51,59.36Z"/><path class="cls-1" d="M27.46,63.7a.51.51,0,0,1-.57-.58.51.51,0,0,1,.57-.59.52.52,0,0,1,.58.59A.51.51,0,0,1,27.46,63.7Z"/><path class="cls-2" d="M26,62.24a.5.5,0,0,1-.58-.56.58.58,0,1,1,1.15,0A.5.5,0,0,1,26,62.24Z"/><path class="cls-3" d="M24.51,60.8a.52.52,0,0,1-.59-.59.52.52,0,0,1,.59-.58.51.51,0,0,1,.58.58A.52.52,0,0,1,24.51,60.8Z"/><path class="cls-1" d="M27.46,65.14a.58.58,0,1,1,.58-.58A.51.51,0,0,1,27.46,65.14Z"/><path class="cls-2" d="M26,63.7a.51.51,0,0,1-.58-.58.58.58,0,1,1,1.15,0A.51.51,0,0,1,26,63.7Z"/><path class="cls-3" d="M24.51,62.24c-.39,0-.59-.19-.59-.56a.52.52,0,0,1,.59-.59.52.52,0,0,1,.58.59A.5.5,0,0,1,24.51,62.24Z"/><path class="cls-2" d="M26,65.14A.58.58,0,1,1,26,64a.58.58,0,0,1,0,1.15Z"/><path class="cls-3" d="M24.51,63.7a.52.52,0,0,1-.59-.58.52.52,0,0,1,.59-.59.52.52,0,0,1,.58.59A.51.51,0,0,1,24.51,63.7Z"/><path class="cls-3" d="M24.51,65.14a.58.58,0,1,1,0-1.15.58.58,0,1,1,0,1.15Z"/><path class="cls-1" d="M27.46,46.3a.59.59,0,0,1,0-1.17.59.59,0,0,1,0,1.17Z"/><path class="cls-1" d="M27.46,47.74a.5.5,0,0,1-.57-.56.51.51,0,0,1,.57-.59.52.52,0,0,1,.58.59A.51.51,0,0,1,27.46,47.74Z"/><path class="cls-2" d="M26,46.3a.59.59,0,1,1,.57-.58A.51.51,0,0,1,26,46.3Z"/><path class="cls-1" d="M27.46,49.2a.51.51,0,0,1-.57-.58.51.51,0,0,1,.57-.59.52.52,0,0,1,.58.59A.51.51,0,0,1,27.46,49.2Z"/><path class="cls-2" d="M26,47.74a.5.5,0,0,1-.58-.56.58.58,0,1,1,1.15,0A.5.5,0,0,1,26,47.74Z"/><path class="cls-3" d="M24.51,46.3a.59.59,0,1,1,.58-.58A.51.51,0,0,1,24.51,46.3Z"/><path class="cls-2" d="M26,49.2a.51.51,0,0,1-.58-.58.58.58,0,1,1,1.15,0A.51.51,0,0,1,26,49.2Z"/><path class="cls-3" d="M24.51,47.74c-.39,0-.59-.19-.59-.56a.52.52,0,0,1,.59-.59.52.52,0,0,1,.58.59A.5.5,0,0,1,24.51,47.74Z"/><path class="cls-3" d="M24.51,49.2a.52.52,0,0,1-.59-.58.52.52,0,0,1,.59-.59.52.52,0,0,1,.58.59A.51.51,0,0,1,24.51,49.2Z"/><path class="cls-3" d="M99,62.26a.54.54,0,1,1-.54-.55A.48.48,0,0,1,99,62.26Z"/><path class="cls-3" d="M99,64.53q0,.57-.54.57t-.54-.57a.54.54,0,1,1,1.08,0Z"/><path class="cls-1" d="M105.78,50.65c-.38,0-.56-.2-.56-.59s.18-.58.56-.58a.51.51,0,0,1,.58.58A.52.52,0,0,1,105.78,50.65Z"/><path class="cls-1" d="M105.78,52.09a.49.49,0,0,1-.56-.56c0-.4.18-.59.56-.59a.51.51,0,0,1,.58.59A.5.5,0,0,1,105.78,52.09Z"/><path class="cls-2" d="M104.32,50.65a.52.52,0,0,1-.59-.59.52.52,0,0,1,.59-.58.5.5,0,0,1,.56.58C104.88,50.45,104.69,50.65,104.32,50.65Z"/><path class="cls-1" d="M105.78,53.55c-.38,0-.56-.19-.56-.58s.18-.59.56-.59a.52.52,0,0,1,.58.59A.51.51,0,0,1,105.78,53.55Z"/><path class="cls-2" d="M104.32,52.09c-.39,0-.59-.19-.59-.56a.52.52,0,0,1,.59-.59c.37,0,.56.19.56.59A.5.5,0,0,1,104.32,52.09Z"/><path class="cls-3" d="M102.83,50.65a.52.52,0,0,1-.58-.59.51.51,0,0,1,.58-.58.52.52,0,0,1,.59.58A.52.52,0,0,1,102.83,50.65Z"/><path class="cls-1" d="M105.78,55c-.38,0-.56-.19-.56-.58a.5.5,0,0,1,.56-.57.58.58,0,1,1,0,1.15Z"/><path class="cls-2" d="M104.32,53.55a.52.52,0,0,1-.59-.58.52.52,0,0,1,.59-.59c.37,0,.56.2.56.59A.5.5,0,0,1,104.32,53.55Z"/><path class="cls-3" d="M102.83,52.09a.5.5,0,0,1-.58-.56.51.51,0,0,1,.58-.59.52.52,0,0,1,.59.59C103.42,51.9,103.22,52.09,102.83,52.09Z"/><path class="cls-1" d="M105.78,56.45c-.38,0-.56-.19-.56-.58s.18-.59.56-.59a.52.52,0,0,1,.58.59A.51.51,0,0,1,105.78,56.45Z"/><path class="cls-2" d="M104.32,55a.58.58,0,1,1,0-1.15.58.58,0,0,1,0,1.15Z"/><path class="cls-3" d="M102.83,53.55a.51.51,0,0,1-.58-.58.52.52,0,0,1,.58-.59.52.52,0,0,1,.59.59A.52.52,0,0,1,102.83,53.55Z"/><path class="cls-1" d="M105.78,57.9c-.38,0-.56-.2-.56-.59s.18-.58.56-.58a.51.51,0,0,1,.58.58A.52.52,0,0,1,105.78,57.9Z"/><path class="cls-2" d="M104.32,56.45a.52.52,0,0,1-.59-.58.52.52,0,0,1,.59-.59c.37,0,.56.2.56.59A.5.5,0,0,1,104.32,56.45Z"/><path class="cls-3" d="M102.83,55a.58.58,0,1,1,.59-.58A.52.52,0,0,1,102.83,55Z"/><path class="cls-1" d="M105.78,59.36c-.38,0-.56-.2-.56-.59s.18-.58.56-.58a.51.51,0,0,1,.58.58A.52.52,0,0,1,105.78,59.36Z"/><path class="cls-2" d="M104.32,57.9a.52.52,0,0,1-.59-.59.52.52,0,0,1,.59-.58.5.5,0,0,1,.56.58C104.88,57.7,104.69,57.9,104.32,57.9Z"/><path class="cls-3" d="M102.83,56.45a.51.51,0,0,1-.58-.58.52.52,0,0,1,.58-.59.52.52,0,0,1,.59.59A.52.52,0,0,1,102.83,56.45Z"/><path class="cls-1" d="M105.78,60.8c-.38,0-.56-.2-.56-.59s.18-.58.56-.58a.51.51,0,0,1,.58.58A.52.52,0,0,1,105.78,60.8Z"/><path class="cls-2" d="M104.32,59.36a.52.52,0,0,1-.59-.59.52.52,0,0,1,.59-.58.5.5,0,0,1,.56.58C104.88,59.16,104.69,59.36,104.32,59.36Z"/><path class="cls-3" d="M102.83,57.9a.52.52,0,0,1-.58-.59.51.51,0,0,1,.58-.58.52.52,0,0,1,.59.58A.52.52,0,0,1,102.83,57.9Z"/><path class="cls-1" d="M105.78,62.24a.49.49,0,0,1-.56-.56c0-.39.18-.59.56-.59a.52.52,0,0,1,.58.59A.5.5,0,0,1,105.78,62.24Z"/><path class="cls-2" d="M104.32,60.8a.52.52,0,0,1-.59-.59.52.52,0,0,1,.59-.58.5.5,0,0,1,.56.58C104.88,60.6,104.69,60.8,104.32,60.8Z"/><path class="cls-3" d="M102.83,59.36a.52.52,0,0,1-.58-.59.51.51,0,0,1,.58-.58.52.52,0,0,1,.59.58A.52.52,0,0,1,102.83,59.36Z"/><path class="cls-1" d="M105.78,63.7c-.38,0-.56-.19-.56-.58s.18-.59.56-.59a.52.52,0,0,1,.58.59A.51.51,0,0,1,105.78,63.7Z"/><path class="cls-2" d="M104.32,62.24c-.39,0-.59-.19-.59-.56a.52.52,0,0,1,.59-.59c.37,0,.56.2.56.59A.5.5,0,0,1,104.32,62.24Z"/><path class="cls-3" d="M102.83,60.8a.52.52,0,0,1-.58-.59.51.51,0,0,1,.58-.58.52.52,0,0,1,.59.58A.52.52,0,0,1,102.83,60.8Z"/><path class="cls-2" d="M104.32,63.7a.52.52,0,0,1-.59-.58.52.52,0,0,1,.59-.59c.37,0,.56.2.56.59A.5.5,0,0,1,104.32,63.7Z"/><path class="cls-3" d="M102.83,62.24a.5.5,0,0,1-.58-.56.52.52,0,0,1,.58-.59.52.52,0,0,1,.59.59C103.42,62.05,103.22,62.24,102.83,62.24Z"/><path class="cls-3" d="M102.83,63.7a.51.51,0,0,1-.58-.58.52.52,0,0,1,.58-.59.52.52,0,0,1,.59.59A.52.52,0,0,1,102.83,63.7Z"/><path class="cls-1" d="M105.78,65.14c-.38,0-.56-.19-.56-.58a.5.5,0,0,1,.56-.57.58.58,0,1,1,0,1.15Z"/><path class="cls-2" d="M104.32,65.14a.58.58,0,1,1,0-1.15.58.58,0,0,1,0,1.15Z"/><path class="cls-3" d="M102.83,65.14a.58.58,0,1,1,.59-.58A.52.52,0,0,1,102.83,65.14Z"/><path class="cls-1" d="M105.78,46.3c-.38,0-.56-.2-.56-.58s.18-.59.56-.59a.59.59,0,0,1,0,1.17Z"/><path class="cls-1" d="M105.78,47.74a.49.49,0,0,1-.56-.56c0-.39.18-.59.56-.59a.52.52,0,0,1,.58.59A.5.5,0,0,1,105.78,47.74Z"/><path class="cls-2" d="M104.32,46.3a.59.59,0,1,1,0-1.17c.37,0,.56.2.56.59A.51.51,0,0,1,104.32,46.3Z"/><path class="cls-2" d="M104.32,47.74c-.39,0-.59-.19-.59-.56a.52.52,0,0,1,.59-.59c.37,0,.56.2.56.59A.5.5,0,0,1,104.32,47.74Z"/><path class="cls-3" d="M102.83,46.3a.59.59,0,0,1,0-1.17.59.59,0,1,1,0,1.17Z"/><path class="cls-3" d="M102.83,47.74a.5.5,0,0,1-.58-.56.52.52,0,0,1,.58-.59.52.52,0,0,1,.59.59C103.42,47.55,103.22,47.74,102.83,47.74Z"/><path class="cls-3" d="M99.4,50a.54.54,0,1,1-1.08,0c0-.38.18-.56.54-.56S99.4,49.66,99.4,50Z"/><path class="cls-3" d="M98,50a.48.48,0,0,1-.54.54.48.48,0,0,1-.55-.54.49.49,0,0,1,.55-.56C97.79,49.48,98,49.66,98,50Z"/><path class="cls-3" d="M96.53,50a.54.54,0,0,1-1.08,0c0-.38.18-.56.54-.56S96.53,49.66,96.53,50Z"/><path class="cls-3" d="M95.06,50a.49.49,0,0,1-.56.54A.48.48,0,0,1,94,50c0-.38.18-.56.54-.56A.49.49,0,0,1,95.06,50Z"/><path class="cls-3" d="M93.57,50a.49.49,0,0,1-.56.54.48.48,0,0,1-.54-.54c0-.38.18-.56.54-.56A.49.49,0,0,1,93.57,50Z"/><path class="cls-3" d="M92.05,50c0,.36-.18.54-.56.54A.48.48,0,0,1,91,50c0-.38.18-.56.54-.56A.49.49,0,0,1,92.05,50Z"/><path class="cls-3" d="M90.56,50a.48.48,0,0,1-.54.54.49.49,0,0,1-.56-.54.49.49,0,0,1,.56-.56C90.38,49.48,90.56,49.66,90.56,50Z"/><path class="cls-3" d="M89.07,50a.48.48,0,0,1-.54.54c-.38,0-.56-.18-.56-.54a.49.49,0,0,1,.56-.56C88.89,49.48,89.07,49.66,89.07,50Z"/><path class="cls-3" d="M87.63,50a.54.54,0,1,1-1.08,0c0-.38.18-.56.54-.56S87.63,49.66,87.63,50Z"/><path class="cls-3" d="M97.87,52.36a.48.48,0,0,1-.55.54.48.48,0,0,1-.54-.54.49.49,0,0,1,.54-.56A.49.49,0,0,1,97.87,52.36Z"/><path class="cls-3" d="M96.34,52.33a.54.54,0,0,1-1.08,0q0-.57.54-.57T96.34,52.33Z"/><path class="cls-3" d="M94.82,52.33a.49.49,0,0,1-.56.54.48.48,0,0,1-.54-.54q0-.57.54-.57A.5.5,0,0,1,94.82,52.33Z"/><path class="cls-3" d="M93.38,52.36a.49.49,0,0,1-.56.54.48.48,0,0,1-.54-.54.49.49,0,0,1,.54-.56A.5.5,0,0,1,93.38,52.36Z"/><path class="cls-3" d="M91.94,52.36c0,.36-.18.54-.56.54a.48.48,0,0,1-.54-.54.49.49,0,0,1,.54-.56A.49.49,0,0,1,91.94,52.36Z"/><path class="cls-3" d="M90.51,52.36a.48.48,0,0,1-.54.54q-.57,0-.57-.54A.5.5,0,0,1,90,51.8.49.49,0,0,1,90.51,52.36Z"/><path class="cls-3" d="M89.07,52.36a.48.48,0,0,1-.54.54c-.38,0-.56-.18-.56-.54a.49.49,0,0,1,.56-.56A.49.49,0,0,1,89.07,52.36Z"/><path class="cls-3" d="M87.63,52.36a.54.54,0,1,1-1.08,0,.54.54,0,1,1,1.08,0Z"/><path class="cls-1" d="M76.9,51.47a.57.57,0,1,1-.57-.57A.5.5,0,0,1,76.9,51.47Z"/><path class="cls-1" d="M75.87,50.44a.57.57,0,1,1-.57-.57A.5.5,0,0,1,75.87,50.44Z"/><path class="cls-1" d="M77.78,52.59a.57.57,0,1,1-.57-.57A.5.5,0,0,1,77.78,52.59Z"/><path class="cls-1" d="M74.65,49.7a.57.57,0,1,1-.57-.57A.5.5,0,0,1,74.65,49.7Z"/><path class="cls-1" d="M78.41,53.87a.49.49,0,0,1-.56.56.57.57,0,1,1,.56-.56Z"/><path class="cls-1" d="M73.3,49.15a.57.57,0,1,1-.57-.57A.5.5,0,0,1,73.3,49.15Z"/><path class="cls-1" d="M78.87,55.28a.57.57,0,1,1-.57-.57A.5.5,0,0,1,78.87,55.28Z"/><path class="cls-1" d="M71.91,48.84a.57.57,0,1,1-.57-.57A.5.5,0,0,1,71.91,48.84Z"/><path class="cls-1" d="M79,56.71a.49.49,0,0,1-.56.56.5.5,0,0,1-.57-.56.5.5,0,0,1,.57-.57A.5.5,0,0,1,79,56.71Z"/><path class="cls-1" d="M70.46,48.85a.57.57,0,1,1-.57-.57A.5.5,0,0,1,70.46,48.85Z"/><path class="cls-1" d="M78.79,58.15a.5.5,0,0,1-.56.57.57.57,0,0,1,0-1.14A.5.5,0,0,1,78.79,58.15Z"/><path class="cls-1" d="M69,49.09a.5.5,0,0,1-.55.57.5.5,0,0,1-.57-.57.5.5,0,0,1,.57-.56A.49.49,0,0,1,69,49.09Z"/><path class="cls-1" d="M78.35,59.49a.57.57,0,1,1-.57-.57A.5.5,0,0,1,78.35,59.49Z"/><path class="cls-1" d="M67.72,49.62a.57.57,0,1,1-.57-.57A.5.5,0,0,1,67.72,49.62Z"/><path class="cls-1" d="M77.68,60.78a.5.5,0,0,1-.57.56.57.57,0,0,1,0-1.13A.5.5,0,0,1,77.68,60.78Z"/><path class="cls-1" d="M66.5,50.38a.57.57,0,0,1-1.13,0,.57.57,0,1,1,1.13,0Z"/><path class="cls-1" d="M76.78,61.93a.5.5,0,0,1-.57.57.57.57,0,0,1,0-1.14A.51.51,0,0,1,76.78,61.93Z"/><path class="cls-1" d="M65.43,51.34a.5.5,0,0,1-.57.57.5.5,0,0,1-.55-.57.49.49,0,0,1,.55-.56A.5.5,0,0,1,65.43,51.34Z"/><path class="cls-1" d="M75.75,62.9a.57.57,0,1,1-.57-.57A.5.5,0,0,1,75.75,62.9Z"/><path class="cls-1" d="M64.59,52.5a.57.57,0,1,1-.57-.57A.5.5,0,0,1,64.59,52.5Z"/><path class="cls-1" d="M74.51,63.59a.5.5,0,0,1-.55.57A.57.57,0,0,1,74,63,.5.5,0,0,1,74.51,63.59Z"/><path class="cls-1" d="M63.94,53.82a.57.57,0,1,1-.57-.56A.5.5,0,0,1,63.94,53.82Z"/><path class="cls-1" d="M73.28,64.1a.5.5,0,0,1-.57.57.57.57,0,0,1,0-1.14A.5.5,0,0,1,73.28,64.1Z"/><path class="cls-1" d="M63.54,55.28a.57.57,0,1,1-.57-.57A.5.5,0,0,1,63.54,55.28Z"/><path class="cls-1" d="M72,64.42a.5.5,0,0,1-.57.56.57.57,0,0,1,0-1.13A.5.5,0,0,1,72,64.42Z"/><path class="cls-1" d="M63.41,56.66a.5.5,0,0,1-.57.57.57.57,0,1,1,.57-.57Z"/><path class="cls-1" d="M70.54,64.42a.57.57,0,1,1-.57-.57A.5.5,0,0,1,70.54,64.42Z"/><path class="cls-1" d="M63.52,58.09a.57.57,0,0,1-1.14,0,.57.57,0,0,1,1.14,0Z"/><path class="cls-1" d="M69.09,64.1a.57.57,0,1,1-.57-.56A.5.5,0,0,1,69.09,64.1Z"/><path class="cls-1" d="M63.92,59.46a.5.5,0,0,1-.56.57.57.57,0,0,1,0-1.14A.5.5,0,0,1,63.92,59.46Z"/><path class="cls-1" d="M67.72,63.6a.57.57,0,1,1-1.14,0,.57.57,0,0,1,1.14,0Z"/><path class="cls-1" d="M64.6,60.87A.57.57,0,1,1,64,60.3.5.5,0,0,1,64.6,60.87Z"/><path class="cls-1" d="M66.52,62.88a.57.57,0,0,1-1.14,0c0-.37.19-.55.57-.55S66.52,62.51,66.52,62.88Z"/><path class="cls-1" d="M65.43,61.93a.57.57,0,1,1-1.14,0,.57.57,0,0,1,1.14,0Z"/><path class="cls-3" d="M84.83,64.51a.54.54,0,0,1,1.08,0q0,.57-.54.57T84.83,64.51Z"/><path class="cls-3" d="M86.26,64.51a.48.48,0,0,1,.55-.54.48.48,0,0,1,.54.54q0,.57-.54.57A.5.5,0,0,1,86.26,64.51Z"/><path class="cls-3" d="M87.7,64.51a.54.54,0,0,1,1.08,0q0,.57-.54.57T87.7,64.51Z"/><path class="cls-3" d="M89.12,64.51c0-.36.18-.54.56-.54a.48.48,0,0,1,.54.54q0,.57-.54.57A.5.5,0,0,1,89.12,64.51Z"/><path class="cls-3" d="M90.61,64.51a.49.49,0,0,1,.56-.54.48.48,0,0,1,.54.54q0,.57-.54.57A.5.5,0,0,1,90.61,64.51Z"/><path class="cls-3" d="M92.12,64.51q0-.54.57-.54a.48.48,0,0,1,.54.54q0,.57-.54.57A.5.5,0,0,1,92.12,64.51Z"/><path class="cls-3" d="M93.56,64.51A.48.48,0,0,1,94.1,64q.57,0,.57.54a.5.5,0,0,1-.57.57Q93.56,65.08,93.56,64.51Z"/><path class="cls-3" d="M95,64.51a.48.48,0,0,1,.54-.54.49.49,0,0,1,.56.54.5.5,0,0,1-.56.57Q95,65.08,95,64.51Z"/><path class="cls-3" d="M96.43,64.51a.55.55,0,0,1,1.09,0q0,.57-.54.57C96.61,65.08,96.43,64.89,96.43,64.51Z"/><path class="cls-3" d="M86.53,62.24a.54.54,0,1,1,.54.56A.48.48,0,0,1,86.53,62.24Z"/><path class="cls-3" d="M88,62.24a.54.54,0,1,1,.54.56A.48.48,0,0,1,88,62.24Z"/><path class="cls-3" d="M89.38,62.24a.5.5,0,0,1,.57-.55.56.56,0,0,1,0,1.11A.5.5,0,0,1,89.38,62.24Z"/><path class="cls-3" d="M90.82,62.24a.49.49,0,0,1,.56-.55.56.56,0,0,1,0,1.11A.5.5,0,0,1,90.82,62.24Z"/><path class="cls-3" d="M92.2,62.24a.49.49,0,0,1,.56-.55.56.56,0,0,1,0,1.11A.49.49,0,0,1,92.2,62.24Z"/><path class="cls-3" d="M93.56,62.24a.48.48,0,0,1,.54-.55.56.56,0,1,1,0,1.11A.49.49,0,0,1,93.56,62.24Z"/><path class="cls-3" d="M95,62.24a.48.48,0,0,1,.54-.55.56.56,0,1,1,0,1.11A.49.49,0,0,1,95,62.24Z"/><path class="cls-3" d="M96.43,62.24a.55.55,0,1,1,.55.56A.49.49,0,0,1,96.43,62.24Z"/><path class="cls-3" d="M100.34,62.26a.48.48,0,0,1-.55.54.55.55,0,0,1,0-1.09A.49.49,0,0,1,100.34,62.26Z"/><path class="cls-3" d="M100.34,64.56a.49.49,0,0,1-.55.56.49.49,0,0,1-.54-.56.48.48,0,0,1,.54-.54A.48.48,0,0,1,100.34,64.56Z"/><path class="cls-3" d="M91.81,51.5c-.21,0-.31-.11-.31-.33a.28.28,0,0,1,.31-.32.29.29,0,0,1,.32.32A.29.29,0,0,1,91.81,51.5Z"/><path class="cls-3" d="M90.58,51.5c-.21,0-.31-.11-.31-.33a.28.28,0,0,1,.31-.32.33.33,0,1,1,0,.65Z"/><path class="cls-3" d="M89.37,51.5c-.21,0-.31-.11-.31-.33a.31.31,0,1,1,.62,0C89.68,51.39,89.58,51.5,89.37,51.5Z"/><path class="cls-3" d="M88.14,51.5a.29.29,0,0,1-.32-.33.29.29,0,0,1,.32-.32.28.28,0,0,1,.31.32C88.45,51.39,88.35,51.5,88.14,51.5Z"/><path class="cls-3" d="M86.91,51.5a.29.29,0,0,1-.32-.33.29.29,0,0,1,.32-.32.29.29,0,0,1,.33.32A.29.29,0,0,1,86.91,51.5Z"/><path class="cls-3" d="M97.91,51.47c-.21,0-.31-.11-.31-.33a.28.28,0,0,1,.31-.32.29.29,0,0,1,.32.32A.29.29,0,0,1,97.91,51.47Z"/><path class="cls-3" d="M96.68,51.47c-.21,0-.31-.11-.31-.33a.28.28,0,0,1,.31-.32.29.29,0,0,1,.33.32A.29.29,0,0,1,96.68,51.47Z"/><path class="cls-3" d="M95.47,51.47c-.21,0-.31-.11-.31-.33a.31.31,0,1,1,.62,0C95.78,51.36,95.68,51.47,95.47,51.47Z"/><path class="cls-3" d="M94.24,51.47a.29.29,0,0,1-.32-.33.29.29,0,0,1,.32-.32.28.28,0,0,1,.31.32C94.55,51.36,94.45,51.47,94.24,51.47Z"/><path class="cls-3" d="M93,51.47c-.21,0-.31-.11-.31-.33a.28.28,0,0,1,.31-.32c.23,0,.34.11.34.32S93.23,51.47,93,51.47Z"/><path class="cls-3" d="M28.73,57.64a.3.3,0,0,1-.34-.34.34.34,0,1,1,.68,0A.3.3,0,0,1,28.73,57.64Z"/><path class="cls-3" d="M37,50.65c-.37,0-.56-.2-.56-.59a.5.5,0,0,1,.56-.58.52.52,0,0,1,.59.58A.52.52,0,0,1,37,50.65Z"/><path class="cls-3" d="M35.58,50.65a.52.52,0,0,1-.58-.59.51.51,0,0,1,.58-.58c.38,0,.56.19.56.58S36,50.65,35.58,50.65Z"/><path class="cls-3" d="M34.1,50.65a.52.52,0,0,1-.59-.59.52.52,0,0,1,.59-.58.51.51,0,0,1,.58.58A.52.52,0,0,1,34.1,50.65Z"/><path class="cls-3" d="M35.92,52.09c-.38,0-.56-.19-.56-.58s.18-.58.56-.58a.58.58,0,1,1,0,1.16Z"/><path class="cls-3" d="M34.46,52.09a.58.58,0,1,1,0-1.16.58.58,0,0,1,0,1.16Z"/><path class="cls-3" d="M33,52.09a.58.58,0,1,1,.59-.58A.51.51,0,0,1,33,52.09Z"/><path class="cls-3" d="M34.83,53.56a.5.5,0,0,1-.56-.58c0-.39.19-.59.56-.59a.52.52,0,0,1,.59.59A.52.52,0,0,1,34.83,53.56Z"/><path class="cls-3" d="M33.37,53.56a.52.52,0,0,1-.59-.58.52.52,0,0,1,.59-.59c.38,0,.56.2.56.59S33.75,53.56,33.37,53.56Z"/><path class="cls-3" d="M31.89,53.56A.52.52,0,0,1,31.3,53a.52.52,0,0,1,.59-.59.52.52,0,0,1,.58.59A.51.51,0,0,1,31.89,53.56Z"/><path class="cls-3" d="M33.64,55c-.38,0-.56-.2-.56-.59s.18-.58.56-.58a.51.51,0,0,1,.58.58A.52.52,0,0,1,33.64,55Z"/><path class="cls-3" d="M32.18,55a.52.52,0,0,1-.59-.59.52.52,0,0,1,.59-.58.5.5,0,0,1,.56.58C32.74,54.83,32.55,55,32.18,55Z"/><path class="cls-3" d="M30.69,55a.52.52,0,0,1-.58-.59.59.59,0,0,1,1.17,0A.52.52,0,0,1,30.69,55Z"/><path class="cls-3" d="M32.58,56.45c-.37,0-.56-.2-.56-.59a.5.5,0,0,1,.56-.58.52.52,0,0,1,.59.58A.52.52,0,0,1,32.58,56.45Z"/><path class="cls-3" d="M31.12,56.45a.52.52,0,0,1-.58-.59.51.51,0,0,1,.58-.58c.38,0,.56.19.56.58S31.5,56.45,31.12,56.45Z"/><path class="cls-3" d="M29.64,56.45a.52.52,0,0,1-.59-.59.52.52,0,0,1,.59-.58.51.51,0,0,1,.58.58A.52.52,0,0,1,29.64,56.45Z"/><path class="cls-3" d="M31.48,57.89c-.37,0-.56-.2-.56-.59a.5.5,0,0,1,.56-.58.52.52,0,0,1,.59.58A.52.52,0,0,1,31.48,57.89Z"/><path class="cls-3" d="M30,57.89a.52.52,0,0,1-.58-.59.51.51,0,0,1,.58-.58c.38,0,.56.19.56.58S30.4,57.89,30,57.89Z"/><path class="cls-3" d="M32.62,59.34a.5.5,0,0,1-.56-.58c0-.39.19-.59.56-.59a.52.52,0,0,1,.59.59A.52.52,0,0,1,32.62,59.34Z"/><path class="cls-3" d="M31.16,59.34a.51.51,0,0,1-.58-.58.52.52,0,0,1,.58-.59c.38,0,.56.2.56.59S31.54,59.34,31.16,59.34Z"/><path class="cls-3" d="M29.68,59.34a.52.52,0,0,1-.59-.58.52.52,0,0,1,.59-.59.52.52,0,0,1,.58.59A.51.51,0,0,1,29.68,59.34Z"/><path class="cls-3" d="M33.7,60.8a.51.51,0,0,1-.57-.58.58.58,0,1,1,.57.58Z"/><path class="cls-3" d="M32.23,60.8a.51.51,0,0,1-.58-.58.58.58,0,1,1,1.15,0A.51.51,0,0,1,32.23,60.8Z"/><path class="cls-3" d="M30.75,60.8a.51.51,0,0,1-.58-.58.52.52,0,0,1,.58-.59.52.52,0,0,1,.59.59A.52.52,0,0,1,30.75,60.8Z"/><path class="cls-3" d="M34.83,62.25a.51.51,0,0,1-.57-.59.58.58,0,1,1,1.15,0A.52.52,0,0,1,34.83,62.25Z"/><path class="cls-3" d="M33.36,62.25a.52.52,0,0,1-.58-.59.58.58,0,1,1,.58.59Z"/><path class="cls-3" d="M31.88,62.25a.52.52,0,0,1-.58-.59.51.51,0,0,1,.58-.58.52.52,0,0,1,.59.58A.52.52,0,0,1,31.88,62.25Z"/><path class="cls-3" d="M36,63.69a.51.51,0,0,1-.57-.59.58.58,0,1,1,1.15,0A.52.52,0,0,1,36,63.69Z"/><path class="cls-3" d="M34.5,63.69a.52.52,0,0,1-.59-.59.52.52,0,0,1,.59-.58.5.5,0,0,1,.56.58C35.06,63.49,34.87,63.69,34.5,63.69Z"/><path class="cls-3" d="M33,63.69a.52.52,0,0,1-.58-.59.51.51,0,0,1,.58-.58.52.52,0,0,1,.59.58A.52.52,0,0,1,33,63.69Z"/><path class="cls-3" d="M37.11,65.16c-.38,0-.56-.2-.56-.59s.18-.58.56-.58a.51.51,0,0,1,.58.58A.52.52,0,0,1,37.11,65.16Z"/><path class="cls-3" d="M35.65,65.16a.52.52,0,0,1-.59-.59.52.52,0,0,1,.59-.58.5.5,0,0,1,.56.58C36.21,65,36,65.16,35.65,65.16Z"/><path class="cls-3" d="M34.16,65.16a.52.52,0,0,1-.58-.59.51.51,0,0,1,.58-.58.52.52,0,0,1,.59.58A.52.52,0,0,1,34.16,65.16Z"/><path class="cls-3" d="M95.25,55.61c-.38,0-.56-.19-.56-.58s.18-.59.56-.59a.52.52,0,0,1,.58.59A.51.51,0,0,1,95.25,55.61Z"/><path class="cls-3" d="M93.79,55.61A.52.52,0,0,1,93.2,55a.52.52,0,0,1,.59-.59c.37,0,.56.2.56.59A.5.5,0,0,1,93.79,55.61Z"/><path class="cls-3" d="M92.3,55.61a.51.51,0,0,1-.58-.58.52.52,0,0,1,.58-.59.52.52,0,0,1,.59.59A.52.52,0,0,1,92.3,55.61Z"/><path class="cls-3" d="M94.13,57.06a.51.51,0,0,1-.57-.58.58.58,0,1,1,.57.58Z"/><path class="cls-3" d="M92.66,57.06a.51.51,0,0,1-.58-.58.52.52,0,0,1,.58-.59.51.51,0,0,1,.57.59A.51.51,0,0,1,92.66,57.06Z"/><path class="cls-3" d="M91.18,57.06a.51.51,0,0,1-.58-.58.52.52,0,0,1,.58-.59.52.52,0,0,1,.59.59A.52.52,0,0,1,91.18,57.06Z"/><path class="cls-3" d="M93,58.53c-.38,0-.56-.2-.56-.59s.18-.58.56-.58a.51.51,0,0,1,.58.58A.52.52,0,0,1,93,58.53Z"/><path class="cls-3" d="M91.58,58.53a.52.52,0,0,1-.59-.59.52.52,0,0,1,.59-.58.5.5,0,0,1,.56.58C92.14,58.33,92,58.53,91.58,58.53Z"/><path class="cls-3" d="M90.09,58.53a.52.52,0,0,1-.58-.59.51.51,0,0,1,.58-.58.52.52,0,0,1,.59.58A.52.52,0,0,1,90.09,58.53Z"/><path class="cls-3" d="M91.85,60a.51.51,0,0,1-.57-.59.58.58,0,1,1,1.15,0A.52.52,0,0,1,91.85,60Z"/><path class="cls-3" d="M90.38,60a.52.52,0,0,1-.58-.59.58.58,0,1,1,.58.59Z"/><path class="cls-3" d="M88.9,60a.52.52,0,0,1-.58-.59.51.51,0,0,1,.58-.58.52.52,0,0,1,.59.58A.52.52,0,0,1,88.9,60Z"/><path class="cls-3" d="M90.79,61.42c-.38,0-.56-.2-.56-.59s.18-.58.56-.58a.51.51,0,0,1,.58.58A.52.52,0,0,1,90.79,61.42Z"/><path class="cls-3" d="M89.33,61.42a.52.52,0,0,1-.59-.59.52.52,0,0,1,.59-.58.5.5,0,0,1,.56.58C89.89,61.22,89.7,61.42,89.33,61.42Z"/><path class="cls-3" d="M87.84,61.42a.52.52,0,0,1-.58-.59.51.51,0,0,1,.58-.58.52.52,0,0,1,.59.58A.52.52,0,0,1,87.84,61.42Z"/><path class="cls-3" d="M96.15,54.22a.51.51,0,0,1-.57-.58.58.58,0,1,1,.57.58Z"/><path class="cls-3" d="M94.69,54.22a.52.52,0,0,1-.59-.58.52.52,0,0,1,.59-.59c.37,0,.56.2.56.59A.5.5,0,0,1,94.69,54.22Z"/><path class="cls-3" d="M93.2,54.22a.51.51,0,0,1-.58-.58.52.52,0,0,1,.58-.59.52.52,0,0,1,.59.59A.52.52,0,0,1,93.2,54.22Z"/><path class="cls-3" d="M17.36,50.05a.51.51,0,0,1,.58-.57.57.57,0,1,1,0,1.14A.51.51,0,0,1,17.36,50.05Z"/><path class="cls-3" d="M18.82,50.05a.57.57,0,1,1,.57.57A.5.5,0,0,1,18.82,50.05Z"/><path class="cls-3" d="M20.27,50.05a.5.5,0,0,1,.57-.57c.37,0,.55.19.55.57s-.18.57-.55.57A.5.5,0,0,1,20.27,50.05Z"/><path class="cls-3" d="M17.36,51.47a.51.51,0,0,1,.58-.57.5.5,0,0,1,.57.57.51.51,0,0,1-.57.58A.52.52,0,0,1,17.36,51.47Z"/><path class="cls-3" d="M18.82,51.47a.57.57,0,0,1,1.14,0,.57.57,0,1,1-1.14,0Z"/><path class="cls-3" d="M20.27,51.47a.5.5,0,0,1,.57-.57c.37,0,.55.19.55.57s-.18.58-.55.58A.51.51,0,0,1,20.27,51.47Z"/><path class="cls-3" d="M17.36,53a.51.51,0,0,1,.58-.57.57.57,0,0,1,0,1.14A.51.51,0,0,1,17.36,53Z"/><path class="cls-3" d="M18.82,53a.57.57,0,1,1,.57.57A.5.5,0,0,1,18.82,53Z"/><path class="cls-3" d="M20.27,53a.5.5,0,0,1,.57-.57c.37,0,.55.19.55.57s-.18.57-.55.57A.5.5,0,0,1,20.27,53Z"/><path class="cls-3" d="M17.36,54.4a.51.51,0,0,1,.58-.57.5.5,0,0,1,.57.57.51.51,0,0,1-.57.58A.52.52,0,0,1,17.36,54.4Z"/><path class="cls-3" d="M18.82,54.4a.57.57,0,1,1,1.14,0,.57.57,0,1,1-1.14,0Z"/><path class="cls-3" d="M20.27,54.4a.5.5,0,0,1,.57-.57c.37,0,.55.19.55.57s-.18.58-.55.58A.51.51,0,0,1,20.27,54.4Z"/><path class="cls-3" d="M17.36,55.83a.52.52,0,0,1,.58-.58.51.51,0,0,1,.57.58.5.5,0,0,1-.57.57A.51.51,0,0,1,17.36,55.83Z"/><path class="cls-3" d="M18.82,55.83a.57.57,0,1,1,1.14,0,.57.57,0,0,1-1.14,0Z"/><path class="cls-3" d="M20.27,55.83a.51.51,0,0,1,.57-.58c.37,0,.55.2.55.58s-.18.57-.55.57A.5.5,0,0,1,20.27,55.83Z"/><path class="cls-3" d="M17.36,57.3a.51.51,0,0,1,.58-.57.57.57,0,1,1,0,1.14A.51.51,0,0,1,17.36,57.3Z"/><path class="cls-3" d="M18.82,57.3a.57.57,0,1,1,.57.57A.5.5,0,0,1,18.82,57.3Z"/><path class="cls-3" d="M20.27,57.3a.5.5,0,0,1,.57-.57c.37,0,.55.19.55.57s-.18.57-.55.57A.5.5,0,0,1,20.27,57.3Z"/><path class="cls-3" d="M17.36,58.68a.51.51,0,0,1,.58-.57.58.58,0,0,1,0,1.15A.51.51,0,0,1,17.36,58.68Z"/><path class="cls-3" d="M18.82,58.68a.57.57,0,1,1,.57.58A.5.5,0,0,1,18.82,58.68Z"/><path class="cls-3" d="M20.27,58.68a.5.5,0,0,1,.57-.57c.37,0,.55.19.55.57s-.18.58-.55.58A.51.51,0,0,1,20.27,58.68Z"/><path class="cls-3" d="M21,60.11a.55.55,0,1,1-.55-.56A.49.49,0,0,1,21,60.11Z"/><path class="cls-3" d="M19.57,60.11a.55.55,0,1,1-.55-.56A.49.49,0,0,1,19.57,60.11Z"/><path class="cls-3" d="M20.41,61.39a.56.56,0,1,1-.55-.55A.49.49,0,0,1,20.41,61.39Z"/><path class="cls-3" d="M18.06,60A.56.56,0,1,1,17,60a.56.56,0,0,1,1.11,0Z"/><path class="cls-3" d="M18.79,61.25a.55.55,0,1,1-.55-.55A.48.48,0,0,1,18.79,61.25Z"/><path class="cls-3" d="M19.59,62.5a.55.55,0,1,1-.55-.56A.49.49,0,0,1,19.59,62.5Z"/><path class="cls-3" d="M17.16,61.07a.56.56,0,1,1-.56-.56A.49.49,0,0,1,17.16,61.07Z"/><path class="cls-3" d="M17.83,62.27a.55.55,0,1,1-.55-.55A.48.48,0,0,1,17.83,62.27Z"/><path class="cls-3" d="M18.55,63.46a.56.56,0,1,1-.55-.55A.49.49,0,0,1,18.55,63.46Z"/><path class="cls-3" d="M16,61.81a.55.55,0,1,1-.55-.55A.48.48,0,0,1,16,61.81Z"/><path class="cls-3" d="M16.71,63a.49.49,0,0,1-.55.55.55.55,0,0,1,0-1.1A.49.49,0,0,1,16.71,63Z"/><path class="cls-3" d="M17.36,64.19c0,.37-.18.56-.53.56a.56.56,0,0,1,0-1.11A.48.48,0,0,1,17.36,64.19Z"/><path class="cls-3" d="M14.62,62.18a.48.48,0,0,1-.55.55.55.55,0,0,1,0-1.1A.48.48,0,0,1,14.62,62.18Z"/><path class="cls-3" d="M15.44,63.46a.55.55,0,1,1-.55-.55A.48.48,0,0,1,15.44,63.46Z"/><path class="cls-3" d="M16.09,64.68a.55.55,0,1,1-.55-.55A.49.49,0,0,1,16.09,64.68Z"/><path class="cls-3" d="M13.9,63.62a.48.48,0,0,1-.54.55.55.55,0,0,1,0-1.1A.48.48,0,0,1,13.9,63.62Z"/><path class="cls-3" d="M14.7,65a.56.56,0,1,1-.56-.55A.49.49,0,0,1,14.7,65Z"/><path class="cls-3" d="M9.51,50.05a.5.5,0,0,0-.57-.57.57.57,0,1,0,0,1.14A.5.5,0,0,0,9.51,50.05Z"/><path class="cls-3" d="M8.06,50.05a.5.5,0,0,0-.57-.57.57.57,0,1,0,0,1.14A.5.5,0,0,0,8.06,50.05Z"/><path class="cls-3" d="M6.61,50.05A.5.5,0,0,0,6,49.48c-.37,0-.55.19-.55.57s.18.57.55.57A.5.5,0,0,0,6.61,50.05Z"/><path class="cls-3" d="M9.51,51.47a.5.5,0,0,0-.57-.57.5.5,0,0,0-.57.57.51.51,0,0,0,.57.58A.51.51,0,0,0,9.51,51.47Z"/><path class="cls-3" d="M8.06,51.47a.5.5,0,0,0-.57-.57.5.5,0,0,0-.57.57.51.51,0,0,0,.57.58A.51.51,0,0,0,8.06,51.47Z"/><path class="cls-3" d="M6.61,51.47A.5.5,0,0,0,6,50.9c-.37,0-.55.19-.55.57s.18.58.55.58A.51.51,0,0,0,6.61,51.47Z"/><path class="cls-3" d="M9.51,53a.5.5,0,0,0-.57-.57.57.57,0,0,0,0,1.14A.5.5,0,0,0,9.51,53Z"/><path class="cls-3" d="M8.06,53a.5.5,0,0,0-.57-.57.57.57,0,0,0,0,1.14A.5.5,0,0,0,8.06,53Z"/><path class="cls-3" d="M6.61,53A.5.5,0,0,0,6,52.41c-.37,0-.55.19-.55.57s.18.57.55.57A.5.5,0,0,0,6.61,53Z"/><path class="cls-3" d="M9.51,54.4a.5.5,0,0,0-.57-.57.5.5,0,0,0-.57.57.51.51,0,0,0,.57.58A.51.51,0,0,0,9.51,54.4Z"/><path class="cls-3" d="M8.06,54.4a.5.5,0,0,0-.57-.57.5.5,0,0,0-.57.57.51.51,0,0,0,.57.58A.51.51,0,0,0,8.06,54.4Z"/><path class="cls-3" d="M6.61,54.4A.5.5,0,0,0,6,53.83c-.37,0-.55.19-.55.57S5.67,55,6,55A.51.51,0,0,0,6.61,54.4Z"/><path class="cls-3" d="M9.51,55.83a.51.51,0,0,0-.57-.58.51.51,0,0,0-.57.58.5.5,0,0,0,.57.57A.5.5,0,0,0,9.51,55.83Z"/><path class="cls-3" d="M8.06,55.83a.51.51,0,0,0-.57-.58.51.51,0,0,0-.57.58.5.5,0,0,0,.57.57A.5.5,0,0,0,8.06,55.83Z"/><path class="cls-3" d="M6.61,55.83A.51.51,0,0,0,6,55.25c-.37,0-.55.2-.55.58s.18.57.55.57A.5.5,0,0,0,6.61,55.83Z"/><path class="cls-3" d="M9.51,57.3a.5.5,0,0,0-.57-.57.57.57,0,1,0,0,1.14A.5.5,0,0,0,9.51,57.3Z"/><path class="cls-3" d="M8.06,57.3a.5.5,0,0,0-.57-.57.57.57,0,1,0,0,1.14A.5.5,0,0,0,8.06,57.3Z"/><path class="cls-3" d="M6.61,57.3A.5.5,0,0,0,6,56.73c-.37,0-.55.19-.55.57s.18.57.55.57A.5.5,0,0,0,6.61,57.3Z"/><path class="cls-3" d="M9.51,58.68a.5.5,0,0,0-.57-.57.58.58,0,0,0,0,1.15A.51.51,0,0,0,9.51,58.68Z"/><path class="cls-3" d="M8.06,58.68a.5.5,0,0,0-.57-.57.58.58,0,0,0,0,1.15A.51.51,0,0,0,8.06,58.68Z"/><path class="cls-3" d="M6.61,58.68A.5.5,0,0,0,6,58.11c-.37,0-.55.19-.55.57s.18.58.55.58A.51.51,0,0,0,6.61,58.68Z"/><path class="cls-3" d="M5.84,60.11a.49.49,0,0,0,.55.55.56.56,0,0,0,0-1.11A.49.49,0,0,0,5.84,60.11Z"/><path class="cls-3" d="M7.31,60.11a.49.49,0,0,0,.55.55.56.56,0,0,0,0-1.11A.49.49,0,0,0,7.31,60.11Z"/><path class="cls-3" d="M6.47,61.39a.48.48,0,0,0,.55.55.55.55,0,1,0,0-1.1A.48.48,0,0,0,6.47,61.39Z"/><path class="cls-3" d="M8.82,60a.49.49,0,0,0,.55.56.56.56,0,1,0,0-1.11A.49.49,0,0,0,8.82,60Z"/><path class="cls-3" d="M8.09,61.25a.48.48,0,0,0,.55.55.55.55,0,1,0,0-1.1A.48.48,0,0,0,8.09,61.25Z"/><path class="cls-3" d="M7.29,62.5a.49.49,0,0,0,.55.55.56.56,0,0,0,0-1.11A.49.49,0,0,0,7.29,62.5Z"/><path class="cls-3" d="M9.72,61.07a.49.49,0,0,0,.55.55.56.56,0,1,0,0-1.11A.49.49,0,0,0,9.72,61.07Z"/><path class="cls-3" d="M9.05,62.27a.48.48,0,0,0,.55.55.55.55,0,0,0,0-1.1A.48.48,0,0,0,9.05,62.27Z"/><path class="cls-3" d="M8.33,63.46a.49.49,0,0,0,.55.55.55.55,0,1,0,0-1.1A.49.49,0,0,0,8.33,63.46Z"/><path class="cls-3" d="M10.83,61.81a.49.49,0,0,0,.55.55.55.55,0,1,0,0-1.1A.49.49,0,0,0,10.83,61.81Z"/><path class="cls-3" d="M10.17,63a.49.49,0,0,0,.55.55.55.55,0,0,0,0-1.1A.49.49,0,0,0,10.17,63Z"/><path class="cls-3" d="M9.52,64.19c0,.37.17.56.53.56a.56.56,0,0,0,0-1.11C9.69,63.64,9.52,63.83,9.52,64.19Z"/><path class="cls-3" d="M12.19,62.21a.48.48,0,0,0,.55.55.55.55,0,1,0,0-1.1A.49.49,0,0,0,12.19,62.21Z"/><path class="cls-3" d="M11.44,63.46A.48.48,0,0,0,12,64a.55.55,0,1,0,0-1.1A.48.48,0,0,0,11.44,63.46Z"/><path class="cls-3" d="M10.78,64.68a.5.5,0,0,0,.56.56.56.56,0,0,0,0-1.11A.49.49,0,0,0,10.78,64.68Z"/><path class="cls-3" d="M12.18,65a.49.49,0,0,0,.56.55.55.55,0,1,0,0-1.1A.49.49,0,0,0,12.18,65Z"/><path class="cls-3" d="M90.86,63.68a.29.29,0,0,1-.32-.33.28.28,0,0,1,.32-.31.28.28,0,0,1,.31.31C91.17,63.57,91.06,63.68,90.86,63.68Z"/><path class="cls-3" d="M89.69,63.68a.29.29,0,0,1-.32-.33.28.28,0,0,1,.32-.31c.22,0,.33.1.33.31A.29.29,0,0,1,89.69,63.68Z"/><path class="cls-3" d="M88.52,63.68a.29.29,0,0,1-.32-.33.28.28,0,0,1,.32-.31.27.27,0,0,1,.31.31C88.83,63.57,88.73,63.68,88.52,63.68Z"/><path class="cls-3" d="M87.38,63.68c-.21,0-.31-.11-.31-.33a.31.31,0,1,1,.62,0C87.69,63.57,87.59,63.68,87.38,63.68Z"/><path class="cls-3" d="M86.22,63.68c-.21,0-.31-.11-.31-.33a.27.27,0,0,1,.31-.31c.22,0,.33.1.33.31A.29.29,0,0,1,86.22,63.68Z"/><path class="cls-3" d="M97.72,63.68c-.21,0-.31-.11-.31-.33a.31.31,0,1,1,.62,0C98,63.57,97.93,63.68,97.72,63.68Z"/><path class="cls-3" d="M96.52,63.68a.29.29,0,0,1-.32-.33.28.28,0,0,1,.32-.31c.22,0,.33.1.33.31A.29.29,0,0,1,96.52,63.68Z"/><path class="cls-3" d="M95.39,63.68a.29.29,0,0,1-.32-.33.28.28,0,0,1,.32-.31.27.27,0,0,1,.31.31C95.7,63.57,95.6,63.68,95.39,63.68Z"/><path class="cls-3" d="M93.22,63.68a.29.29,0,0,1-.32-.33.28.28,0,0,1,.32-.31.27.27,0,0,1,.31.31C93.53,63.57,93.43,63.68,93.22,63.68Z"/><path class="cls-3" d="M92,63.68c-.21,0-.31-.11-.31-.33A.27.27,0,0,1,92,63c.23,0,.34.1.34.31S92.25,63.68,92,63.68Z"/><path class="cls-3" d="M100,63.68a.29.29,0,0,1-.32-.33A.28.28,0,0,1,100,63a.28.28,0,0,1,.31.31C100.29,63.57,100.18,63.68,100,63.68Z"/><path class="cls-3" d="M98.82,63.68a.29.29,0,0,1-.32-.33.28.28,0,0,1,.32-.31c.22,0,.33.1.33.31A.29.29,0,0,1,98.82,63.68Z"/><path class="cls-3" d="M94.28,63.68a.29.29,0,0,1-.32-.33.28.28,0,0,1,.32-.31.28.28,0,0,1,.31.31C94.59,63.57,94.48,63.68,94.28,63.68Z"/></svg>