<?xml version="1.0" standalone="no"?>
<!DOCTYPE svg PUBLIC "-//W3C//DTD SVG 20010904//EN"
 "http://www.w3.org/TR/2001/REC-SVG-20010904/DTD/svg10.dtd">
<svg version="1.0" xmlns="http://www.w3.org/2000/svg"
 width="3509.000000pt" height="2482.000000pt" viewBox="0 0 3509.000000 2482.000000"
 preserveAspectRatio="xMidYMid meet">
<metadata>
Created by potrace 1.15, written by Peter Selinger 2001-2017
</metadata>
<g transform="translate(0.000000,2482.000000) scale(0.100000,-0.100000)"
fill="#000000" stroke="none">
<path d="M23329 17901 c-50 -50 -59 -74 -36 -105 12 -17 16 -17 44 -3 23 12
33 13 42 4 19 -19 12 -48 -30 -126 -66 -120 -118 -191 -188 -258 -60 -58 -64
-64 -49 -79 13 -13 19 -14 39 -3 44 23 218 179 250 224 37 52 56 50 34 -3 -24
-57 -47 -84 -99 -117 -89 -55 -206 -146 -206 -160 0 -24 29 -24 92 2 123 50
176 82 239 148 35 36 67 65 71 65 4 0 4 -47 1 -105 -5 -92 -4 -105 11 -111 9
-3 22 -1 30 5 11 9 14 0 20 -50 13 -126 4 -190 -27 -202 -45 -17 -318 -48
-374 -43 -123 13 -316 91 -350 143 -21 32 -10 67 31 92 46 29 59 46 51 71 -8
25 -34 36 -117 50 -50 8 -66 7 -84 -5 -22 -14 -23 -13 -34 20 -12 35 -43 65
-68 65 -11 0 -13 -8 -8 -32 7 -35 42 -78 63 -78 8 0 13 -12 13 -30 0 -30 3
-34 53 -71 31 -24 33 -32 11 -53 -18 -19 -69 -20 -164 -5 -83 14 -114 7 -152
-33 -41 -44 -37 -69 22 -119 28 -23 50 -48 50 -55 0 -22 -101 -253 -167 -383
-89 -175 -164 -284 -227 -330 -114 -85 -137 -146 -118 -315 23 -191 86 -374
182 -522 45 -67 46 -78 24 -149 -23 -76 -32 -225 -22 -364 6 -90 5 -138 -3
-168 -16 -59 -3 -73 70 -73 31 0 63 5 71 10 12 9 9 15 -19 39 -41 34 -42 49
-9 176 22 87 23 101 20 437 -2 191 -1 356 3 367 5 15 20 5 93 -68 48 -47 120
-108 160 -136 39 -27 74 -56 77 -63 3 -8 -1 -37 -9 -65 -37 -129 -29 -223 31
-387 25 -69 36 -114 37 -164 2 -79 11 -90 83 -101 25 -4 52 -9 59 -12 23 -8
17 41 -7 63 -52 47 -53 55 -69 449 -10 271 -12 280 -117 490 -96 192 -137 251
-240 352 -45 45 -83 85 -83 88 0 4 37 48 81 98 109 123 205 247 301 390 l79
118 27 -17 c15 -10 56 -37 92 -61 102 -68 125 -57 91 45 -12 34 -21 73 -21 88
0 23 3 25 23 20 57 -18 110 -17 218 4 214 40 209 39 209 66 0 29 8 28 -152 7
-121 -16 -132 -16 -210 1 -93 20 -113 29 -127 54 -19 36 1 42 74 21 96 -27
259 -35 417 -19 97 9 132 10 141 1 25 -25 -48 -295 -145 -545 l-50 -128 -52 6
c-28 3 -99 9 -157 12 -105 7 -105 7 -185 -28 -43 -20 -97 -41 -119 -48 -59
-19 -105 -44 -162 -88 -52 -41 -137 -157 -127 -173 11 -18 56 -8 132 28 60 28
93 37 149 41 105 7 155 -20 271 -146 102 -112 112 -127 112 -179 0 -69 -19
-112 -83 -184 -117 -133 -114 -148 24 -124 93 17 286 35 366 34 23 0 45 6 49
12 8 13 -57 76 -125 122 -57 38 -66 64 -53 165 9 66 19 95 49 145 73 121 100
137 236 137 81 0 101 3 141 25 39 21 61 25 129 25 75 1 85 3 121 30 28 21 51
30 78 30 21 0 38 3 38 6 0 15 -62 93 -87 110 -17 11 -57 22 -103 26 -41 4
-115 12 -165 16 -49 5 -103 14 -118 21 -39 15 -137 14 -231 -4 -44 -8 -81 -13
-83 -11 -3 2 12 48 33 103 134 357 165 501 169 780 2 161 5 196 19 218 25 39
42 40 88 9 22 -16 80 -49 127 -74 47 -25 86 -51 86 -57 0 -7 -27 -29 -61 -51
-33 -21 -90 -67 -127 -102 -58 -54 -67 -67 -67 -98 0 -22 11 -52 29 -81 26
-41 78 -146 109 -223 7 -16 16 -28 22 -28 40 0 14 200 -41 314 -2 4 17 17 44
27 26 10 47 16 47 13 0 -3 -12 -26 -26 -50 -19 -32 -24 -50 -18 -62 5 -10 54
-61 110 -115 97 -93 144 -120 144 -82 0 33 -60 145 -101 189 -24 27 -38 50
-33 55 5 5 34 16 64 26 118 38 260 120 279 161 15 34 7 42 -20 18 -16 -14 -37
-19 -97 -19 -42 -1 -85 -5 -94 -9 -32 -14 -20 17 16 47 40 31 49 33 66 12 19
-22 61 -18 103 10 31 21 35 29 27 44 -17 33 -80 81 -159 121 -44 21 -105 62
-136 90 -32 27 -62 50 -68 50 -5 0 -40 30 -78 67 -38 36 -71 64 -74 61 -3 -2
4 -31 15 -63 24 -69 24 -75 7 -75 -27 0 -47 36 -47 83 0 45 -1 46 -39 57 -58
15 -99 68 -91 119 8 58 -41 91 -133 91 -61 0 -77 11 -77 55 0 70 -46 72 -111
6z m51 -1956 c-34 -49 -66 -75 -93 -75 -17 0 -112 88 -103 97 4 4 139 19 199
22 l28 1 -31 -45z"/>
<path d="M25716 17895 c-101 -36 -186 -191 -186 -339 0 -131 67 -716 120
-1041 10 -66 26 -214 35 -330 29 -382 61 -456 180 -411 79 31 80 37 62 254
-22 256 -30 415 -20 428 4 6 33 24 63 40 30 16 79 52 107 80 45 42 53 56 53
86 0 52 -27 68 -115 68 -48 0 -84 -7 -114 -20 -24 -11 -46 -18 -49 -16 -7 8
-47 291 -71 507 -25 223 -27 346 -5 419 34 116 75 131 143 54 47 -54 58 -97
42 -166 -15 -67 -14 -120 3 -143 35 -49 160 -1 198 75 43 84 -5 282 -91 373
-72 78 -251 119 -355 82z"/>
<path d="M22352 17830 c-106 -38 -139 -79 -149 -184 -15 -163 56 -246 211
-246 84 0 165 30 205 75 90 103 51 297 -71 361 -37 19 -132 16 -196 -6z m181
-90 c60 -52 72 -146 26 -204 -49 -62 -194 -75 -247 -22 -24 23 -27 34 -27 94
0 86 17 114 87 141 78 29 120 27 161 -9z"/>
<path d="M23710 17833 c-24 -9 -40 -35 -40 -65 0 -20 12 -40 42 -69 58 -56 83
-52 121 21 16 32 25 63 22 72 -10 24 -112 53 -145 41z"/>
<path d="M11517 17584 c-3 -3 -41 -9 -84 -14 -147 -15 -223 -44 -223 -85 0
-12 5 -13 123 -18 74 -4 91 -8 112 -27 38 -36 42 -74 9 -113 l-27 -32 88 -3
c48 -2 90 -1 93 2 2 3 -12 24 -32 46 -20 22 -36 47 -36 55 0 21 51 92 77 106
17 9 34 10 68 2 56 -13 69 1 31 33 -42 37 -177 69 -199 48z"/>
<path d="M18964 17468 c-114 -12 -197 -66 -279 -182 -17 -24 -31 -30 -81 -37
-33 -5 -125 -33 -203 -64 -141 -54 -221 -76 -221 -59 0 5 9 23 20 39 26 40 26
82 0 90 -27 9 -37 1 -64 -54 -23 -45 -67 -78 -87 -66 -5 4 -9 21 -9 39 0 29
-14 56 -31 56 -3 0 -9 -28 -11 -63 -7 -78 -28 -119 -117 -233 -78 -98 -87
-131 -40 -148 21 -7 45 -1 118 30 51 22 110 54 131 72 72 60 88 63 312 56
l201 -7 33 -29 c48 -42 77 -137 80 -257 2 -68 -2 -103 -12 -124 -25 -48 -45
-163 -38 -218 8 -59 21 -59 49 -1 11 23 22 41 25 42 3 0 16 -29 29 -65 14 -36
29 -65 33 -65 12 0 28 46 28 82 0 17 -12 77 -27 134 -25 95 -26 108 -14 154
10 40 10 71 1 159 -7 61 -10 117 -7 125 5 12 34 14 159 14 175 -1 256 16 384
77 40 19 79 35 87 35 8 0 22 -20 32 -45 13 -35 33 -59 85 -100 37 -30 77 -66
89 -80 15 -19 26 -25 41 -20 29 9 65 -54 61 -111 -1 -23 3 -60 10 -82 9 -33 9
-48 -4 -88 -17 -51 -22 -93 -19 -156 2 -31 6 -38 23 -38 35 0 50 57 49 184 0
61 0 126 1 144 2 77 -5 110 -38 169 -53 96 -38 113 24 28 71 -95 187 -331 153
-310 -6 3 -10 12 -10 19 0 8 -7 19 -15 26 -24 20 -19 -55 9 -147 14 -43 26
-96 28 -118 2 -22 7 18 12 89 15 229 0 314 -87 476 -25 47 -49 105 -53 130 -4
25 -14 53 -22 63 -14 16 -13 19 6 38 12 11 31 38 43 60 23 45 42 47 49 3 4
-21 12 -30 28 -32 21 -3 23 0 18 30 -3 18 -8 53 -11 78 -10 83 -70 151 -179
207 -111 57 -110 56 -421 57 -159 1 -318 -2 -351 -6z"/>
<path d="M15640 17421 c-24 -8 -24 -8 10 -14 19 -3 58 -9 85 -12 73 -9 229
-64 397 -138 213 -95 321 -128 444 -134 128 -7 170 9 71 26 -105 18 -188 47
-379 132 -273 121 -339 141 -483 145 -66 2 -131 0 -145 -5z"/>
<path d="M18380 17404 c-8 -1 -32 -5 -53 -9 -35 -6 -107 -56 -107 -75 0 -4 21
-1 48 7 68 22 175 20 245 -4 66 -23 76 -11 27 30 -37 32 -122 59 -160 51z"/>
<path d="M20260 17384 c0 -3 14 -23 30 -44 17 -21 37 -54 45 -73 l15 -35 -51
-11 c-27 -6 -63 -11 -79 -11 -32 0 -50 18 -30 30 8 5 10 17 6 34 -5 19 -13 26
-30 26 -24 0 -36 -17 -36 -51 0 -16 -3 -18 -19 -10 -14 8 -25 6 -45 -10 -29
-23 -34 -54 -11 -79 12 -14 12 -23 0 -70 -8 -30 -29 -85 -46 -122 -32 -67 -32
-68 -16 -103 11 -24 32 -42 68 -60 40 -21 49 -30 43 -43 -5 -9 -8 -44 -9 -77
0 -49 3 -60 18 -63 15 -3 17 1 11 22 -3 15 0 43 10 66 26 65 21 95 -20 126
l-36 28 24 18 c30 23 38 23 38 -2 0 -11 4 -20 9 -20 5 0 15 -24 21 -52 13 -53
26 -78 40 -78 15 0 6 225 -9 243 -18 23 -47 21 -87 -4 -31 -19 -33 -19 -27 -2
3 10 12 25 18 33 7 8 20 30 29 48 13 26 20 31 33 23 12 -6 24 -2 42 15 14 13
42 37 61 53 29 26 32 30 15 31 -11 0 -35 -9 -54 -21 -24 -14 -37 -17 -44 -10
-8 8 -8 14 0 22 12 12 155 49 166 42 13 -8 8 -59 -13 -124 -23 -75 -18 -90 9
-28 44 102 32 210 -35 300 -32 43 -54 61 -54 43z"/>
<path d="M22056 17334 c-3 -9 -6 -33 -6 -54 0 -44 -97 -247 -196 -410 -75
-123 -83 -148 -84 -250 0 -104 12 -150 51 -194 l29 -34 -46 -37 c-25 -20 -47
-36 -49 -34 -2 2 0 23 4 46 16 85 -14 176 -103 316 -44 68 -66 74 -66 19 0
-38 -30 -138 -71 -238 -27 -66 -20 -149 16 -193 l24 -28 -34 -33 c-19 -19 -35
-39 -35 -46 0 -19 26 -35 76 -48 40 -10 48 -16 58 -46 14 -43 51 -63 120 -63
71 -1 122 19 173 66 48 44 153 206 153 236 0 11 22 35 53 59 63 47 119 125
149 207 17 47 22 82 22 165 0 130 -20 204 -110 420 -72 169 -110 221 -128 174z
m34 -216 c-1 -47 -2 -51 -14 -35 -14 18 -14 18 -21 -2 -7 -23 11 -97 25 -106
11 -7 12 -101 1 -129 -6 -17 -10 -16 -34 13 -14 17 -34 45 -44 61 -23 39 -36
38 -28 -2 9 -43 41 -107 70 -138 22 -24 22 -27 9 -72 -8 -27 -18 -48 -23 -48
-5 0 -31 32 -57 71 -73 107 -73 37 0 -84 l34 -55 -19 -29 c-10 -15 -24 -28
-31 -28 -7 0 -30 32 -50 70 l-37 70 -1 -46 c0 -31 9 -64 28 -102 27 -53 28
-58 12 -72 -39 -36 -81 20 -88 116 -8 109 3 145 74 265 36 60 91 160 122 221
31 62 60 113 65 113 4 0 7 -24 7 -52z m108 -138 c89 -254 53 -442 -110 -570
-55 -44 -84 -49 -118 -22 -30 24 -18 52 24 52 51 0 105 19 139 50 38 34 32 46
-12 24 -18 -9 -51 -19 -73 -22 l-41 -5 26 44 c15 25 37 46 50 50 13 4 36 14
50 24 31 20 102 113 94 122 -3 3 -23 -8 -44 -24 -21 -16 -52 -39 -70 -51 l-32
-23 21 62 c14 41 32 72 54 91 30 27 63 93 51 104 -3 3 -21 -11 -40 -32 l-35
-38 5 74 c3 41 9 79 14 85 12 13 11 75 -1 75 -5 0 -10 15 -10 33 l1 32 13 -25
c8 -14 27 -63 44 -110z"/>
<path d="M11730 17253 c0 -11 11 -35 24 -54 97 -135 98 -138 105 -218 l6 -76
65 -32 c36 -17 91 -38 123 -45 65 -14 63 -5 33 -112 -14 -54 -14 -65 1 -135 9
-42 17 -91 17 -109 1 -29 4 -33 26 -30 38 5 39 48 1 101 l-31 42 28 85 c16 46
31 79 35 74 3 -6 16 -35 28 -65 21 -52 26 -87 48 -320 5 -63 16 -120 26 -139
16 -32 16 -34 -11 -89 -23 -48 -27 -69 -28 -146 -1 -86 0 -90 22 -93 20 -3 22
1 22 37 0 22 14 77 30 123 37 100 38 162 9 276 -28 106 -21 117 54 80 28 -14
78 -33 109 -42 64 -18 63 -17 72 -120 5 -65 51 -169 87 -202 l22 -19 -8 30
c-20 81 -45 214 -45 243 0 19 -8 40 -21 53 -34 34 -140 99 -183 111 -46 14
-56 24 -86 86 -14 30 -18 53 -14 80 5 33 -1 48 -65 151 -39 63 -71 118 -71
123 0 4 6 17 12 28 20 31 -1 54 -51 58 -77 6 -92 -31 -35 -83 20 -19 33 -38
30 -43 -6 -10 -99 20 -121 38 -6 5 -28 10 -50 12 -32 2 -42 8 -53 31 -16 34
-5 58 15 32 12 -17 13 -16 13 17 0 37 -28 83 -58 92 -9 4 -27 30 -40 59 -29
65 -92 141 -92 110z"/>
<path d="M11035 17224 c-91 -14 -235 -73 -264 -108 -17 -20 -15 -20 107 0 243
40 580 -23 690 -128 34 -34 40 -27 18 25 -30 72 -159 158 -288 193 -56 15
-212 26 -263 18z"/>
<path d="M15854 17145 c-11 -28 6 -46 70 -75 36 -16 67 -34 71 -40 9 -14 -1
-13 -73 10 -71 22 -182 27 -182 8 0 -6 22 -33 49 -58 53 -52 112 -73 193 -70
61 3 68 1 68 -11 0 -6 -23 -49 -52 -97 -28 -48 -87 -157 -130 -242 -44 -85
-87 -163 -95 -172 -23 -26 -64 -31 -108 -12 -34 14 -51 14 -138 4 -122 -15
-220 -8 -312 22 -57 19 -91 23 -180 22 -96 -1 -125 -6 -230 -37 -66 -20 -167
-50 -224 -67 -199 -59 -253 -96 -266 -185 -12 -80 -1 -246 19 -285 23 -44 73
-97 108 -116 38 -20 41 -18 34 17 -5 28 -4 30 17 23 75 -24 130 -34 189 -34
128 0 259 -76 306 -176 42 -89 89 -122 203 -144 39 -7 69 -21 95 -44 22 -18
90 -54 152 -81 62 -27 109 -52 105 -56 -5 -3 -66 -28 -138 -54 -179 -66 -337
-135 -420 -184 -38 -22 -141 -77 -227 -121 -100 -51 -164 -89 -174 -105 -24
-37 -11 -41 38 -12 44 25 268 111 274 104 15 -14 -79 -227 -100 -227 -7 0 -23
12 -37 26 -55 59 -119 70 -168 29 -44 -38 -56 -84 -55 -215 1 -125 18 -189 51
-191 10 -1 -2 -7 -27 -15 -55 -18 -222 -20 -311 -4 -96 16 -249 68 -249 84 0
2 48 43 107 92 88 72 103 90 86 92 -32 5 -104 -30 -171 -81 -61 -47 -129 -87
-149 -87 -14 0 -28 -59 -17 -69 15 -13 253 -80 359 -102 64 -12 162 -22 271
-26 l172 -6 -5 -57 c-8 -80 16 -150 82 -249 83 -123 85 -169 11 -249 -54 -60
-158 -197 -179 -239 -20 -38 -22 -76 -5 -106 21 -40 228 -253 272 -281 38 -24
44 -33 50 -73 11 -80 8 -93 -29 -130 -20 -20 -34 -37 -32 -39 7 -8 108 31 133
51 38 30 36 78 -10 240 -63 226 -63 327 -2 464 20 43 36 87 36 98 0 11 -13 46
-30 79 -43 87 -58 167 -70 374 -6 102 -17 212 -25 245 -44 178 10 386 143 551
92 114 170 155 400 214 155 39 344 106 360 127 17 24 15 57 -7 84 -18 22 -26
24 -111 22 l-91 -2 -70 60 c-87 76 -113 89 -169 89 -73 0 -126 34 -197 125
-34 44 -79 113 -100 154 -37 73 -37 74 -17 90 19 15 142 40 420 86 50 8 138
31 195 51 187 66 209 70 289 56 80 -14 250 -80 250 -97 0 -6 -18 -29 -40 -50
-22 -21 -40 -45 -40 -52 0 -8 -17 -31 -37 -53 -35 -36 -48 -41 -168 -71 -71
-18 -132 -33 -133 -35 -11 -8 14 -46 38 -59 68 -35 161 -7 219 66 26 31 39 38
88 47 31 5 63 8 69 5 6 -2 14 6 17 19 6 22 7 22 20 4 13 -17 14 -17 26 13 23
54 16 151 -16 227 l-29 69 -55 -3 c-49 -2 -62 1 -105 30 -27 18 -59 38 -69 44
-11 6 -24 27 -29 47 -8 31 -6 40 11 59 46 51 128 186 219 362 52 102 98 186
100 186 3 0 52 -25 109 -55 129 -67 166 -71 194 -18 23 44 5 83 -25 53 -15
-15 -131 98 -144 143 -11 34 -45 67 -85 80 -5 2 -8 36 -7 75 2 40 0 72 -3 72
-3 0 -14 -19 -24 -43 -10 -23 -26 -48 -35 -56 -14 -12 -18 -8 -37 38 l-21 51
-26 -20 c-37 -30 -70 -24 -146 25 -71 46 -122 58 -132 30z m-1084 -3713 c0
-10 23 -99 50 -198 28 -98 49 -188 48 -198 -2 -14 -17 2 -52 55 -27 41 -66 94
-86 119 -82 99 -86 144 -19 204 44 40 59 45 59 18z"/>
<path d="M15106 17083 c-52 -66 -112 -194 -136 -288 -26 -101 -27 -275 -1
-275 3 0 7 46 7 103 2 146 50 288 150 445 19 29 34 55 34 57 0 16 -22 -1 -54
-42z"/>
<path d="M10460 17081 c0 -12 16 -39 36 -61 49 -54 61 -113 34 -169 -23 -45
-26 -91 -8 -109 9 -9 4 -20 -25 -50 -20 -21 -37 -45 -37 -54 0 -9 18 -38 40
-63 45 -52 46 -58 25 -108 -19 -46 -19 -91 -1 -106 8 -7 31 -15 53 -18 l38 -6
-24 26 -24 26 62 64 c33 35 61 72 61 81 0 10 -8 31 -17 47 l-17 29 39 32 c87
70 125 114 125 145 0 29 -26 63 -48 63 -22 0 -23 22 -2 45 36 38 23 59 -39 65
-56 6 -91 33 -91 69 0 10 -6 25 -12 34 -11 15 -17 16 -45 5 -18 -7 -33 -16
-33 -21 0 -4 -15 3 -32 16 -53 39 -58 40 -58 18z"/>
<path d="M15552 17048 c-20 -26 -22 -56 -7 -92 20 -47 13 -57 -65 -96 -135
-68 -249 -89 -364 -65 -51 11 -82 13 -88 7 -17 -17 1 -31 60 -48 70 -21 194
-23 286 -5 58 12 70 12 77 0 14 -22 11 -30 -12 -36 -17 -5 -20 -11 -15 -35 4
-23 -1 -36 -28 -66 -30 -33 -55 -82 -43 -82 20 0 137 43 144 53 6 6 13 29 17
49 8 43 20 49 99 45 49 -2 61 1 75 19 9 12 29 29 45 39 32 20 35 53 8 86 -17
21 -22 22 -45 11 -35 -16 -59 -3 -76 39 -11 26 -11 37 -1 63 22 54 24 75 7
101 -18 27 -57 34 -74 13z"/>
<path d="M27034 16968 c-45 -32 -72 -76 -100 -163 -29 -91 -41 -115 -56 -115
-18 0 -68 52 -68 71 0 23 -78 93 -139 123 -66 34 -124 34 -173 1 -20 -14 -41
-25 -46 -25 -4 0 -22 16 -39 35 -26 29 -38 35 -73 35 -31 0 -47 -6 -67 -26
-24 -24 -25 -30 -19 -92 6 -66 65 -372 86 -443 16 -57 52 -102 102 -129 43
-22 48 -23 74 -10 34 19 54 65 54 128 0 85 36 246 63 280 15 19 38 -6 109
-122 76 -124 120 -170 177 -186 54 -14 69 -3 96 72 30 86 80 192 98 206 14 12
24 -5 92 -143 89 -182 138 -245 191 -245 44 0 64 37 64 119 0 64 -24 131 -115
311 -107 214 -167 298 -232 326 -42 18 -43 18 -79 -8z"/>
<path d="M11064 16941 c-57 -35 -100 -117 -88 -168 4 -13 27 -38 53 -55 25
-18 51 -39 58 -47 24 -30 14 -80 -27 -149 -22 -36 -45 -83 -50 -103 -15 -57
-35 -74 -170 -149 -254 -143 -364 -190 -410 -175 -21 7 -22 8 -74 215 -43 172
-86 310 -96 310 -34 0 -50 -312 -26 -480 47 -323 173 -639 305 -764 l31 -30 0
32 c0 50 -66 368 -98 471 -16 52 -27 103 -24 113 11 43 133 95 438 188 232 70
224 70 314 -13 57 -53 162 -114 235 -137 66 -21 127 -55 175 -99 l45 -40 -60
0 c-33 0 -132 11 -220 24 -260 40 -391 32 -441 -28 -60 -71 -18 -190 198 -566
129 -224 182 -333 174 -359 -4 -11 -20 -37 -36 -57 -35 -44 -50 -103 -29 -116
26 -16 40 -9 87 42 26 28 75 72 110 96 53 38 63 50 60 71 -2 20 -12 28 -45 39
-23 8 -48 24 -55 36 -36 56 -230 501 -235 536 -9 64 15 91 78 91 74 0 160 -33
290 -111 133 -80 224 -115 324 -125 117 -11 117 -11 184 -234 138 -456 254
-659 362 -633 59 14 120 108 153 236 8 32 20 124 26 205 13 180 21 223 71 365
32 93 39 125 39 189 0 44 -7 97 -16 123 -14 43 -14 48 3 73 10 15 30 56 45 92
56 129 35 134 -138 38 -53 -30 -78 -51 -89 -75 -20 -41 -14 -62 33 -132 59
-87 57 -131 -13 -348 -68 -213 -115 -330 -125 -311 -12 21 -48 231 -70 403
-22 169 -38 240 -67 292 -30 54 -338 386 -487 524 -77 73 -142 136 -144 140
-10 24 100 -7 198 -56 30 -15 98 -54 151 -86 53 -32 105 -59 116 -59 25 0 43
19 43 47 0 17 -21 35 -97 83 -54 34 -129 86 -168 116 -137 106 -300 175 -508
215 -122 23 -153 37 -168 76 -7 20 -4 36 16 79 32 68 32 108 0 139 -30 31 -95
34 -141 6z m-714 -776 c72 -294 140 -589 136 -593 -5 -5 -66 105 -105 188 -42
91 -79 226 -91 333 -11 92 -3 265 10 250 4 -4 27 -84 50 -178z"/>
<path d="M19189 16834 c-11 -14 -10 -19 13 -39 15 -13 53 -33 85 -45 83 -30
86 -36 55 -130 l-26 -78 -88 93 c-89 94 -208 181 -234 171 -25 -10 -15 -36 26
-64 77 -52 110 -80 157 -133 29 -32 40 -50 28 -45 -81 34 -149 55 -198 61 -54
7 -57 6 -57 -14 0 -26 23 -36 105 -45 136 -16 188 -71 206 -217 22 -184 67
-272 169 -335 85 -52 85 -54 82 -236 -3 -134 -1 -158 11 -158 25 0 37 57 37
174 l0 111 20 -25 c31 -38 78 -139 92 -195 15 -62 12 -58 37 -50 33 10 26 52
-28 157 l-48 96 44 -34 c40 -31 73 -43 73 -29 0 25 -41 70 -100 111 -76 51
-76 51 -85 159 -15 160 -51 272 -123 384 -48 73 -49 85 -22 163 14 39 17 64
11 80 -8 21 -5 24 33 33 44 11 55 35 21 45 -11 3 -20 12 -20 20 0 22 -35 25
-71 5 -31 -17 -35 -17 -95 4 -75 25 -92 26 -110 5z"/>
<path d="M18231 16785 c-41 -47 -41 -89 -1 -140 17 -21 30 -42 30 -47 0 -5
-13 -26 -29 -46 -19 -24 -33 -57 -40 -96 -6 -33 -20 -69 -31 -81 -16 -17 -20
-37 -22 -114 l-3 -93 -62 93 c-34 52 -80 120 -102 152 -25 36 -42 74 -47 103
-9 62 6 75 47 44 l32 -23 -7 33 c-14 70 -108 152 -130 113 -13 -24 0 -151 23
-215 34 -97 160 -326 239 -431 103 -139 124 -187 134 -315 8 -113 0 -176 -33
-228 -25 -41 -24 -71 2 -79 32 -10 55 19 86 109 23 68 28 97 28 182 l0 102 25
-10 c38 -14 60 -39 60 -67 0 -14 -12 -66 -26 -116 -31 -105 -28 -147 12 -195
39 -46 55 -40 37 14 -13 40 -13 53 11 167 35 170 33 168 199 214 31 8 57 20
57 25 0 6 -23 10 -50 10 -56 0 -113 20 -146 51 -38 36 -115 155 -123 190 -4
19 -5 45 -1 59 l6 24 21 -29 c11 -17 39 -69 62 -117 23 -49 46 -88 51 -88 13
0 13 1 -5 85 -8 39 -38 132 -66 208 l-52 138 17 51 c9 27 16 58 16 68 0 24
-36 67 -71 85 -36 19 -37 34 -3 66 30 27 54 70 54 95 0 9 -15 31 -34 50 -30
30 -40 34 -84 34 -45 0 -53 -4 -81 -35z"/>
<path d="M16896 16758 c-19 -74 -19 -73 -71 -73 -72 -1 -95 -17 -95 -64 0 -47
-30 -88 -73 -99 -29 -7 -32 -12 -35 -51 -2 -26 -9 -44 -18 -48 -24 -9 -26 2
-10 42 28 67 19 70 -43 14 -98 -89 -150 -128 -215 -161 -63 -31 -126 -83 -126
-104 0 -31 83 -57 107 -33 9 9 19 6 42 -10 39 -28 40 -44 4 -30 -16 6 -45 8
-66 5 -26 -4 -45 -1 -62 10 -23 15 -25 15 -25 0 0 -40 122 -112 258 -152 10
-3 4 -15 -18 -41 -30 -34 -80 -130 -80 -153 0 -27 43 -2 118 69 84 80 94 101
67 137 -22 29 -18 34 16 22 25 -9 29 -14 24 -32 -39 -121 -50 -219 -25 -223
10 -3 22 16 38 55 12 32 38 85 57 117 19 31 35 68 35 80 0 27 -96 120 -166
161 l-46 27 58 32 c33 18 78 45 100 59 51 32 70 33 85 4 19 -38 51 -68 72 -68
19 0 19 5 15 85 l-6 85 67 -62 c91 -86 251 -155 251 -108 0 11 -102 88 -162
122 -27 16 -48 38 -64 70 -13 27 -23 48 -20 48 2 0 37 -33 77 -73 70 -70 153
-137 169 -137 5 0 11 7 14 16 4 11 -8 29 -38 56 -48 41 -116 138 -160 226 -21
41 -25 57 -16 67 9 11 16 11 30 3 9 -6 25 -8 34 -5 28 11 18 51 -22 90 -38 37
-70 48 -76 25z"/>
<path d="M24144 16500 c4 -146 24 -215 81 -270 39 -38 42 -33 19 31 -8 24 -26
98 -40 164 -14 66 -34 138 -45 160 l-19 40 4 -125z"/>
<path d="M10088 16573 c-39 -42 -48 -67 -48 -130 0 -40 6 -68 20 -90 35 -58
46 -44 54 70 3 56 9 119 12 140 7 44 -3 47 -38 10z"/>
<path d="M21325 16123 c-19 -25 -38 -58 -41 -72 -20 -88 -18 -85 -61 -93 -51
-8 -110 -38 -189 -94 -59 -41 -74 -60 -74 -89 0 -25 31 -45 68 -45 46 0 58 -8
71 -43 16 -41 13 -72 -7 -90 -10 -9 -64 -35 -122 -58 -76 -30 -124 -43 -180
-48 -66 -5 -75 -8 -75 -26 0 -19 8 -20 120 -23 l120 -4 -102 -48 c-81 -38
-103 -53 -103 -69 0 -28 29 -41 71 -32 19 4 115 43 214 86 198 86 242 95 325
71 72 -22 161 -20 245 4 133 38 207 22 304 -64 45 -40 57 -46 96 -46 24 0 46
4 49 9 3 5 -27 29 -67 54 -39 25 -85 60 -102 77 l-30 32 39 -16 c21 -9 60 -32
87 -52 57 -42 94 -43 94 -4 0 21 -12 31 -66 60 -113 60 -124 77 -52 82 35 2
49 8 51 19 6 30 -24 46 -98 52 -45 4 -86 14 -108 27 -137 76 -162 85 -267 85
-55 0 -141 -4 -191 -9 -50 -5 -104 -6 -120 -2 l-29 8 35 18 c50 26 82 64 89
107 l6 37 78 13 c100 17 117 26 117 64 0 39 -18 45 -91 27 l-59 -15 6 79 c8
93 0 98 -51 31z"/>
<path d="M18799 16090 c67 -37 150 -108 173 -148 18 -30 18 -30 -17 -78 -47
-65 -50 -74 -34 -85 11 -7 12 -12 2 -26 -31 -44 -90 -153 -114 -207 -24 -58
-34 -68 -71 -80 -11 -3 -18 -15 -18 -29 0 -31 -31 -63 -77 -77 -21 -7 -65 -28
-99 -46 -33 -19 -71 -34 -83 -34 -12 0 -49 14 -82 31 -34 17 -93 37 -133 44
-39 8 -88 21 -110 30 -31 13 -44 14 -67 5 -51 -22 -54 -37 -9 -44 23 -3 87
-29 142 -57 172 -87 291 -99 440 -48 136 47 212 35 338 -56 25 -18 68 -44 95
-58 63 -31 86 -56 90 -99 2 -18 11 -58 19 -88 20 -71 21 -114 2 -107 -8 3 -55
33 -105 67 -100 67 -146 86 -168 69 -21 -18 -16 -27 40 -63 30 -18 83 -61 119
-95 127 -119 196 -128 377 -51 75 32 131 50 157 50 50 0 154 -37 238 -84 78
-44 98 -68 85 -103 -5 -13 -9 -87 -9 -163 l0 -139 31 -17 c29 -14 33 -14 47 0
13 13 14 19 3 40 -11 20 -11 40 -1 113 20 138 19 252 -4 288 -47 76 -221 195
-286 195 -54 1 -57 16 -13 57 39 36 133 206 133 240 0 31 18 9 24 -29 4 -24
25 -80 47 -126 24 -49 48 -121 61 -180 23 -106 70 -214 76 -175 2 13 -8 56
-22 97 -15 43 -26 97 -26 128 0 73 -25 183 -51 224 -20 32 -20 40 -10 122 6
48 19 118 28 156 l17 68 -27 22 c-15 12 -27 26 -27 30 0 5 26 33 58 62 31 29
51 53 44 54 -26 0 -82 -32 -108 -63 -17 -21 -28 -27 -35 -20 -14 14 13 56 52
84 36 25 62 74 54 99 -14 44 -82 30 -113 -23 -14 -22 -15 -31 -4 -47 19 -31
-17 -94 -68 -120 -42 -22 -63 -53 -86 -131 -8 -27 -28 -64 -44 -83 -35 -39
-38 -71 -10 -86 19 -10 19 -11 0 -43 -11 -18 -26 -65 -35 -105 -8 -40 -21 -86
-30 -101 -23 -46 -87 -112 -130 -133 -22 -12 -68 -43 -104 -69 -35 -27 -67
-49 -72 -49 -11 0 -18 40 -29 168 -10 123 -31 179 -76 203 -14 7 -36 28 -51
47 -37 50 -133 108 -229 139 -66 21 -81 30 -72 40 8 10 27 12 74 7 58 -6 64
-5 87 19 14 14 28 42 32 63 9 56 18 69 53 72 24 3 33 10 45 40 10 24 17 32 20
22 44 -128 72 -248 77 -323 3 -48 10 -88 15 -90 11 -2 33 122 34 190 1 24 -9
66 -20 95 -17 42 -23 84 -28 198 -5 130 -8 148 -29 177 -31 44 -22 70 34 94
50 23 55 39 19 63 -33 22 -67 20 -99 -5 -23 -18 -26 -26 -20 -55 5 -26 2 -35
-11 -40 -23 -9 -92 13 -107 35 -14 19 -125 115 -168 144 -13 9 -40 17 -60 17
l-35 0 54 -30z"/>
<path d="M10650 15918 c0 -3 9 -30 19 -61 26 -76 48 -194 56 -302 10 -141 47
-207 140 -251 50 -24 135 -33 135 -14 0 6 -7 10 -15 10 -25 0 -88 36 -116 67
-45 48 -59 89 -70 199 -11 119 -36 207 -80 275 -27 42 -69 89 -69 77z"/>
<path d="M12860 15862 c0 -6 21 -59 46 -117 147 -336 373 -558 619 -610 38 -8
71 -12 74 -10 5 6 12 2 -81 48 -187 93 -324 230 -528 527 -96 141 -130 183
-130 162z"/>
<path d="M13990 15748 c-22 -74 -24 -194 -5 -313 29 -189 58 -246 197 -392
l78 -81 -25 -69 c-13 -37 -34 -101 -46 -141 -12 -41 -35 -92 -51 -114 -16 -22
-28 -42 -25 -44 7 -7 60 16 81 34 32 30 79 134 114 257 6 20 15 30 28 30 16 0
19 -9 22 -63 4 -75 -17 -153 -61 -234 -34 -63 -32 -78 8 -52 42 27 88 128 96
208 6 61 10 73 35 93 27 21 28 24 16 56 -16 45 -15 122 2 199 8 35 17 122 21
193 4 72 13 156 21 188 8 32 14 72 14 89 0 39 -48 88 -87 88 -36 0 -46 -7 -72
-50 -19 -32 -25 -35 -67 -35 l-46 0 -24 -75 c-29 -93 -30 -142 -3 -186 24 -39
19 -51 -27 -70 -52 -22 -79 -18 -108 16 -38 45 -57 121 -63 246 -5 89 -2 122
12 166 19 62 17 91 -6 96 -11 2 -20 -10 -29 -40z m364 -587 c-9 -51 -24 -101
-33 -113 -24 -29 -66 -26 -102 8 -43 41 -102 131 -95 143 4 6 33 11 64 11 72
0 124 14 147 40 31 35 37 8 19 -89z"/>
<path d="M14799 15517 c-24 -29 -29 -30 -53 -19 -15 7 -36 12 -47 12 -23 0
-36 -27 -20 -43 18 -18 13 -37 -11 -37 -62 -1 -68 -40 -19 -133 l39 -76 -24
-16 c-30 -19 -30 -29 1 -99 26 -58 25 -76 -1 -76 -8 0 -14 -4 -14 -10 0 -15
77 -12 87 3 4 6 10 34 13 62 5 46 8 51 48 73 46 26 52 44 28 91 -14 25 -13 29
5 45 17 14 20 26 16 66 -5 44 -2 51 28 82 18 18 46 43 61 55 36 26 29 36 -16
23 -28 -8 -35 -7 -47 10 -20 28 -44 24 -74 -13z"/>
<path d="M12974 15343 l1 -108 -37 -3 c-40 -3 -41 -1 -39 48 2 34 -34 90 -58
90 -31 0 -44 -26 -38 -73 6 -41 4 -44 -23 -54 -38 -14 -49 -41 -25 -59 10 -8
29 -14 42 -14 28 0 31 -32 8 -106 -8 -27 -15 -63 -15 -80 0 -92 -39 -147 -112
-159 -56 -9 -83 -27 -96 -64 -13 -36 -7 -39 17 -10 14 18 32 23 93 28 90 8
110 21 133 92 9 27 22 49 30 49 23 0 48 -50 40 -84 -22 -111 -16 -122 27 -50
35 56 43 87 30 111 -9 16 2 32 64 100 60 66 76 91 82 125 6 31 14 46 32 55 17
9 20 13 8 13 -18 0 -38 47 -38 89 -1 41 -34 103 -74 139 -20 17 -40 32 -45 32
-4 0 -8 -48 -7 -107z m-2 -173 l3 -30 27 25 c15 14 32 25 37 25 20 0 29 -33
18 -64 -12 -38 -80 -131 -85 -116 -8 22 -22 8 -32 -31 -7 -23 -16 -39 -23 -36
-7 2 -25 26 -40 53 -22 39 -27 58 -23 93 2 25 11 50 20 56 9 7 16 22 16 34 0
18 6 21 39 21 37 0 40 -2 43 -30z"/>
<path d="M20096 15404 c-11 -85 -6 -263 10 -342 22 -109 75 -214 141 -280 30
-30 57 -52 60 -49 3 4 -12 32 -32 63 -81 121 -122 268 -146 514 -6 69 -15 129
-19 133 -4 4 -10 -13 -14 -39z"/>
<path d="M15151 15344 c-16 -21 -40 -32 -93 -46 -122 -31 -161 -73 -151 -162
3 -28 7 -53 9 -55 2 -2 16 8 33 21 19 16 48 28 81 32 84 11 120 47 120 120 0
33 33 76 59 76 21 0 7 35 -15 38 -14 2 -29 -7 -43 -24z"/>
<path d="M21168 15322 c-25 -15 -58 -36 -73 -46 -19 -14 -29 -16 -38 -7 -6 6
-15 11 -21 11 -6 0 -5 -5 2 -12 19 -19 14 -48 -13 -80 -23 -27 -25 -38 -25
-128 0 -79 -3 -102 -16 -112 -51 -42 -62 -57 -68 -102 -4 -27 -10 -55 -13 -63
-5 -13 -2 -13 15 -4 12 6 24 22 28 35 7 31 42 63 76 71 38 10 45 -13 19 -61
-36 -67 -27 -109 37 -176 26 -28 35 -45 34 -70 -1 -31 0 -32 14 -14 21 29 17
77 -10 116 -13 19 -26 45 -30 58 -10 30 9 84 40 113 14 13 37 44 52 69 14 25
36 60 49 78 l24 32 29 -20 c52 -37 79 -18 58 42 -9 25 -8 33 1 36 7 2 24 14
38 26 20 18 25 28 20 49 -4 14 -15 27 -25 29 -28 7 -75 -12 -98 -38 l-20 -25
-27 21 c-36 28 -34 42 11 80 108 94 115 102 101 111 -8 5 -39 9 -69 9 -42 0
-66 -7 -102 -28z m-50 -124 c7 -7 12 -28 12 -47 0 -32 1 -33 18 -18 24 22 35
21 58 -4 15 -17 16 -23 6 -40 -7 -11 -10 -28 -7 -39 9 -30 -52 -85 -115 -104
-63 -19 -81 -10 -56 28 18 28 22 61 6 51 -25 -15 2 123 31 160 23 28 30 30 47
13z"/>
<path d="M11475 15300 c-4 -6 7 -23 23 -38 30 -28 85 -131 137 -255 20 -49 42
-80 73 -108 44 -38 111 -65 137 -55 17 6 28 -52 19 -99 -5 -31 -4 -35 15 -35
20 0 21 5 21 78 0 77 0 78 29 89 44 16 57 74 36 154 -17 68 -38 102 -90 148
-54 47 -109 71 -235 102 -124 31 -155 35 -165 19z m255 -220 c29 0 41 -6 54
-25 l16 -25 -57 0 c-73 0 -59 -19 20 -27 46 -5 57 -10 66 -30 l12 -25 -56 7
c-30 3 -55 4 -55 1 0 -12 61 -36 90 -36 23 0 30 -4 30 -20 0 -28 -33 -26 -86
5 -48 28 -73 59 -98 125 -10 25 -20 51 -23 58 -4 9 1 10 22 2 14 -5 43 -10 65
-10z"/>
<path d="M23172 15274 c-63 -31 -149 -115 -184 -181 -54 -98 -73 -237 -44
-308 18 -43 38 -47 30 -6 -3 16 3 62 15 105 37 135 106 251 219 369 53 54 42
60 -36 21z"/>
<path d="M20665 15241 c-4 -12 -10 -60 -14 -106 l-8 -83 -69 -86 c-110 -139
-227 -306 -409 -588 -93 -144 -191 -284 -216 -310 -40 -42 -50 -48 -86 -48
-43 0 -169 35 -190 52 -24 19 -14 47 27 73 59 37 73 65 68 133 -8 106 -85 235
-177 293 -56 36 -100 37 -138 5 -26 -23 -28 -29 -28 -109 -1 -79 -3 -89 -32
-129 -92 -130 -83 -152 85 -197 30 -9 42 -17 42 -30 0 -23 -13 -33 -72 -55
-55 -20 -100 -68 -116 -125 -7 -21 -16 -78 -22 -127 -5 -49 -16 -114 -25 -144
-8 -30 -20 -118 -25 -195 -23 -307 -48 -423 -110 -515 l-30 -45 26 -3 c31 -4
94 28 154 78 50 41 89 64 97 57 2 -3 -3 -53 -11 -111 -21 -140 -20 -184 5
-257 20 -57 20 -61 3 -80 -22 -25 -76 -25 -133 1 -24 11 -52 20 -63 20 -18 0
-20 -4 -14 -32 9 -45 50 -84 102 -97 51 -13 84 -41 84 -72 0 -12 -30 -112 -66
-223 -151 -461 -205 -740 -203 -1046 1 -112 -17 -225 -42 -278 -21 -43 -41
-61 -102 -91 -22 -11 -33 -24 -35 -43 -4 -33 22 -43 115 -43 84 0 106 18 155
130 130 293 144 344 132 465 -23 236 -3 344 93 499 29 47 70 119 90 159 21 39
43 72 50 72 7 0 15 -17 19 -37 4 -21 27 -108 51 -193 42 -144 45 -162 42 -255
-7 -273 -2 -356 26 -460 16 -55 30 -127 32 -160 4 -54 1 -65 -26 -105 -36 -53
-39 -75 -10 -91 31 -16 90 3 132 44 33 31 34 36 41 127 3 57 20 148 41 227 45
171 46 225 4 283 -60 82 -83 147 -82 230 0 41 7 102 16 135 30 114 38 227 35
480 -4 324 -13 346 -148 365 -108 15 -123 47 -122 259 0 114 4 155 17 188 21
52 72 99 122 112 21 6 64 17 95 26 32 8 70 26 85 39 l28 24 -30 8 c-16 4 -66
2 -109 -4 -44 -7 -81 -11 -82 -9 -5 5 480 216 614 267 74 28 204 69 290 91
169 43 269 85 302 126 82 105 -106 220 -248 152 -29 -14 -59 -41 -86 -78 -95
-129 -145 -165 -337 -241 -56 -23 -115 -48 -130 -56 -35 -18 -36 -11 -4 41 33
53 33 85 1 85 -13 0 -36 -10 -52 -22 -26 -21 -27 -21 -20 -3 5 11 15 49 23 85
15 72 27 94 88 160 262 285 464 686 536 1064 28 143 18 273 -25 331 -13 18
-14 18 -21 -4z m-70 -468 c-82 -328 -257 -617 -639 -1056 -56 -65 -86 -92 -86
-80 0 25 176 419 245 551 59 110 105 183 195 302 31 41 82 113 115 160 91 133
188 255 193 242 2 -7 -9 -60 -23 -119z"/>
<path d="M13918 15179 c-26 -26 -62 -52 -79 -58 l-33 -11 23 24 c23 24 25 56
5 63 -6 2 -16 -8 -22 -22 -7 -14 -20 -28 -29 -32 -33 -12 -60 -51 -66 -92 -6
-50 -43 -100 -94 -132 -30 -19 -49 -22 -102 -21 -46 2 -85 -4 -126 -18 -41
-14 -72 -19 -97 -15 -53 9 -140 -12 -190 -45 -24 -16 -54 -30 -68 -30 -14 0
-31 -4 -39 -9 -19 -12 -5 -30 18 -24 22 6 51 -30 51 -63 0 -12 18 -48 40 -80
33 -48 40 -68 40 -106 0 -26 -5 -59 -10 -74 -14 -36 -7 -55 45 -115 24 -29 52
-71 62 -95 18 -44 43 -59 43 -26 0 21 -57 118 -95 164 -14 17 -24 33 -21 35 8
9 66 -28 113 -72 53 -50 68 -56 58 -22 -10 31 -72 93 -109 108 -17 7 -32 13
-34 14 -1 1 9 26 23 56 15 32 25 72 25 99 l0 45 97 0 c89 0 104 3 166 32 37
18 74 29 83 26 26 -10 106 -132 144 -221 37 -85 55 -107 66 -79 6 16 -55 152
-110 246 l-36 63 31 -23 c39 -27 84 -90 111 -151 20 -46 48 -65 48 -32 0 30
-62 133 -121 201 -32 37 -59 72 -59 77 0 4 14 24 31 44 34 39 68 106 69 135 0
26 24 31 59 13 34 -18 50 -20 70 -7 21 13 -55 101 -87 101 -33 0 -20 14 27 30
49 16 106 62 127 102 25 49 3 48 -48 -3z"/>
<path d="M18270 15088 c-123 -44 -209 -116 -374 -318 -109 -133 -116 -175 -20
-133 41 18 229 23 464 14 l106 -5 77 38 c79 40 137 92 137 126 0 35 21 33 107
-10 68 -34 87 -39 94 -29 5 8 7 19 6 24 -4 13 -112 72 -159 86 -36 12 -38 13
-32 49 10 63 -17 104 -94 142 -56 28 -77 33 -156 35 -75 3 -103 0 -156 -19z
m253 -45 c56 -17 107 -57 107 -83 0 -58 -35 -59 -65 -2 -23 42 -77 82 -112 82
-21 0 -19 -4 22 -43 25 -24 45 -49 45 -55 0 -18 -77 -15 -83 3 -9 22 -83 55
-138 62 -27 3 -49 3 -49 -1 0 -3 30 -20 68 -38 l67 -32 -55 -11 c-43 -9 -62
-8 -87 2 -38 15 -99 17 -108 3 -3 -5 14 -14 37 -21 l43 -11 -60 -25 c-33 -14
-76 -29 -95 -32 -19 -4 -34 -12 -33 -18 1 -5 -9 -15 -23 -22 -23 -10 -22 -7
12 35 59 72 153 150 219 184 98 50 182 57 288 23z m-13 -163 c12 -7 7 -19 -29
-70 -23 -34 -41 -63 -38 -66 8 -9 88 57 109 91 26 40 61 44 66 9 5 -32 -40
-77 -114 -115 l-68 -34 -245 3 c-136 2 -247 5 -248 6 -1 1 18 14 43 29 42 25
45 26 39 7 -3 -11 -3 -20 0 -20 18 0 64 36 79 61 11 18 35 35 69 47 28 11 54
18 55 17 2 -2 -11 -31 -29 -64 -17 -34 -30 -64 -27 -67 12 -12 77 59 96 105
22 49 39 61 90 61 29 0 28 -13 -8 -77 -16 -29 -30 -58 -30 -65 0 -20 77 62
102 108 24 45 53 57 88 34z"/>
<path d="M21475 15079 c-10 -30 16 -53 93 -85 94 -39 102 -47 71 -80 -13 -14
-70 -64 -126 -111 -56 -46 -127 -116 -158 -154 -63 -78 -90 -95 -192 -120
-118 -30 -187 -86 -265 -220 -44 -73 -46 -84 -18 -99 25 -13 36 -7 60 32 17
28 18 29 31 11 8 -11 39 -38 69 -62 65 -50 130 -126 130 -152 0 -20 -22 -46
-55 -65 -17 -9 -10 -17 60 -64 111 -74 162 -116 196 -163 21 -29 29 -35 29
-21 0 32 -57 121 -101 156 -22 18 -52 42 -67 54 -19 16 -25 29 -23 55 6 82 4
106 -12 139 l-17 35 29 -32 c33 -36 52 -92 45 -132 -6 -33 -1 -40 66 -84 30
-20 77 -59 105 -86 45 -47 72 -61 88 -45 10 10 -80 110 -134 148 -64 47 -81
76 -90 152 -5 35 -17 81 -29 103 -19 39 -20 41 -2 59 10 10 87 58 171 107 123
70 160 97 184 132 21 29 38 43 53 43 53 0 253 -78 387 -151 59 -32 87 -30 74
5 -7 17 -161 93 -281 137 -43 17 -90 36 -105 44 -24 13 -19 14 69 15 95 0 202
-16 294 -45 27 -8 51 -13 53 -11 2 2 -4 13 -14 24 -27 32 -148 60 -308 73
-181 15 -226 38 -209 106 8 30 59 116 105 174 27 34 31 36 74 31 79 -8 104 42
38 77 -21 10 -51 33 -67 50 -34 36 -65 39 -116 12 -34 -19 -35 -19 -82 5 -59
30 -94 31 -103 3z"/>
<path d="M15272 14815 c-33 -51 -60 -61 -125 -45 -89 21 -101 11 -85 -74 2
-16 -6 -22 -42 -31 -86 -21 -88 -77 -9 -222 21 -40 39 -77 39 -83 0 -6 -16
-20 -35 -31 -44 -26 -45 -51 -5 -144 42 -101 41 -109 -17 -101 l-48 6 35 -19
c39 -23 115 -27 127 -8 4 6 10 40 14 75 7 70 28 101 82 123 71 28 86 72 45
137 -21 34 -21 35 -2 48 45 31 47 35 40 90 -10 89 27 148 121 190 45 20 83 57
71 70 -3 2 -23 -3 -46 -12 -55 -22 -88 -12 -109 31 -9 19 -19 35 -22 35 -3 0
-16 -16 -29 -35z"/>
<path d="M22592 14755 c-49 -92 -117 -175 -277 -345 -166 -174 -219 -244 -269
-351 -32 -67 -62 -189 -47 -189 4 0 19 28 34 63 36 83 120 193 263 345 212
224 281 322 319 455 24 82 14 91 -23 22z"/>
<path d="M11534 14734 c-88 -53 -184 -153 -184 -192 0 -15 3 -15 123 4 43 7
58 -3 92 -57 13 -20 38 -42 55 -49 25 -10 30 -17 25 -34 -3 -12 -9 -38 -12
-58 -5 -34 -3 -38 21 -44 36 -9 40 -2 21 35 -15 31 -15 31 10 43 19 8 28 9 33
1 11 -16 84 -53 107 -53 59 0 59 -57 -1 -144 -25 -37 -48 -83 -51 -102 -6 -34
-5 -35 23 -28 50 12 70 32 115 116 46 84 61 85 40 3 -13 -54 -14 -145 -2 -145
6 0 26 35 46 78 107 227 103 223 180 155 55 -49 255 -162 255 -145 0 27 -66
82 -230 192 -98 66 -209 142 -245 170 -81 61 -115 79 -222 115 -46 15 -83 30
-83 32 0 2 7 17 15 32 17 33 12 41 -27 41 -25 0 -27 2 -18 19 31 60 -2 65 -86
15z"/>
<path d="M18760 14649 c-72 -32 -160 -49 -308 -58 -75 -5 -145 -12 -155 -16
-9 -4 -25 -26 -36 -49 -21 -47 -42 -59 -136 -76 -42 -7 -70 -19 -95 -40 -19
-17 -52 -43 -72 -58 -25 -18 -37 -34 -35 -47 4 -36 33 -26 101 35 36 33 74 60
84 60 12 0 8 -7 -15 -25 -45 -36 -93 -113 -93 -149 l1 -31 22 29 c84 109 112
125 252 147 38 6 80 15 92 20 17 6 39 0 89 -23 85 -40 181 -43 258 -10 60 27
70 27 104 2 15 -11 61 -34 102 -51 41 -16 103 -48 136 -70 92 -60 179 -66 107
-8 l-28 22 25 -7 c58 -18 83 -19 78 -5 -5 17 -127 98 -239 159 -80 43 -88 64
-16 41 17 -6 68 -16 112 -22 44 -6 101 -20 127 -31 39 -17 51 -18 63 -8 25 21
17 41 -40 96 -59 57 -67 83 -39 122 19 27 5 29 -19 2 -21 -25 -34 -25 -76 1
-40 24 -49 19 -30 -18 7 -16 15 -31 17 -36 6 -13 -98 32 -184 79 -45 24 -87
44 -95 43 -8 0 -34 -9 -59 -20z"/>
<path d="M12893 14558 c-44 -55 -55 -121 -43 -248 29 -303 155 -613 357 -874
56 -73 51 -77 -77 -78 -3 0 -23 3 -44 6 l-39 7 6 -67 c5 -72 9 -78 99 -147 20
-16 20 -17 3 -12 -38 12 -120 16 -135 6 -12 -8 -11 -14 9 -35 27 -29 57 -40
151 -56 79 -14 116 -33 50 -25 -25 2 -121 12 -215 20 -93 8 -187 17 -207 20
-36 5 -38 4 -38 -24 0 -26 5 -31 48 -45 83 -27 134 -35 330 -51 316 -25 348
-36 386 -126 20 -47 56 -292 56 -376 -1 -165 -26 -234 -92 -247 -44 -9 -58
-24 -58 -63 0 -52 -23 -95 -75 -141 -55 -48 -65 -51 -65 -18 0 13 -32 115 -72
227 -81 233 -98 296 -88 325 11 30 94 100 171 144 74 44 85 54 94 93 7 25 5
27 -21 27 -16 0 -78 -25 -139 -55 -125 -62 -202 -85 -290 -85 -273 0 -580
-101 -889 -289 -38 -23 -74 -40 -82 -37 -7 3 -17 20 -22 37 -17 68 -65 64 -83
-6 -6 -25 -15 -47 -19 -50 -4 -2 -17 18 -30 45 -18 39 -29 50 -47 50 -35 0
-37 -19 -13 -117 20 -77 22 -103 16 -208 -13 -224 -15 -200 19 -200 27 0 31 5
55 70 60 162 139 264 240 309 72 33 106 29 116 -11 4 -15 -1 -120 -11 -233
-16 -191 -16 -208 -1 -244 11 -26 20 -36 26 -30 21 21 52 182 69 360 15 158
20 189 36 200 28 21 60 17 93 -11 41 -34 192 -230 268 -346 34 -53 70 -99 79
-103 20 -7 55 10 55 27 0 7 -20 57 -45 112 -49 108 -55 154 -27 197 26 40 191
217 219 235 23 15 26 15 47 -8 12 -13 51 -94 86 -179 97 -235 119 -282 140
-287 14 -4 2 -16 -53 -54 -40 -26 -126 -96 -192 -155 -139 -124 -214 -182
-299 -229 -103 -58 -133 -98 -216 -293 -47 -110 -51 -125 -40 -151 12 -30 48
-68 90 -94 l25 -16 0 93 c0 90 1 94 37 148 39 60 220 224 384 349 192 147 517
355 570 365 45 8 65 -6 130 -91 31 -42 126 -142 211 -223 85 -81 191 -194 236
-251 88 -110 162 -173 267 -226 81 -40 188 -80 196 -72 4 3 4 17 0 31 -4 17
-33 42 -94 82 -117 76 -301 262 -478 484 -76 96 -171 208 -210 250 l-71 76 -6
95 c-3 52 -17 148 -31 214 -14 66 -26 145 -26 175 0 65 20 148 44 184 21 32
32 28 128 -55 36 -31 76 -60 87 -64 29 -9 73 15 90 49 12 26 11 33 -6 70 -11
23 -64 87 -117 144 -53 57 -108 127 -123 155 -34 67 -41 172 -19 277 19 92 42
424 32 463 -8 32 -55 57 -106 57 -47 0 -80 39 -80 92 1 103 31 156 100 177 23
7 47 23 57 37 14 23 15 33 5 84 -7 33 -10 82 -6 113 6 49 4 56 -17 71 -59 41
-147 7 -243 -94 -82 -87 -91 -119 -50 -187 64 -103 64 -105 64 -189 0 -96 -13
-114 -87 -121 -63 -6 -93 17 -140 111 -19 39 -88 166 -151 281 -64 116 -140
264 -170 330 -60 134 -64 141 -79 123z m202 -498 c134 -251 188 -393 209 -550
l6 -45 -36 40 c-172 193 -335 577 -334 787 l1 63 30 -60 c17 -33 73 -139 124
-235z m-196 -1554 c18 -22 6 -38 -122 -163 -74 -74 -121 -113 -135 -113 -22 0
-138 112 -156 151 -15 32 8 67 51 78 220 58 340 73 362 47z"/>
<path d="M12262 14438 c-19 -19 -15 -50 6 -46 28 7 89 -29 96 -56 10 -39 54
-85 93 -95 28 -8 54 -6 107 6 66 15 72 14 103 -2 18 -10 35 -16 38 -14 2 3 -5
36 -18 74 -19 61 -27 72 -62 92 -32 18 -56 23 -116 23 -42 0 -90 -5 -107 -11
-26 -9 -36 -7 -71 15 -46 29 -52 31 -69 14z"/>
<path d="M21770 14358 c-63 -100 -80 -135 -80 -167 l0 -35 -28 27 -29 27 -26
-52 c-15 -30 -27 -69 -27 -88 0 -41 29 -94 61 -111 32 -17 186 -24 236 -10 93
25 123 130 66 231 l-26 47 -22 -25 -22 -26 -31 35 c-38 41 -55 89 -50 135 5
40 -1 43 -22 12z"/>
<path d="M18670 14211 c0 -6 11 -37 24 -69 72 -174 99 -315 99 -517 0 -179 -8
-248 -78 -635 -29 -162 -56 -317 -61 -345 l-7 -50 -10 45 c-5 25 -26 106 -47
180 -82 293 -76 413 32 578 39 60 43 72 43 127 -1 52 -7 71 -45 143 -58 109
-68 117 -141 117 -49 -1 -64 -5 -96 -31 -21 -17 -51 -56 -68 -89 -28 -56 -30
-68 -29 -165 0 -82 5 -118 22 -164 36 -97 24 -172 -42 -259 -35 -47 -174 -303
-191 -354 -20 -60 -19 -126 4 -171 24 -46 41 -62 116 -104 35 -20 67 -47 78
-66 l19 -32 -36 -112 c-44 -137 -69 -271 -96 -528 -12 -107 -30 -249 -41 -315
-10 -66 -19 -158 -19 -205 0 -85 19 -193 38 -212 6 -6 21 62 41 194 18 112 58
367 90 568 57 364 58 365 81 362 13 -1 26 -5 29 -8 3 -3 4 -101 1 -217 -10
-467 -6 -634 18 -729 24 -96 66 -196 114 -272 27 -42 33 -46 39 -30 5 10 22
107 39 214 40 247 38 242 58 199 11 -24 17 -87 22 -219 4 -102 8 -187 9 -190
0 -2 7 2 13 8 10 10 14 108 19 385 l5 372 68 204 c136 412 189 727 202 1201
13 466 -43 775 -186 1020 -44 76 -130 189 -130 171z m195 -1196 c-3 -143 -13
-281 -25 -365 l-19 -135 4 120 c3 66 7 251 11 410 3 160 8 297 11 305 15 38
24 -125 18 -335z m-325 -518 c54 -117 71 -193 77 -342 7 -164 -8 -264 -86
-568 l-58 -229 -6 622 c-4 342 -4 626 -1 632 8 13 29 -19 74 -115z"/>
<path d="M17851 14143 c-26 -92 -4 -300 41 -390 13 -25 54 -78 91 -117 45 -47
66 -75 61 -86 -3 -8 -19 -55 -35 -105 -16 -49 -38 -103 -50 -118 -25 -35 -17
-47 19 -26 38 21 70 73 95 156 20 66 37 87 51 65 12 -20 -14 -145 -43 -201
-21 -41 -26 -61 -18 -61 36 0 96 108 97 172 0 25 7 44 21 57 20 18 21 24 10
65 -8 33 -8 58 -1 88 6 24 15 101 20 172 6 71 15 146 21 167 15 47 5 84 -26
105 -32 21 -66 12 -86 -24 -14 -24 -21 -28 -50 -24 -34 3 -34 3 -51 -57 -22
-74 -22 -103 -3 -141 15 -29 15 -30 -16 -45 -48 -26 -71 -16 -99 40 -22 45
-25 61 -24 160 1 61 3 125 5 144 6 48 -17 51 -30 4z m275 -400 c-15 -105 -43
-146 -85 -124 -27 15 -94 108 -86 121 3 5 30 10 58 10 34 0 62 7 82 19 17 11
32 20 34 20 2 1 0 -20 -3 -46z"/>
<path d="M13830 14146 c0 -14 87 -93 175 -160 73 -55 87 -80 80 -144 -4 -43
-1 -61 20 -102 14 -27 25 -56 25 -64 0 -8 -16 -45 -35 -83 -19 -37 -35 -74
-35 -81 0 -7 -21 -33 -47 -58 l-48 -45 0 -107 c0 -125 -4 -135 -101 -254 -35
-42 -64 -82 -64 -87 0 -19 41 -33 76 -26 37 6 41 15 22 45 -11 18 -6 27 53 87
87 90 99 109 99 162 l0 45 55 -54 c30 -30 55 -59 55 -66 0 -6 -9 -19 -20 -29
-11 -10 -29 -42 -40 -72 -11 -30 -32 -71 -47 -90 -37 -48 -36 -93 2 -133 16
-16 32 -30 36 -30 4 0 5 24 2 53 -7 67 4 88 96 190 54 60 71 85 71 107 0 35
-2 35 105 13 78 -16 84 -16 109 0 63 42 42 109 -53 168 -87 55 -108 75 -137
132 -45 88 -41 178 12 259 27 42 30 89 10 153 -13 43 -19 45 -83 30 -28 -6
-37 -3 -66 26 -19 19 -36 40 -38 47 -2 7 -17 15 -31 16 -15 2 -52 23 -83 47
-81 65 -157 119 -167 119 -4 0 -8 -6 -8 -14z m397 -781 c26 -11 35 -23 46 -62
13 -43 17 -48 43 -48 25 0 29 4 32 32 l3 32 55 -36 c41 -27 54 -42 52 -57 -7
-46 -129 -25 -283 48 -108 51 -121 63 -99 95 15 20 21 22 68 16 28 -4 65 -13
83 -20z"/>
<path d="M12374 13941 c3 -4 0 -34 -6 -64 -11 -52 -10 -59 8 -84 57 -77 51
-92 -38 -103 -55 -7 -77 -16 -154 -67 -76 -50 -89 -63 -86 -84 2 -13 3 -60 2
-104 -1 -127 33 -146 50 -27 4 33 13 70 20 82 38 70 146 150 205 150 28 0 66
-16 77 -34 4 -6 7 -33 7 -61 -1 -50 -1 -50 -9 -12 -4 21 -13 43 -20 50 -16 15
-7 -106 17 -234 9 -47 13 -97 10 -111 -10 -40 -45 -76 -112 -119 -142 -89
-204 -201 -229 -406 -6 -44 -4 -55 14 -73 32 -32 50 -27 39 12 -13 46 -11 58
6 58 35 0 75 34 179 150 59 67 111 119 114 115 3 -3 13 -60 21 -127 10 -76 21
-123 29 -126 6 -2 12 3 12 12 0 25 17 19 24 -9 8 -30 38 -47 74 -43 25 3 27 6
25 43 -4 98 -20 222 -31 242 -27 50 3 114 70 149 35 18 29 26 -27 44 -63 20
-64 22 -44 97 21 75 25 201 8 272 -5 25 -23 76 -40 113 -29 67 -29 69 -13 103
31 65 118 94 182 61 15 -8 56 -46 90 -85 69 -77 106 -96 129 -66 22 32 16 64
-14 76 -16 5 -57 40 -93 78 -92 95 -129 99 -247 27 -32 -19 -71 -38 -87 -42
l-28 -7 7 51 c8 63 2 86 -31 100 -29 14 -118 16 -110 3z"/>
<path d="M21647 13853 c-2 -4 10 -91 29 -193 44 -247 45 -234 -13 -226 -103
14 -470 105 -502 125 -10 7 -10 13 -2 29 10 18 17 20 61 15 l50 -6 0 30 c0 17
-5 44 -11 61 -6 17 -11 46 -12 63 -3 44 -39 69 -112 76 -55 6 -58 5 -51 -13
15 -36 12 -209 -3 -228 -8 -10 -49 -35 -91 -56 -135 -68 -203 -127 -353 -305
-55 -66 -133 -154 -172 -195 -39 -41 -76 -88 -82 -105 -6 -16 -16 -104 -22
-195 -11 -171 -35 -300 -57 -300 -46 0 -188 291 -189 389 0 61 -20 72 -77 44
-24 -12 -63 -24 -87 -28 -42 -7 -43 -8 -37 -38 10 -48 25 -60 67 -53 47 7 61
-6 84 -76 10 -29 40 -111 67 -181 45 -115 56 -134 112 -192 78 -83 101 -85
151 -17 46 63 71 131 104 285 16 74 36 139 47 154 13 17 64 44 154 83 74 31
198 84 275 117 77 33 173 72 213 87 l74 26 -21 -33 c-11 -19 -45 -83 -75 -143
-59 -121 -120 -222 -144 -241 -9 -7 -26 -13 -38 -13 -34 0 -47 -22 -32 -56 6
-16 21 -56 32 -89 18 -52 24 -60 46 -60 23 0 25 4 26 52 2 49 6 57 55 110 84
92 162 204 213 303 26 51 58 108 71 128 35 51 34 110 -1 143 -22 21 -35 24
-97 23 -59 0 -99 -9 -222 -51 -215 -73 -222 -74 -150 -20 77 57 142 126 197
207 l45 65 49 -1 c98 -2 505 -61 519 -75 8 -8 30 -93 50 -189 44 -212 41 -200
60 -200 18 0 17 -6 44 135 49 254 15 425 -143 715 -56 104 -85 136 -99 113z
m131 -285 c54 -112 82 -213 89 -329 6 -96 -10 -210 -28 -192 -9 10 -60 250
-88 423 -12 69 -24 140 -27 158 -8 51 9 32 54 -60z"/>
<path d="M20383 13379 c-24 -28 -43 -55 -43 -60 0 -5 -24 -9 -53 -9 -52 0
-161 -31 -224 -63 -33 -18 -75 -63 -98 -107 -10 -20 -12 -50 -8 -118 3 -51 9
-92 13 -92 5 0 23 15 42 34 36 36 64 46 181 64 37 6 79 18 93 26 45 30 74 88
83 165 6 62 11 75 41 106 19 19 42 35 52 35 30 0 34 31 9 52 -13 10 -28 18
-35 18 -6 0 -30 -23 -53 -51z"/>
<path d="M11920 13376 c0 -8 4 -18 10 -21 5 -3 19 -35 30 -71 32 -105 28 -209
-17 -386 -20 -81 -34 -151 -29 -155 4 -4 28 15 52 42 96 110 144 252 125 372
-13 81 -55 159 -109 200 -48 36 -62 40 -62 19z"/>
<path d="M14984 13295 c-12 -31 5 -207 27 -272 19 -58 81 -144 94 -131 3 3 -2
22 -10 42 -9 21 -27 90 -40 154 -21 103 -50 209 -61 221 -2 2 -7 -4 -10 -14z"/>
<path d="M14514 12845 c-5 -11 -9 -87 -8 -170 1 -138 4 -161 37 -286 117 -445
383 -883 575 -947 52 -18 40 10 -26 61 -130 101 -264 271 -354 454 -28 57 -38
87 -31 94 5 5 59 16 119 24 140 19 262 44 295 61 14 7 34 24 43 38 9 15 23 26
31 26 20 0 29 -43 15 -71 -7 -12 -18 -48 -26 -78 -15 -67 -6 -91 35 -91 24 0
35 9 61 50 18 28 35 50 38 50 12 0 122 -89 191 -154 79 -76 241 -254 241 -265
0 -3 -35 -42 -78 -86 -87 -90 -274 -331 -312 -401 -39 -75 -38 -145 5 -414 21
-129 39 -241 41 -247 5 -19 50 -16 70 4 15 16 16 36 10 210 -7 183 -16 243
-47 322 -12 29 -12 35 1 43 49 29 178 111 196 124 22 15 22 15 17 -49 -7 -85
8 -171 63 -352 25 -82 49 -161 53 -174 9 -30 33 -46 56 -37 16 6 17 18 11 139
-8 146 -25 237 -57 299 l-21 41 23 31 c67 89 92 137 120 230 18 55 40 113 51
128 32 46 58 112 58 149 0 64 -43 127 -187 274 -133 135 -250 283 -294 373
-32 65 -28 103 20 174 51 76 52 101 5 144 -51 48 -79 45 -106 -11 -12 -25 -25
-45 -28 -45 -4 0 -25 17 -47 39 -38 36 -76 51 -128 51 -33 0 -55 40 -64 117
-9 77 -24 93 -88 93 -38 0 -46 -4 -63 -32 -11 -19 -20 -51 -20 -75 0 -34 5
-46 31 -67 17 -14 36 -26 44 -26 29 0 36 -26 19 -69 -20 -50 -49 -72 -140
-106 -132 -50 -325 -191 -311 -228 12 -31 34 -29 87 9 55 40 280 124 330 124
40 0 55 -29 40 -76 -6 -19 -21 -39 -33 -46 -25 -13 -341 -88 -373 -88 -11 0
-29 9 -39 20 -32 35 -119 435 -133 615 -6 74 -11 95 -18 80z"/>
<path d="M21883 12809 c-35 -10 -42 -33 -22 -70 9 -18 5 -26 -32 -57 -24 -20
-70 -62 -104 -92 -72 -66 -103 -89 -215 -159 -47 -29 -107 -68 -135 -87 -46
-33 -53 -35 -95 -28 -25 4 -90 8 -145 9 -55 1 -118 5 -141 9 -30 6 -49 4 -70
-7 -16 -8 -134 -115 -261 -237 -200 -190 -233 -226 -233 -251 0 -16 3 -29 6
-29 4 0 45 35 92 78 143 130 162 143 85 54 -65 -74 -123 -162 -107 -162 15 0
77 51 164 135 62 60 117 103 157 124 34 17 83 44 109 61 59 37 91 38 186 4
140 -50 226 -102 330 -201 87 -82 176 -143 208 -143 21 0 -35 83 -90 133 -30
27 -44 44 -30 37 37 -19 175 -117 190 -135 27 -32 75 -7 68 36 -2 16 -22 32
-73 58 -85 44 -193 120 -257 182 -65 62 -64 86 5 153 154 150 448 421 468 432
13 7 40 13 60 14 68 0 77 49 15 75 -19 8 -38 25 -42 37 -12 39 -31 44 -91 27z"/>
<path d="M11441 12360 c-67 -130 -154 -241 -356 -450 -237 -246 -322 -353
-393 -495 -43 -86 -67 -160 -78 -240 -7 -58 4 -53 30 15 45 115 149 258 329
451 301 320 356 390 427 529 43 85 84 210 78 237 -3 12 -15 -3 -37 -47z"/>
<path d="M22311 12342 c-83 -32 -62 -55 36 -39 76 13 93 3 93 -56 0 -42 -33
-163 -56 -209 -21 -40 -48 -36 -173 22 -59 28 -118 50 -130 50 -12 0 -38 15
-57 34 -35 34 -35 34 -12 41 42 13 58 35 58 80 0 55 -24 77 -76 73 -31 -2 -42
-9 -52 -31 -16 -33 -8 -81 19 -108 17 -17 17 -18 -1 -24 -11 -3 -27 -21 -35
-39 -9 -18 -36 -47 -60 -64 -39 -27 -45 -36 -45 -67 0 -39 28 -75 60 -75 11 0
20 -1 20 -2 0 -2 -9 -49 -20 -106 -23 -117 -25 -191 -8 -273 11 -54 10 -61
-20 -137 -49 -124 -62 -186 -62 -298 0 -93 -2 -106 -30 -157 -39 -74 -45 -120
-30 -230 15 -109 29 -137 69 -137 67 0 76 30 15 50 l-34 12 0 84 c0 60 10 125
35 231 19 82 42 191 51 243 22 130 39 160 94 160 40 0 140 -112 140 -157 0
-15 -24 -50 -70 -99 -74 -80 -87 -117 -56 -159 13 -18 14 -17 20 12 7 31 35
60 118 126 104 83 83 157 -103 352 -90 95 -104 129 -96 229 6 74 42 222 58
242 5 7 60 15 127 19 64 4 146 10 180 14 47 6 65 4 69 -4 6 -17 -43 -269 -62
-321 -18 -49 -47 -77 -99 -99 -30 -13 -36 -19 -25 -26 30 -19 78 -10 113 22
44 38 68 103 96 250 26 143 37 177 60 189 27 15 253 40 356 40 76 0 93 3 98
16 4 9 5 19 2 21 -2 3 -102 0 -222 -6 -120 -6 -220 -8 -223 -5 -3 3 7 52 22
109 34 130 35 168 2 200 -29 30 -87 33 -154 7z"/>
<path d="M14130 12284 c-126 -40 -162 -85 -168 -213 -3 -75 0 -92 20 -131 33
-65 87 -90 193 -90 181 0 279 109 246 272 -30 143 -146 208 -291 162z m154
-85 c57 -44 78 -148 43 -203 -55 -83 -247 -90 -277 -10 -22 56 -4 168 30 189
27 17 117 44 146 45 17 0 43 -9 58 -21z"/>
<path d="M20342 12094 c-171 -46 -322 -178 -368 -323 -19 -60 -15 -162 7 -202
13 -22 14 -19 20 51 4 53 15 93 35 134 57 116 222 253 376 312 40 15 77 31 83
36 15 13 -96 8 -153 -8z"/>
<path d="M21052 11885 c9 -81 48 -354 63 -434 18 -94 60 -182 119 -251 26 -30
54 -68 62 -83 13 -25 71 -199 265 -799 24 -76 46 -138 49 -138 3 0 11 4 18 9
10 6 -9 75 -87 314 -55 169 -120 389 -145 489 -24 101 -61 253 -81 338 -21 85
-51 193 -67 240 -39 111 -141 310 -174 341 l-27 24 5 -50z"/>
<path d="M12013 11793 c-34 -54 -37 -56 -46 -35 -13 29 -37 28 -37 0 -1 -21
-2 -22 -14 -5 -22 29 -39 21 -32 -15 l6 -32 -29 28 c-55 53 -113 6 -61 -49 12
-13 21 -28 19 -33 -2 -5 -24 -25 -49 -43 -38 -29 -55 -55 -110 -165 -80 -162
-121 -216 -230 -305 -124 -101 -129 -103 -281 -95 l-128 7 -73 -33 -73 -33
-200 -1 c-164 -1 -219 -5 -303 -22 -57 -12 -111 -26 -121 -31 -27 -15 -101
-99 -101 -115 0 -47 34 -63 44 -20 7 28 36 77 42 71 3 -2 -3 -20 -11 -40 -21
-51 -19 -159 5 -245 l20 -73 -86 -162 c-47 -89 -104 -186 -127 -216 -76 -97
-78 -101 -76 -171 1 -42 -4 -76 -13 -95 -9 -17 -19 -50 -23 -75 -5 -31 -18
-55 -42 -79 -30 -30 -33 -39 -28 -70 4 -22 0 -53 -10 -81 -24 -67 -57 -221
-50 -237 3 -8 15 -13 27 -11 18 2 23 10 25 38 3 42 21 122 22 98 2 -39 19 -15
31 44 34 175 182 488 387 821 95 152 112 165 140 100 30 -73 -5 -252 -74 -369
-36 -64 -39 -122 -10 -249 51 -221 68 -322 74 -437 l6 -118 32 0 33 0 -9 42
c-10 43 -4 94 13 115 7 8 5 28 -5 60 -20 61 -50 305 -50 403 0 51 6 92 20 130
22 61 222 442 246 471 18 20 25 19 140 -25 37 -14 75 -26 85 -26 9 0 33 -5 53
-10 41 -12 52 -31 70 -121 8 -45 20 -73 39 -94 47 -50 86 -121 120 -215 22
-62 40 -94 57 -105 31 -21 53 -72 53 -124 0 -29 7 -47 23 -63 40 -38 105 -141
112 -176 8 -39 65 -102 92 -102 30 0 50 27 35 48 -7 10 -24 39 -40 66 -15 27
-42 66 -60 87 -19 22 -53 87 -81 157 -27 67 -76 163 -111 216 -85 131 -121
232 -90 251 19 12 74 -41 120 -115 25 -40 78 -106 117 -146 52 -53 84 -96 114
-156 23 -46 64 -116 91 -157 60 -87 78 -140 54 -153 -20 -11 -21 -34 -2 -41
22 -9 116 23 116 39 0 29 -28 80 -74 134 -26 30 -68 96 -93 147 -26 50 -70
118 -98 150 -29 32 -62 77 -73 100 -12 23 -26 44 -32 48 -6 3 -26 30 -44 60
-19 29 -50 68 -69 85 -47 43 -62 80 -52 133 5 23 9 85 10 137 0 52 4 103 9
112 4 9 66 55 137 103 149 99 177 136 205 265 25 119 71 244 142 390 72 146
86 159 129 118 22 -21 36 -24 141 -28 97 -4 126 -9 166 -29 55 -27 79 -21 84
20 2 19 -7 33 -37 57 -22 18 -66 64 -98 103 -54 65 -60 70 -89 65 -44 -9 -47
1 -13 47 28 39 37 85 23 121 -11 30 -34 16 -71 -41z"/>
<path d="M11285 11793 c0 -23 -7 -32 -37 -46 -32 -16 -46 -34 -89 -117 -48
-95 -52 -99 -86 -102 -29 -2 -44 -13 -81 -55 -38 -46 -42 -53 -24 -53 11 0 34
11 50 25 34 28 92 34 111 11 10 -12 4 -21 -29 -47 -56 -45 -68 -89 -45 -164
15 -47 16 -63 7 -88 -15 -40 -11 -43 22 -11 25 25 26 32 24 104 -4 93 6 108
97 152 33 15 82 44 109 63 27 20 54 34 60 32 6 -2 17 -16 24 -30 9 -18 21 -27
37 -27 21 0 26 6 31 40 6 37 9 40 39 40 33 0 65 25 65 52 0 30 -28 41 -90 35
-58 -5 -61 -4 -75 22 -19 38 -11 43 101 77 52 16 94 31 94 34 0 3 -16 16 -35
29 -48 32 -106 41 -183 28 -57 -9 -66 -8 -77 6 -17 23 -21 21 -20 -10z m39
-93 c-1 -14 -5 -36 -9 -49 -7 -21 -6 -22 14 -12 27 15 36 9 50 -30 9 -27 8
-32 -9 -36 -11 -3 -20 -14 -20 -24 0 -12 -15 -26 -42 -40 -34 -17 -52 -20 -96
-15 -80 10 -90 18 -55 47 38 32 53 55 29 46 -16 -6 -16 -4 1 25 10 17 37 51
60 76 46 49 79 54 77 12z"/>
<path d="M12457 11744 c-31 -9 -65 -31 -93 -59 -46 -46 -58 -73 -26 -59 103
45 158 56 252 51 52 -4 110 -9 129 -13 54 -11 34 16 -40 54 -78 40 -152 49
-222 26z"/>
<path d="M14530 11754 c0 -18 73 -131 132 -204 107 -129 236 -211 369 -234
l74 -12 -47 -19 c-37 -13 -65 -16 -120 -13 -108 8 -189 44 -325 144 -33 24
-28 4 11 -48 41 -53 121 -109 189 -132 61 -20 176 -21 225 0 36 15 92 60 92
75 0 4 -24 15 -52 25 -143 46 -244 118 -420 298 -70 72 -128 126 -128 120z"/>
<path d="M22535 11523 c-68 -35 -180 -174 -215 -267 -15 -40 3 -84 39 -92 76
-17 90 -25 101 -60 23 -68 -9 -134 -65 -134 -36 0 -119 -47 -162 -91 -60 -63
-122 -170 -304 -530 -134 -266 -167 -322 -200 -348 -44 -36 -52 -76 -20 -105
17 -16 22 -13 99 68 51 54 130 160 216 288 134 202 190 278 198 268 7 -8 107
-456 129 -575 23 -121 31 -371 15 -462 -11 -65 1 -83 53 -83 33 0 38 -3 46
-32 7 -23 21 -38 45 -50 181 -89 193 -92 247 -58 38 23 50 43 59 98 15 95 -36
190 -135 251 -28 16 -55 40 -62 53 -18 32 -25 398 -10 526 12 105 60 302 85
350 22 42 42 55 72 48 37 -10 229 -199 254 -251 25 -53 23 -64 -42 -213 -48
-109 -49 -114 -33 -138 32 -49 52 -31 157 136 58 91 98 166 98 181 0 15 -25
61 -63 115 -35 49 -100 145 -146 212 -99 146 -215 272 -311 337 -73 51 -94 83
-92 141 2 42 11 61 73 145 90 122 96 173 32 248 -31 37 -39 41 -81 41 -26 -1
-60 -8 -77 -17z"/>
<path d="M16445 11306 c-44 -13 -152 -51 -240 -85 -88 -35 -180 -70 -204 -78
-53 -19 -59 -14 117 -115 67 -39 122 -73 122 -76 0 -2 -38 -2 -85 2 -111 9
-152 -3 -201 -57 l-39 -42 130 -6 c186 -9 216 -21 350 -130 31 -26 111 -77
177 -115 185 -106 227 -145 313 -286 27 -43 52 -45 95 -8 l35 30 -26 22 c-18
16 -29 40 -37 80 -20 102 -56 160 -226 360 -48 56 -93 121 -114 166 -19 40
-44 79 -56 87 -12 7 -59 16 -106 19 -102 8 -190 31 -190 50 0 32 52 65 128 82
43 9 89 23 104 30 30 16 68 60 68 80 0 19 -20 17 -115 -10z"/>
<path d="M12063 11209 c-23 -29 -24 -58 -3 -98 21 -42 25 -77 12 -98 -12 -19
-59 -33 -108 -33 -91 0 -100 -23 -59 -153 30 -94 31 -108 5 -182 -24 -70 -24
-75 -5 -75 8 0 24 -9 35 -20 16 -16 20 -33 20 -95 0 -63 -3 -76 -19 -85 -32
-16 -53 -13 -47 8 5 14 -9 29 -61 64 -38 25 -77 51 -88 57 -17 9 -17 10 -3 11
33 0 28 20 -11 40 -81 41 -93 22 -99 -155 -3 -83 -9 -140 -18 -157 -8 -15 -14
-45 -14 -67 0 -48 38 -97 107 -137 36 -22 46 -24 59 -13 17 14 14 93 -6 159
-11 38 -14 100 -4 100 3 0 38 -29 76 -65 131 -121 285 -177 336 -122 30 32 28
56 -12 135 -101 200 -86 349 53 522 82 101 80 129 -9 188 -75 50 -75 68 -6
128 67 58 71 81 20 120 -42 32 -132 46 -151 23z"/>
<path d="M23011 11094 c-1 -43 22 -105 58 -158 17 -24 151 -168 299 -318 148
-151 289 -304 315 -340 96 -134 143 -273 163 -483 l8 -80 8 70 c11 100 -7 252
-40 350 -56 161 -146 270 -490 598 -138 130 -260 253 -272 273 -13 19 -28 54
-36 77 -12 40 -13 41 -13 11z"/>
<path d="M14860 11061 c0 -15 24 -28 82 -45 74 -21 98 -51 98 -120 0 -74 -8
-96 -35 -96 -13 0 -74 -22 -136 -50 -62 -27 -117 -50 -121 -50 -4 0 -8 18 -8
39 0 73 -27 81 -159 45 -73 -21 -161 -106 -161 -157 0 -69 71 -87 167 -42 63
29 74 22 98 -57 18 -62 19 -109 4 -193 -7 -34 -9 -79 -5 -99 11 -58 84 -129
175 -173 53 -25 100 -59 156 -111 175 -165 266 -221 290 -181 4 6 19 7 36 4
29 -7 34 0 23 29 -8 20 -37 20 -76 0 l-31 -16 -116 120 c-64 66 -132 128 -151
138 -34 16 -220 142 -220 148 0 2 19 -3 41 -11 23 -7 71 -13 108 -12 80 3 100
-6 139 -68 17 -27 56 -70 87 -97 31 -27 64 -64 73 -83 18 -37 42 -47 87 -35
48 13 40 43 -15 56 -41 10 -51 19 -108 96 -105 142 -112 149 -142 165 -17 9
-69 22 -116 30 -88 16 -194 58 -194 77 0 6 7 50 16 97 15 80 14 183 -2 225 -8
21 30 42 149 86 56 21 109 41 118 44 14 6 17 -10 22 -124 9 -168 0 -208 -59
-258 -24 -20 -44 -40 -44 -45 0 -14 50 1 82 24 53 38 61 69 63 234 1 83 5 158
9 167 9 20 64 38 114 38 18 0 42 5 53 10 39 22 18 30 -68 28 l-88 -3 -7 63
c-9 78 -32 120 -84 149 -39 23 -144 33 -144 14z"/>
<path d="M19516 11063 c-3 -4 -6 -16 -6 -28 0 -31 -11 -37 -32 -18 -16 15 -18
15 -18 0 0 -10 -5 -14 -15 -11 -20 8 -19 -5 6 -45 19 -31 19 -35 5 -66 -9 -18
-16 -46 -16 -63 0 -27 -3 -30 -40 -35 -53 -7 -210 -104 -210 -130 0 -10 5 -27
10 -38 10 -18 6 -19 -94 -19 -100 0 -111 2 -207 40 -95 38 -146 45 -136 17 2
-6 47 -26 100 -45 92 -33 97 -36 97 -63 0 -26 -5 -30 -82 -55 -70 -23 -101
-28 -197 -28 l-114 -1 -97 104 c-81 87 -96 108 -87 122 5 9 7 24 3 34 -5 14
-14 16 -44 11 -20 -3 -58 -6 -84 -6 -46 0 -47 -1 -54 -35 -10 -55 28 -82 70
-50 11 8 25 15 32 15 7 0 63 -58 125 -130 93 -109 117 -131 148 -137 55 -12
198 -6 271 10 54 13 66 13 73 2 10 -18 61 -29 84 -17 12 6 82 -2 213 -24 107
-18 212 -33 233 -33 30 -1 56 -15 130 -68 195 -141 237 -175 237 -195 0 -27
27 -33 66 -14 24 11 47 14 74 10 37 -6 40 -5 39 17 0 25 -17 72 -18 54 -1 -6
-4 -5 -9 1 -4 6 -17 14 -29 18 -16 5 -25 2 -33 -14 -6 -11 -19 -20 -29 -20
-21 0 -121 71 -246 175 -49 41 -111 86 -138 99 -26 13 -42 26 -35 28 17 6 -66
58 -92 58 -12 0 -35 7 -52 16 -39 20 -31 26 77 48 44 10 93 26 108 37 l28 20
39 -31 c21 -17 58 -37 82 -44 24 -8 89 -30 145 -50 56 -20 104 -36 107 -36 2
0 12 7 21 16 12 12 13 19 4 30 -6 8 -18 14 -25 14 -8 0 -14 5 -14 11 0 7 -9 9
-21 6 -25 -7 -121 16 -177 41 -21 9 -61 35 -88 57 -40 31 -55 51 -66 88 -14
45 -14 51 3 85 11 20 19 44 19 54 0 10 7 18 15 18 19 0 37 34 29 55 -4 8 -20
23 -36 31 -28 15 -30 19 -25 59 3 30 0 45 -8 49 -7 2 -16 2 -19 -1z"/>
<path d="M14580 10983 c-44 -40 -51 -93 -17 -127 31 -30 89 -35 125 -10 33 23
31 92 -4 133 -32 39 -64 40 -104 4z"/>
<path d="M9940 10533 c-72 -60 -82 -181 -20 -243 30 -30 38 -25 33 28 -3 26 2
89 11 141 9 52 15 96 13 98 -3 2 -19 -9 -37 -24z"/>
<path d="M18307 10448 c24 -90 10 -150 -78 -339 -32 -70 -65 -153 -74 -185
-18 -68 -19 -176 -4 -260 12 -68 87 -264 101 -264 5 0 7 8 4 18 -18 59 -46
258 -46 327 0 100 17 165 79 314 78 184 89 296 41 396 -29 60 -40 57 -23 -7z"/>
<path d="M15640 10441 c-30 -10 -73 -27 -95 -38 -57 -30 -135 -102 -151 -139
-16 -39 -30 -164 -18 -164 18 0 33 16 39 43 9 36 22 34 43 -5 9 -17 27 -43 40
-56 20 -21 21 -26 9 -41 -8 -9 -18 -34 -21 -56 -4 -22 -30 -81 -57 -132 -67
-126 -80 -188 -78 -384 1 -87 5 -162 10 -165 5 -3 9 15 9 39 0 24 9 69 19 100
37 106 37 187 1 130 -21 -34 1 29 35 102 44 92 138 226 143 203 2 -10 -14 -48
-34 -85 -22 -39 -33 -68 -27 -70 8 -3 8 -12 0 -33 -8 -22 -8 -41 0 -73 9 -30
9 -56 2 -87 -19 -80 6 -190 42 -190 34 0 36 102 4 195 -8 26 -10 47 -4 63 5
13 9 47 9 75 0 61 31 123 56 113 9 -4 28 7 48 27 17 17 56 52 85 76 33 27 61
61 73 88 10 24 21 43 24 43 2 0 30 -13 62 -29 123 -62 174 -73 352 -78 91 -3
169 -9 173 -13 5 -4 4 -57 -3 -117 -9 -83 -9 -118 0 -152 10 -39 8 -57 -16
-153 -22 -86 -25 -117 -18 -145 5 -20 14 -38 20 -40 6 -2 22 26 36 63 l25 66
17 -46 c22 -57 42 -59 51 -6 8 50 -1 107 -30 185 -18 48 -21 76 -19 143 2 45
5 86 7 90 3 4 12 30 21 58 9 28 30 64 47 80 l30 29 208 3 207 4 45 -38 c24
-20 73 -50 109 -66 36 -16 73 -33 82 -38 24 -14 62 -12 76 2 23 23 11 54 -53
133 -82 101 -105 149 -105 220 0 30 -3 55 -7 55 -19 -1 -32 -18 -38 -53 -4
-20 -12 -37 -17 -37 -22 0 -49 23 -67 59 -24 46 -44 63 -65 55 -22 -9 -20 -50
5 -90 l21 -34 -31 0 c-17 0 -54 9 -83 21 -151 59 -273 99 -300 99 -23 0 -39 9
-62 36 -76 89 -116 123 -173 144 -55 21 -75 23 -358 25 -261 2 -307 0 -355
-14z"/>
<path d="M23325 10350 c-4 -12 0 -31 9 -45 14 -22 14 -27 -4 -67 -24 -53 -24
-71 -4 -131 24 -70 38 -60 30 21 -7 64 -6 66 11 49 14 -14 18 -35 19 -95 1
-42 5 -93 9 -113 7 -39 -4 -55 -44 -61 -14 -1 -26 -9 -29 -16 -3 -10 6 -13 39
-11 38 3 45 0 56 -21 7 -14 13 -33 13 -42 0 -10 5 -18 10 -18 6 0 10 19 10 42
l0 42 25 -34 c29 -39 32 -24 8 42 l-16 46 32 79 c57 137 63 168 50 256 -16
105 -40 118 -53 30 -5 -36 -3 -43 10 -43 14 0 16 -8 11 -49 -6 -49 -43 -138
-54 -127 -3 3 -2 13 2 23 5 10 8 36 9 57 1 32 -6 47 -40 83 -33 36 -39 50 -36
75 5 33 -9 48 -45 48 -13 0 -24 -8 -28 -20z"/>
<path d="M10902 10243 c-40 -168 -46 -218 -46 -383 1 -136 5 -179 22 -243 27
-97 69 -186 122 -255 36 -47 38 -53 18 -47 -168 51 -303 256 -343 522 -8 53
-16 98 -19 100 -8 9 -26 -100 -26 -160 1 -271 210 -521 412 -490 l36 5 -34 67
c-92 182 -118 318 -116 626 0 127 4 256 7 288 10 87 -9 69 -33 -30z"/>
<path d="M21438 10248 c46 -50 74 -144 97 -332 18 -151 27 -195 56 -270 38
-102 157 -207 235 -206 29 1 29 1 -11 21 -61 30 -113 87 -151 164 -28 57 -39
103 -64 246 -28 170 -47 244 -76 301 -22 42 -74 98 -92 98 -12 0 -11 -4 6 -22z"/>
<path d="M19581 10050 c-100 -53 -186 -67 -311 -51 -117 14 -205 14 -290 0
-36 -6 -112 -17 -169 -24 l-104 -14 -32 25 c-17 13 -36 24 -42 24 -5 0 -43
-33 -84 -72 -41 -40 -113 -104 -161 -141 -90 -70 -103 -91 -72 -121 21 -22 43
-20 169 14 126 34 134 35 141 16 9 -22 -67 -143 -140 -225 -39 -43 -66 -83
-66 -95 0 -24 17 -46 35 -46 26 0 158 146 233 256 44 66 89 127 100 137 25 23
58 15 69 -16 4 -12 7 -112 5 -222 -2 -195 6 -277 31 -292 24 -15 37 32 37 132
0 56 3 171 7 255 5 125 9 156 23 170 21 21 170 50 252 50 38 0 62 -5 72 -16
27 -26 23 -33 -59 -96 -88 -66 -215 -199 -215 -223 0 -24 18 -45 37 -45 7 0
53 35 101 78 129 116 231 192 257 192 18 0 60 -46 192 -210 98 -123 175 -210
185 -210 45 0 49 9 23 60 -13 26 -43 69 -65 95 -88 102 -155 219 -201 354 -39
111 -21 148 94 205 68 33 107 73 90 90 -15 15 -74 1 -142 -34z"/>
<path d="M21900 10011 c0 -12 16 -39 36 -61 48 -53 59 -107 33 -167 -22 -52
-24 -94 -6 -112 10 -10 5 -19 -26 -44 -48 -41 -47 -64 3 -122 45 -52 45 -53
25 -102 -19 -45 -19 -97 -1 -112 17 -14 86 -27 86 -16 0 4 -10 15 -22 25 l-23
19 63 63 c34 35 62 72 62 82 0 10 -8 31 -17 48 -18 29 -18 30 7 50 14 11 49
42 78 70 75 72 81 116 19 146 -32 16 -33 23 -7 47 40 36 10 83 -45 69 -37 -9
-72 18 -85 66 -6 21 -14 42 -19 44 -12 8 -71 -14 -71 -25 0 -6 -15 1 -32 14
-53 39 -58 40 -58 18z"/>
<path d="M11922 9933 c-13 -38 -41 -106 -63 -152 -21 -46 -39 -85 -39 -87 0
-14 35 1 64 26 52 46 86 122 86 191 0 58 -7 89 -19 89 -3 0 -17 -30 -29 -67z"/>
<path d="M19766 9893 c-16 -47 -45 -127 -66 -177 -21 -50 -34 -93 -29 -94 5
-2 25 8 45 23 89 68 131 205 98 318 -10 32 -20 17 -48 -70z"/>
<path d="M10175 9907 c-10 -100 -24 -165 -61 -279 -36 -115 -41 -158 -22 -219
20 -68 104 -149 153 -149 12 0 4 15 -27 49 -44 48 -68 104 -68 154 0 14 14 68
30 119 37 113 47 221 30 312 -7 36 -16 68 -20 71 -5 3 -11 -23 -15 -58z"/>
<path d="M22738 9893 c-41 -45 -50 -65 -42 -100 6 -23 10 -25 49 -19 56 7 144
-35 223 -109 56 -52 58 -55 71 -129 25 -152 128 -293 258 -354 54 -25 66 -27
183 -25 69 0 181 4 250 8 113 6 130 5 181 -14 33 -13 77 -41 105 -66 81 -76
90 -58 50 103 -14 58 -24 125 -24 167 1 90 -20 133 -103 209 -118 109 -185
139 -378 166 -165 24 -324 25 -406 4 -33 -8 -69 -17 -80 -20 -16 -4 -24 2 -37
29 -12 25 -38 48 -95 82 -43 26 -88 60 -101 76 -32 39 -60 37 -104 -8z"/>
<path d="M9638 9865 c-3 -4 -42 -11 -85 -15 -125 -14 -182 -30 -200 -57 -9
-13 -14 -26 -11 -28 8 -8 150 -24 164 -18 27 10 63 -7 83 -41 27 -44 26 -62
-4 -98 -14 -17 -24 -32 -21 -35 7 -7 176 9 176 18 0 4 -13 17 -29 28 -44 32
-47 63 -11 116 35 50 60 60 125 51 25 -4 45 -3 45 2 0 11 -39 46 -68 61 -27
14 -154 26 -164 16z"/>
<path d="M16986 9729 c-65 -100 -83 -146 -73 -195 l4 -25 -28 27 c-16 15 -29
34 -29 41 0 33 -29 7 -60 -53 -63 -122 -39 -233 59 -277 39 -18 66 -21 176
-22 116 0 135 2 177 23 69 34 93 78 93 172 0 70 -3 79 -40 139 -22 35 -41 57
-43 50 -3 -8 -16 -26 -30 -41 l-25 -27 -28 37 c-80 104 -84 112 -84 184 0 37
-1 68 -1 68 -1 0 -31 -45 -68 -101z"/>
<path d="M15692 9668 c-7 -7 -12 -25 -12 -41 0 -25 3 -29 22 -24 36 10 128
-48 128 -80 0 -26 39 -90 74 -121 42 -36 87 -47 159 -38 152 20 160 19 200 -8
46 -31 54 -20 32 43 -8 24 -15 54 -15 67 0 56 -53 110 -137 140 -47 16 -212
18 -263 3 -34 -10 -41 -9 -61 10 -12 11 -28 21 -34 21 -7 0 -20 9 -30 20 -20
23 -45 26 -63 8z"/>
<path d="M9172 9465 c-42 -20 -56 -32 -67 -62 -9 -21 -27 -60 -41 -86 -29 -54
-26 -66 11 -49 43 20 99 14 178 -18 87 -35 143 -38 196 -10 41 20 86 67 96
100 10 31 79 62 129 58 38 -3 41 -1 44 23 5 45 -19 54 -86 34 -31 -10 -62 -22
-68 -27 -8 -5 -27 -1 -51 12 -50 26 -161 50 -233 50 -38 0 -72 -8 -108 -25z"/>
<path d="M19357 9429 c-115 -27 -197 -117 -197 -215 l0 -36 66 70 c65 71 94
89 239 152 43 19 47 23 30 30 -26 11 -90 10 -138 -1z"/>
<path d="M12940 8509 c-41 -5 -115 -20 -164 -34 -197 -56 -298 -146 -256 -226
9 -16 58 -49 74 -49 3 0 26 19 53 42 45 39 173 108 200 108 14 0 19 -17 28
-97 5 -50 5 -53 -25 -68 -41 -21 -39 -54 5 -104 l35 -38 0 -222 0 -222 -47 8
c-27 4 -70 8 -98 8 -49 0 -50 0 -48 -30 5 -71 130 -135 264 -135 175 1 396
105 540 257 102 106 129 192 90 280 -31 68 -137 118 -306 143 -44 6 -93 15
-110 19 -30 7 -30 7 34 41 35 19 85 55 111 80 70 68 73 121 11 191 -32 36 -43
41 -101 49 -77 11 -186 11 -290 -1z m369 -498 c113 -27 171 -51 171 -69 0 -28
-52 -92 -114 -141 -132 -104 -246 -170 -293 -171 l-23 0 0 206 0 207 88 -6
c49 -4 126 -15 171 -26z"/>
<path d="M17735 8509 c-51 -9 -107 -70 -131 -141 -14 -42 -16 -73 -11 -162 6
-112 59 -548 77 -641 6 -27 17 -130 25 -229 16 -197 27 -248 56 -277 24 -24
46 -24 88 2 l33 20 -8 122 c-5 67 -9 167 -9 222 l0 100 42 23 c67 37 103 76
103 111 0 20 -7 34 -19 41 -28 14 -96 12 -135 -4 -42 -17 -37 -32 -67 199 -27
206 -31 406 -9 450 22 43 51 43 89 0 33 -38 37 -62 21 -133 -14 -59 -1 -82 46
-82 49 0 91 32 105 81 15 49 1 122 -39 194 -22 41 -37 55 -82 77 -61 29 -115
38 -175 27z"/>
<path d="M10330 8485 c-26 -32 0 -353 65 -804 41 -289 48 -304 119 -309 26 -2
54 2 61 8 7 6 21 46 30 88 23 110 65 240 84 264 17 20 18 19 78 -46 79 -84
140 -174 158 -232 7 -25 19 -51 25 -59 15 -18 101 -20 118 -3 23 23 14 118
-18 187 -57 120 -173 257 -250 296 -93 46 -158 40 -221 -21 -20 -20 -39 -32
-42 -27 -10 17 -27 155 -42 344 -20 262 -24 288 -46 310 -24 24 -101 26 -119
4z"/>
<path d="M19490 8485 c-26 -32 0 -353 65 -804 41 -289 48 -304 119 -309 26 -2
54 2 61 8 7 6 21 46 30 88 23 110 65 240 84 264 17 20 18 19 78 -46 79 -84
140 -174 158 -232 7 -25 19 -51 25 -59 15 -18 101 -20 118 -3 23 23 14 118
-18 187 -57 120 -173 257 -250 296 -93 46 -158 40 -221 -21 -20 -20 -39 -32
-42 -27 -10 17 -27 155 -42 344 -20 262 -24 288 -46 310 -24 24 -101 26 -119
4z"/>
<path d="M9889 8450 c-202 -42 -243 -55 -449 -139 -69 -28 -129 -51 -133 -51
-5 0 -83 -34 -175 -76 -91 -42 -177 -80 -189 -85 -27 -10 -31 -51 -9 -104 30
-71 51 -68 296 40 182 81 405 175 413 175 3 0 7 -150 10 -332 3 -211 8 -346
16 -369 17 -55 48 -89 80 -89 61 0 59 -14 52 415 -4 215 -10 397 -14 405 -8
16 15 25 278 113 50 16 97 36 106 44 21 18 29 59 16 72 -19 19 -159 10 -298
-19z"/>
<path d="M21955 8393 c-53 -11 -145 -49 -192 -79 -60 -38 -83 -76 -83 -136 1
-130 129 -250 402 -375 151 -69 211 -107 206 -132 -12 -63 -242 -103 -408 -71
-63 12 -85 29 -101 79 -6 20 -15 40 -19 44 -4 5 -26 -8 -49 -28 -33 -30 -41
-44 -41 -72 0 -76 50 -132 150 -169 70 -25 155 -32 280 -22 137 11 231 31 278
60 64 39 91 149 56 224 -30 62 -181 173 -319 234 -121 53 -258 138 -269 167
-8 20 18 49 69 76 33 18 57 22 142 22 93 0 103 -2 127 -24 22 -21 29 -23 51
-13 21 10 25 18 25 56 0 110 -156 191 -305 159z"/>
<path d="M15678 8213 c-29 -7 -83 -145 -111 -281 -11 -53 -23 -82 -46 -108
-41 -46 -42 -91 -2 -136 16 -18 43 -63 60 -100 35 -73 66 -105 145 -146 43
-22 64 -27 131 -27 96 0 164 21 229 71 83 63 125 174 69 182 -13 2 -51 -14
-90 -38 -111 -67 -206 -86 -278 -56 -53 23 -85 107 -51 135 8 6 47 18 87 27
130 27 269 97 269 135 0 15 -93 22 -227 17 l-134 -6 6 32 c4 17 18 66 31 109
34 110 32 140 -9 171 -33 25 -45 28 -79 19z"/>
<path d="M18848 8213 c-29 -7 -83 -145 -111 -281 -11 -53 -23 -82 -46 -108
-41 -46 -42 -91 -2 -136 16 -18 43 -63 60 -100 35 -73 66 -105 145 -146 43
-22 64 -27 131 -27 96 0 164 21 229 71 83 63 125 174 69 182 -13 2 -51 -14
-90 -38 -111 -67 -206 -86 -278 -56 -53 23 -85 107 -51 135 8 6 47 18 87 27
130 27 269 97 269 135 0 15 -93 22 -227 17 l-134 -6 6 32 c4 17 18 66 31 109
34 110 32 140 -9 171 -33 25 -45 28 -79 19z"/>
<path d="M11450 8106 c-66 -14 -122 -46 -154 -89 -55 -73 -96 -185 -96 -261 0
-110 70 -200 185 -235 81 -25 204 -28 290 -6 119 30 217 98 202 139 -8 21
-116 22 -224 1 -43 -8 -100 -15 -128 -15 -49 0 -116 25 -122 45 -2 6 31 30 72
54 95 57 191 154 200 204 11 56 -19 106 -80 138 -69 37 -82 39 -145 25z"/>
<path d="M13980 8106 c-66 -14 -122 -46 -154 -89 -55 -73 -96 -185 -96 -261 0
-110 70 -200 185 -235 81 -25 204 -28 290 -6 119 30 217 98 202 139 -8 21
-116 22 -224 1 -43 -8 -100 -15 -128 -15 -49 0 -116 25 -122 45 -2 6 31 30 72
54 95 57 191 154 200 204 11 56 -19 106 -80 138 -69 37 -82 39 -145 25z"/>
<path d="M20620 8106 c-66 -14 -122 -46 -154 -89 -55 -73 -96 -185 -96 -261 0
-110 70 -200 185 -235 81 -25 204 -28 290 -6 119 30 217 98 202 139 -8 21
-116 22 -224 1 -43 -8 -100 -15 -128 -15 -49 0 -116 25 -122 45 -2 6 31 30 72
54 95 57 191 154 200 204 11 56 -19 106 -80 138 -69 37 -82 39 -145 25z"/>
<path d="M14793 7980 c-167 -35 -274 -210 -261 -426 6 -90 31 -134 94 -164 87
-43 223 -3 334 97 l48 43 48 -44 c62 -55 130 -90 217 -113 77 -20 87 -15 87
43 0 28 -12 42 -104 117 -104 86 -105 87 -161 201 -48 100 -54 117 -45 141 6
15 8 36 4 47 -14 44 -166 78 -261 58z m147 -110 c13 -9 12 -12 -4 -25 -17 -13
-20 -26 -17 -92 l2 -76 -58 -56 c-70 -68 -140 -106 -161 -88 -22 17 -11 161
16 212 46 91 170 160 222 125z"/>
<path d="M22843 7980 c-167 -35 -274 -210 -261 -426 6 -90 31 -134 94 -164 87
-43 223 -3 334 97 l48 43 48 -44 c62 -55 130 -90 217 -113 77 -20 87 -15 87
43 0 28 -12 42 -104 117 -104 86 -105 87 -161 201 -48 100 -54 117 -45 141 6
15 8 36 4 47 -14 44 -166 78 -261 58z m147 -110 c13 -9 12 -12 -4 -25 -17 -13
-20 -26 -17 -92 l2 -76 -58 -56 c-70 -68 -140 -106 -161 -88 -22 17 -11 161
16 212 46 91 170 160 222 125z"/>
<path d="M17055 7941 c-66 -12 -100 -37 -164 -121 -69 -92 -86 -140 -78 -225
15 -156 90 -238 239 -260 78 -12 232 46 312 116 56 49 97 143 98 222 0 103
-54 202 -134 243 -22 11 -204 37 -228 32 -3 0 -23 -4 -45 -7z m154 -161 c57
-26 81 -26 89 2 5 20 7 19 18 -12 18 -51 17 -88 -7 -137 -53 -109 -234 -191
-312 -140 -31 20 -51 84 -41 130 10 45 46 98 95 141 50 42 90 46 158 16z"/>
<path d="M23795 7896 c-16 -7 -50 -34 -74 -60 l-43 -48 -27 25 c-34 32 -65 41
-92 26 -20 -10 -21 -16 -15 -83 14 -155 55 -304 97 -345 67 -67 112 -46 124
57 18 152 56 270 97 296 13 8 22 6 37 -8 20 -19 82 -167 101 -244 7 -27 26
-59 54 -87 44 -46 63 -53 98 -34 17 9 19 17 13 47 -9 49 -83 279 -102 316 -20
38 -91 115 -122 130 -42 21 -112 27 -146 12z"/>
</g>
</svg>
