<svg id="Layer_1" data-name="Layer 1" xmlns="http://www.w3.org/2000/svg" viewBox="0 0 113.39 113.39"><defs><style>.cls-1{fill:#f7941d;}.cls-2{fill:#f15a29;}.cls-3{fill:#ef4136;}.cls-4{fill:#fbb040;}</style></defs><title>News App Logos</title><path class="cls-1" d="M55.05,76.68,43.74,32a.78.78,0,0,0-.94-.56l-.06,0a.73.73,0,0,0-.47.35.76.76,0,0,0-.09.59L53.5,77.08a.76.76,0,0,0,.74.58l.19,0,.06,0a.77.77,0,0,0,.47-.35.76.76,0,0,0,.09-.59"/><path class="cls-1" d="M55.48,52.15l-6.77-17.9a.78.78,0,0,0-.72-.48.72.72,0,0,0-.28,0l-.06,0a.82.82,0,0,0-.43.41.76.76,0,0,0,0,.59L54,52.73a.77.77,0,0,0,.72.49,1,1,0,0,0,.28,0l.06,0a.76.76,0,0,0,.44-1"/><path class="cls-2" d="M64.84,23.7a.74.74,0,0,0-.49-.32l-.07,0h-.15a.76.76,0,0,0-.75.61l-5,24.63a.76.76,0,0,0,.11.57.73.73,0,0,0,.49.33H59a.41.41,0,0,0,.16,0,.77.77,0,0,0,.75-.62l5-24.62a.79.79,0,0,0-.11-.58"/><path class="cls-2" d="M70,17.35a.72.72,0,0,0-.5-.29h-.18a.77.77,0,0,0-.76.67L61,74.62a.78.78,0,0,0,.15.57.74.74,0,0,0,.51.29h.16a.78.78,0,0,0,.77-.67l7.55-56.92a.76.76,0,0,0-.16-.56"/><path class="cls-3" d="M73.18,26.27a.78.78,0,0,0-.51-.29H72.5a.76.76,0,0,0-.76.66l-6,43a.77.77,0,0,0,.66.86h.18a.75.75,0,0,0,.75-.66l6-43a.76.76,0,0,0-.15-.58"/><path class="cls-3" d="M76.2,34.94a.73.73,0,0,0-.5-.3h-.17a.76.76,0,0,0-.76.67L71,63.92a.77.77,0,0,0,.66.86h.17a.77.77,0,0,0,.76-.67l3.81-28.62a.77.77,0,0,0-.16-.57"/><path class="cls-4" d="M40.91,38.6a.77.77,0,0,0-.74-.58L40,38l-.06,0a.73.73,0,0,0-.47.35.76.76,0,0,0-.09.59l8.71,33a.76.76,0,0,0,.74.58.58.58,0,0,0,.19,0l.07,0a.76.76,0,0,0,.47-.35.7.7,0,0,0,.08-.58Z"/><path class="cls-4" d="M38.2,45.11a.78.78,0,0,0-.75-.58l-.19,0-.07,0a.76.76,0,0,0-.55.93l6.17,23.87a.77.77,0,0,0,.74.58l.19,0,.07,0a.78.78,0,0,0,.55-.94Z"/><path class="cls-3" d="M15.56,82.9h.09c.23,0,.4.19.5.58L19,89.89q.1-.14,2-4.47L22.12,83a.42.42,0,0,1,.3-.14h.09c.22,0,.34.16.38.49V91c-.06.3-.2.45-.43.45h0c-.28,0-.42-.18-.42-.4V85.42h0c-1.68,3.82-2.56,5.78-2.62,5.87a.52.52,0,0,1-.34.15c-.26,0-.49-.31-.7-.94l-2.25-5h0V91c0,.22-.15.36-.43.4h0q-.33,0-.42-.45v-7.6c0-.33.16-.49.38-.49"/><path class="cls-3" d="M24.83,88.34v.11A2.09,2.09,0,0,0,26,90.34a2,2,0,0,0,.91.22H27A2.1,2.1,0,0,0,29,89.24a2.27,2.27,0,0,0,.16-.79v-.11a2.08,2.08,0,0,0-.93-1.71A2.16,2.16,0,0,0,27,86.26a2.1,2.1,0,0,0-2,1.44,2.26,2.26,0,0,0-.11.64m2.14-3a3.06,3.06,0,0,1,3,3,3,3,0,0,1-1.61,2.69,3.09,3.09,0,0,1-1.36.35h-.18a3.05,3.05,0,0,1-2.27-1.15,3.22,3.22,0,0,1-.65-1.89,3,3,0,0,1,1.31-2.47A3.06,3.06,0,0,1,27,85.37"/><path class="cls-3" d="M32.31,83.15h.08c.26.06.4.17.4.35v2h.89l.2,0c.2,0,.34.14.41.44s-.12.34-.37.43l-.32,0h-.81v3.22c0,.56.17.9.54,1l.5,0h.25c.19,0,.31.14.37.42v0c-.05.28-.19.41-.42.41h-.46A1.65,1.65,0,0,1,32,90.31a2.24,2.24,0,0,1-.09-.66V86.3h-.44l-.35,0a.46.46,0,0,1-.37-.43q.07-.42.39-.42v0l.22,0h.55V83.63c0-.32.16-.48.38-.48"/><path class="cls-3" d="M37.55,85.37A2.74,2.74,0,0,1,40,86.77V87c0,.23-.15.38-.44.42s-.4-.17-.6-.51a1.92,1.92,0,0,0-1.39-.59,1.81,1.81,0,0,0-1.61,1v.11c0,.2.21.31.66.35,1.69.41,2.62.65,2.77.71A1.24,1.24,0,0,1,40,89.48v0c0,.61-.46,1.17-1.36,1.68a3,3,0,0,1-1.23.26,2.76,2.76,0,0,1-2.28-1.25.56.56,0,0,1-.08-.25v-.13c0-.21.16-.34.48-.37.15,0,.34.18.6.55a2,2,0,0,0,1.37.55,1.84,1.84,0,0,0,1.54-.88l.05-.14v0c0-.19-.14-.3-.4-.33a18.93,18.93,0,0,1-3.14-.82,1.25,1.25,0,0,1-.55-1c0-.56.41-1.1,1.21-1.61a2.8,2.8,0,0,1,1.33-.36"/><path class="cls-3" d="M41.32,85.42c.27,0,.46.3.56.89L43,89.62h0c.82-2.62,1.26-4,1.32-4a.71.71,0,0,1,.34-.16c.26,0,.43.24.52.73l1.12,3.47h0c.79-2.51,1.22-3.84,1.29-4a.56.56,0,0,1,.35-.2q.45.09.45.45l-1.74,5.4a.55.55,0,0,1-.35.17h0c-.27,0-.46-.28-.57-.85-.7-2.14-1.05-3.23-1.05-3.3h0l-1.28,4a.41.41,0,0,1-.35.19h0c-.21,0-.35-.13-.44-.39l-1.64-5.18c.06-.3.2-.45.44-.45"/><path class="cls-3" d="M50.24,88.12h4.29A2.22,2.22,0,0,0,54,86.93a2.15,2.15,0,0,0-1.44-.69H52.3a2.07,2.07,0,0,0-1.77,1.05,2.12,2.12,0,0,0-.29.83m2.13-2.79A3,3,0,0,1,55.11,87a3.16,3.16,0,0,1,.33,1.43v.11Q55.37,89,55,89H50.31a2.2,2.2,0,0,0,1.13,1.36,2.75,2.75,0,0,0,1,.2,2.72,2.72,0,0,0,1.19-.33h.14c.26,0,.39.18.39.4v.07c0,.36-.53.62-1.6.75h-.15a3,3,0,0,1-2.64-1.53,3.12,3.12,0,0,1-.4-1.53,3,3,0,0,1,1.58-2.67,3.24,3.24,0,0,1,1.46-.38"/><path class="cls-3" d="M57.16,88.29v.11a2.17,2.17,0,0,0,1.45,2,2.28,2.28,0,0,0,.69.12h.14a2.2,2.2,0,0,0,2-1.45,3.29,3.29,0,0,0,.12-.67v-.14a2.18,2.18,0,0,0-1.48-2,2.73,2.73,0,0,0-.69-.11h-.09a2.17,2.17,0,0,0-2,1.41,2.34,2.34,0,0,0-.14.73m4.78-5.39H62c.27.06.41.18.41.36v4.46l0,.77a3.09,3.09,0,0,1-3,3h-.18a3.13,3.13,0,0,1-2.32-1.16,3.31,3.31,0,0,1-.66-1.93,3.13,3.13,0,0,1,3.09-3.08,3.28,3.28,0,0,1,2.22.92V83.64l0-.35c.08-.26.21-.39.38-.39"/><path class="cls-3" d="M64.3,85.3c.28.07.43.2.43.38V91c0,.22-.15.36-.43.4h0c-.22,0-.37-.15-.42-.44V85.81c0-.34.18-.51.45-.51m0-1.53c.28.07.43.2.43.38v.14c0,.21-.16.33-.48.38s-.33-.15-.4-.45.21-.45.45-.45"/><path class="cls-3" d="M66.73,85.34c.28.07.42.2.42.38v.49a3.09,3.09,0,0,1,2.12-.87,3,3,0,0,1,2.23,1,2.89,2.89,0,0,1,.7,1.84v2.84c0,.19-.13.32-.42.37h0c-.28,0-.43-.19-.43-.42v-2.5a2.12,2.12,0,0,0-1.44-2.2,2.57,2.57,0,0,0-.62-.09H69.2a2.06,2.06,0,0,0-1.88,1.25,3.29,3.29,0,0,0-.17,1.22V91c0,.22-.14.36-.42.4h0c-.22,0-.37-.15-.42-.44V85.85q.06-.51.45-.51"/><path class="cls-3" d="M74.06,88.32v.11a2.14,2.14,0,0,0,1.42,2,2.59,2.59,0,0,0,.68.11h.13a2.16,2.16,0,0,0,2-1.42,2.48,2.48,0,0,0,.11-.66v-.14a2.16,2.16,0,0,0-1.44-2,3.14,3.14,0,0,0-.69-.1h-.08a2.13,2.13,0,0,0-2,1.39,2.19,2.19,0,0,0-.13.71m2.17-3a3.06,3.06,0,0,1,2.35,1.13,3.13,3.13,0,0,1,.69,1.78l0,.75v2.68c0,.5-.38,1-1.15,1.64a3.39,3.39,0,0,1-1.86.58,3.28,3.28,0,0,1-2.75-1.49,1,1,0,0,1-.2-.44v-.07c0-.19.13-.32.4-.38h.07c.19,0,.36.19.5.56a2.47,2.47,0,0,0,2,1,2.3,2.3,0,0,0,2.13-1.29l0-.29v-1a3.08,3.08,0,0,1-2.11.91h-.18a3.09,3.09,0,0,1-2.27-1.15,3.18,3.18,0,0,1-.65-1.89,3,3,0,0,1,1.31-2.48,3.07,3.07,0,0,1,1.73-.56"/><path class="cls-3" d="M84,82.84l.11,0h4.44l.09,0c.26,0,.41.17.45.49a.45.45,0,0,1-.49.41H84.41V86.8h2.72l.32,0c.2,0,.34.15.4.45a.49.49,0,0,1-.36.45l-.45,0H84.41v3.22l0,.13c-.06.29-.21.43-.43.43h0c-.29,0-.43-.19-.43-.43V83.29c0-.28.18-.43.43-.43Z"/><path class="cls-3" d="M90.09,82.9h.09c.24,0,.4.19.5.58l2.86,6.41c.08-.09.74-1.58,2-4.47L96.65,83a.42.42,0,0,1,.3-.14H97c.22,0,.34.16.38.49V91c-.06.3-.2.45-.43.45h0c-.28,0-.42-.18-.42-.4V85.42h0C94.84,89.24,94,91.2,93.9,91.29a.52.52,0,0,1-.34.15c-.26,0-.49-.31-.7-.94l-2.25-5h0V91c0,.22-.14.36-.42.4h0c-.23,0-.37-.15-.43-.45v-7.6c0-.33.16-.49.38-.49"/><path class="cls-3" d="M39.29,98.09a.82.82,0,0,0,.67.8h.17a.81.81,0,0,0,.81-.62l0-.21a.8.8,0,0,0-.66-.82l-.2,0a.79.79,0,0,0-.79.61ZM39,100.6a1.09,1.09,0,0,0,.82,1.09.92.92,0,0,0,.33,0,1.1,1.1,0,0,0,1.06-.82l0-.22v-.15a1.08,1.08,0,0,0-.74-1,1.29,1.29,0,0,0-.37-.06,1.07,1.07,0,0,0-1.09.83Zm1.18-4a1.43,1.43,0,0,1,1.15.6,1.31,1.31,0,0,1,.27.8v.08A1.44,1.44,0,0,1,41,99.19a1.7,1.7,0,0,1,.78,1.42,1.72,1.72,0,0,1-1.69,1.71H40a1.73,1.73,0,0,1-1.41-.81,1.83,1.83,0,0,1-.25-.9,1.77,1.77,0,0,1,.84-1.48,1.24,1.24,0,0,1-.46-.72,1.08,1.08,0,0,1,0-.3V98a1.39,1.39,0,0,1,.72-1.21,1.48,1.48,0,0,1,.71-.19"/><path class="cls-3" d="M42.62,96.67H45.5c.18,0,.27.11.27.23V97a.77.77,0,0,1-.15.3l-2.81,5a.4.4,0,0,1-.19.07h0c-.19,0-.28-.13-.28-.28V102q0-.13,2.61-4.67l0-.07H42.67q-.3-.06-.3-.3c0-.19.12-.28.25-.28"/><path class="cls-3" d="M47.08,101.24c.28,0,.46.16.54.49v.09c0,.21-.13.36-.38.47a.35.35,0,0,1-.16,0h0c-.3,0-.48-.18-.54-.55a.54.54,0,0,1,.4-.51l.15,0"/><path class="cls-3" d="M48.81,98.27v.14a1.09,1.09,0,0,0,.66,1,1.11,1.11,0,0,0,.46.09,1.08,1.08,0,0,0,1-.61,1.14,1.14,0,0,0,.12-.49v0a1.08,1.08,0,0,0-.79-1,.78.78,0,0,0-.29,0h-.1a1.07,1.07,0,0,0-1,.71,2.07,2.07,0,0,0-.06.32m1.12-1.63a1.71,1.71,0,0,1,1.45.85,1.8,1.8,0,0,1,.24.84,2,2,0,0,1-.52,1.25l-2,2.67a.4.4,0,0,1-.19.07c-.2,0-.3-.14-.3-.29a2.18,2.18,0,0,1,.48-.72l.95-1.29h0L50,100a1.72,1.72,0,0,1-1.53-.92,1.81,1.81,0,0,1-.2-.79,1.69,1.69,0,0,1,.92-1.49,1.81,1.81,0,0,1,.79-.2"/><path class="cls-3" d="M54.65,99.76h1.58c.16,0,.26.1.3.31s-.15.31-.3.31H54.65c-.17,0-.28-.12-.3-.34s.15-.28.3-.28"/><path class="cls-3" d="M60,96.63h0c.18.05.27.13.27.26V102c0,.18-.12.28-.28.28h0c-.19,0-.28-.12-.28-.25V97.32a2.4,2.4,0,0,1-.53.14c-.12,0-.2-.09-.25-.27v-.07c0-.15.2-.27.6-.35Z"/><path class="cls-3" d="M61.53,99.4v.17a3.7,3.7,0,0,0,.37,1.74,1.08,1.08,0,0,0,.82.44h.05c.67,0,1.07-.52,1.18-1.55a5.45,5.45,0,0,0,.06-.74,4.69,4.69,0,0,0-.3-1.66,1.06,1.06,0,0,0-2,.17,5,5,0,0,0-.22,1.43m1.22-2.77a1.65,1.65,0,0,1,1.5,1.05,5.26,5.26,0,0,1,.28,1.62v.34a4.87,4.87,0,0,1-.37,1.84,1.6,1.6,0,0,1-1.38.84h0a1.57,1.57,0,0,1-1.42-.95A5.15,5.15,0,0,1,61,99.49v0a4.7,4.7,0,0,1,.39-2,1.62,1.62,0,0,1,1.37-.84"/><path class="cls-3" d="M65.32,96.67H68.2c.18,0,.27.11.27.23V97a1,1,0,0,1-.15.3l-2.81,5a.45.45,0,0,1-.19.07h0c-.19,0-.28-.13-.28-.28V102q0-.13,2.61-4.67l0-.07h-2.3c-.19,0-.29-.14-.29-.3s.12-.28.25-.28"/><path class="cls-3" d="M69.78,101.24c.28,0,.46.16.54.49v.09c0,.21-.13.36-.39.47a.31.31,0,0,1-.15,0h0c-.3,0-.48-.18-.54-.55a.54.54,0,0,1,.39-.51l.16,0"/><path class="cls-3" d="M71.51,98.27v.14a1.1,1.1,0,0,0,2.09.43,1,1,0,0,0,.12-.49v0a1.07,1.07,0,0,0-.78-1,.84.84,0,0,0-.3,0h-.09a1.06,1.06,0,0,0-1,.71,1.3,1.3,0,0,0-.06.32m1.12-1.63a1.71,1.71,0,0,1,1.45.85,1.78,1.78,0,0,1,.23.84,1.94,1.94,0,0,1-.51,1.25l-2,2.67a.44.44,0,0,1-.2.07c-.19,0-.29-.14-.29-.29a2.25,2.25,0,0,1,.47-.72l1-1.29h0l-.09,0a1.72,1.72,0,0,1-1.53-.92,1.79,1.79,0,0,1-.19-.79,1.69,1.69,0,0,1,.92-1.49,1.78,1.78,0,0,1,.79-.2"/></svg>