<svg id="Layer_1" data-name="Layer 1" xmlns="http://www.w3.org/2000/svg" viewBox="0 0 113.39 113.39"><defs><style>.cls-1{fill:#231f20;}.cls-2{fill:#5a9641;}</style></defs><title>News App Logos</title><path class="cls-1" d="M16.19,67.42A1.34,1.34,0,0,1,17.66,66a1.34,1.34,0,0,1,1.46,1.43v2.87a1.34,1.34,0,0,1-1.46,1.44,1.35,1.35,0,0,1-1.47-1.44Zm1,2.85c0,.42.12.62.51.62s.51-.2.51-.62V67.44c0-.42-.13-.61-.51-.61s-.51.19-.51.61Z"/><path class="cls-1" d="M21.59,68.64c-.07-.33-.22-.52-.5-.52a.34.34,0,0,0-.38.34c0,.64,1.63.91,1.63,2.14a1.09,1.09,0,0,1-1.22,1.13,1.26,1.26,0,0,1-1.32-1.17l.76-.21c.05.35.18.66.57.66a.35.35,0,0,0,.39-.36c0-.72-1.63-1-1.63-2.13a1.1,1.1,0,0,1,1.16-1.11,1.26,1.26,0,0,1,1.27,1.1Z"/><path class="cls-1" d="M23.62,71.65h-.93l1-5.58h1.19l1,5.58H25l-.17-1.24H23.79Zm.31-2.08h.77l-.38-2.39h0Z"/><polygon class="cls-1" points="26.77 66.9 25.84 66.9 25.84 66.07 28.66 66.07 28.66 66.9 27.72 66.9 27.72 71.65 26.77 71.65 26.77 66.9"/><polygon class="cls-1" points="29.22 71.65 29.22 66.07 31.79 66.07 31.79 66.9 30.17 66.9 30.17 68.34 31.41 68.34 31.41 69.18 30.17 69.18 30.17 70.81 31.89 70.81 31.89 71.65 29.22 71.65"/><polygon class="cls-1" points="36.53 66.07 37.32 66.07 37.96 69.61 37.98 69.61 38.51 66.07 39.41 66.07 38.43 71.64 37.63 71.64 36.93 67.95 36.92 67.95 36.27 71.64 35.46 71.64 34.41 66.07 35.3 66.07 35.89 69.61 35.9 69.61 36.53 66.07"/><path class="cls-1" d="M40.29,71.64h-.93l1-5.57h1.19l1,5.57h-.92l-.17-1.24h-1Zm.31-2.07h.77L41,67.18h0Z"/><polygon class="cls-1" points="45.43 66.9 44.5 66.9 44.5 66.07 47.32 66.07 47.32 66.9 46.39 66.9 46.39 71.64 45.43 71.64 45.43 66.9"/><path class="cls-1" d="M49.62,67.43c0-.47-.29-.61-.51-.61s-.47.2-.47.55c0,.95,1.94,1.4,1.94,2.91a1.37,1.37,0,0,1-1.51,1.44,1.47,1.47,0,0,1-1.44-1.55l.91-.13c0,.56.26.84.57.84a.49.49,0,0,0,.56-.51c0-1.1-1.94-1.39-1.94-3A1.3,1.3,0,0,1,49.21,66a1.35,1.35,0,0,1,1.33,1.35Z"/><polygon class="cls-1" points="51.3 71.64 51.3 66.07 53.87 66.07 53.87 66.9 52.26 66.9 52.26 68.33 53.5 68.33 53.5 69.17 52.26 69.17 52.26 70.81 53.98 70.81 53.98 71.64 51.3 71.64"/><path class="cls-1" d="M54.73,66.07h1.42a1.31,1.31,0,0,1,1.49,1.47A1.19,1.19,0,0,1,57,68.7,1.28,1.28,0,0,1,57.74,70c0,.92-.4,1.62-1.49,1.62H54.73Zm1,2.28H56a.64.64,0,0,0,.65-.71c0-.52-.21-.79-.63-.79h-.36Zm0,2.5h.4c.51,0,.7-.29.7-.86s-.22-.85-.79-.85h-.31Z"/><path class="cls-1" d="M58.6,67.42a1.47,1.47,0,0,1,2.93,0v2.86a1.47,1.47,0,0,1-2.93,0Zm.95,2.84c0,.42.12.62.51.62s.51-.2.51-.62V67.43c0-.41-.13-.61-.51-.61s-.51.2-.51.61Z"/><polygon class="cls-1" points="64.12 71.64 64.12 66.07 65.08 66.07 65.08 70.81 66.58 70.81 66.58 71.64 64.12 71.64"/><polygon class="cls-1" points="67.17 71.64 67.17 66.07 69.73 66.07 69.73 66.9 68.13 66.9 68.13 68.33 69.36 68.33 69.36 69.17 68.13 69.17 68.13 70.81 69.84 70.81 69.84 71.64 67.17 71.64"/><polygon class="cls-1" points="20.8 66.07 21.26 66.07 21.95 67.12 21.32 67.12 21.03 66.63 20.73 67.12 20.11 67.12 20.8 66.07"/><path class="cls-1" d="M72.28,66.15h1.39a1.28,1.28,0,0,1,1.46,1.44,1.16,1.16,0,0,1-.66,1.14,1.27,1.27,0,0,1,.76,1.3c0,.9-.4,1.58-1.47,1.58H72.28Zm.94,2.24h.34a.62.62,0,0,0,.62-.7c0-.5-.19-.77-.61-.77h-.35Zm0,2.45h.39c.5,0,.68-.29.68-.84s-.21-.84-.77-.84h-.3Z"/><path class="cls-1" d="M76.06,67.47a1.44,1.44,0,0,1,2.87,0v2.81a1.44,1.44,0,0,1-2.87,0Zm.94,2.8c0,.4.12.59.5.59s.5-.19.5-.59V67.5c0-.41-.12-.61-.5-.61s-.5.2-.5.61Z"/><rect class="cls-1" x="79.97" y="66.15" width="0.94" height="5.46"/><polygon class="cls-1" points="82.49 66.97 81.58 66.97 81.58 66.15 84.33 66.15 84.33 66.97 83.43 66.97 83.43 71.61 82.49 71.61 82.49 66.97"/><polygon class="cls-1" points="84.89 71.61 84.89 66.15 85.83 66.15 85.83 68.37 86.82 68.37 86.82 66.15 87.76 66.15 87.76 71.61 86.82 71.61 86.82 69.19 85.83 69.19 85.83 71.61 84.89 71.61"/><path class="cls-1" d="M89.21,71.61H88.3l1-5.46h1.16l1,5.46h-.91l-.16-1.21h-1Zm.31-2h.75l-.37-2.34h0Z"/><path class="cls-1" d="M92,66.15h1.39a1.27,1.27,0,0,1,1.45,1.44,1.16,1.16,0,0,1-.66,1.14A1.27,1.27,0,0,1,95,70c0,.9-.41,1.58-1.47,1.58H92ZM93,68.39h.35a.62.62,0,0,0,.62-.7c0-.5-.19-.77-.61-.77H93Zm0,2.45h.4c.49,0,.68-.29.68-.84s-.21-.84-.77-.84H93Z"/><rect class="cls-1" x="95.93" y="66.15" width="0.94" height="5.46"/><path class="cls-1" d="M99.41,68.67c-.06-.33-.22-.51-.49-.51a.33.33,0,0,0-.37.33c0,.63,1.59.89,1.59,2.1A1.05,1.05,0,0,1,99,71.68a1.22,1.22,0,0,1-1.29-1.13l.74-.2c0,.33.18.64.56.64a.34.34,0,0,0,.38-.35c0-.71-1.59-1-1.59-2.09a1.08,1.08,0,0,1,1.14-1.08,1.24,1.24,0,0,1,1.23,1.07Z"/><path class="cls-1" d="M100.85,67.47a1.44,1.44,0,0,1,2.87,0v2.81a1.44,1.44,0,0,1-2.87,0Zm.94,2.8c0,.4.12.59.5.59s.5-.19.5-.59V67.5c0-.41-.12-.61-.5-.61s-.5.2-.5.61Z"/><polygon class="cls-1" points="98.63 66.07 99.09 66.07 99.78 67.11 99.15 67.11 98.86 66.62 98.57 67.11 97.94 67.11 98.63 66.07"/><polygon class="cls-1" points="15.31 66.07 15.31 71.65 14.47 71.65 14.47 67.28 14.46 67.28 13.59 71.65 13.13 71.65 12.26 67.28 12.24 67.28 12.24 71.65 11.41 71.65 11.41 66.07 12.67 66.07 13.35 69.33 13.37 69.33 14.04 66.07 15.31 66.07"/><polygon class="cls-1" points="11.64 52.65 8.25 52.65 8.25 50.91 17.44 50.91 16.9 52.65 13.77 52.65 13.77 62.56 11.64 62.56 11.64 52.65"/><polygon class="cls-1" points="18.89 50.91 21.02 50.91 21.02 55.72 26.67 55.72 26.67 50.91 28.82 50.91 28.82 62.57 26.67 62.56 26.67 57.53 21.02 57.53 21.02 62.56 18.89 62.56 18.89 50.91"/><path class="cls-1" d="M37.26,57.59a.86.86,0,1,1,.86-.86.87.87,0,0,1-.86.86"/><path class="cls-1" d="M37.26,50.06a6.66,6.66,0,1,0,6.66,6.66,6.66,6.66,0,0,0-6.66-6.66m0,11.9a5.22,5.22,0,1,1,5.22-5.23A5.22,5.22,0,0,1,37.26,62"/><path class="cls-1" d="M37.26,53A3.73,3.73,0,1,0,41,56.72,3.73,3.73,0,0,0,37.26,53m0,6a2.29,2.29,0,1,1,2.29-2.3A2.29,2.29,0,0,1,37.26,59"/><path class="cls-1" d="M45.62,50.91H49c2.49,0,3.63,1.44,3.63,3a2.65,2.65,0,0,1-1.43,2.41v0a2.8,2.8,0,0,1,2.21,2.81c0,1.8-1.39,3.45-4.09,3.45H45.62Zm3.13,4.87c1.18,0,1.8-.66,1.8-1.55s-.54-1.57-1.82-1.57h-1v3.12Zm.35,5c1.42,0,2.18-.52,2.18-1.7,0-1-.76-1.59-2-1.59H47.75v3.29Z"/><polygon class="cls-1" points="55.64 50.92 62.08 50.92 61.52 52.65 57.76 52.65 57.76 55.76 61.49 55.76 61.49 57.49 57.76 57.49 57.76 60.84 62.1 60.84 62.1 62.57 55.64 62.57 55.64 50.92"/><polygon class="cls-1" points="64.52 50.92 66.64 50.92 66.64 60.83 70.78 60.83 70.78 62.57 64.52 62.57 64.52 50.92"/><path class="cls-1" d="M75.74,50.86h1.63L82,62.57H79.79l-1.13-2.92H74.51l-1.09,2.92H71.23ZM78,57.92,77.2,55.6c-.32-.88-.48-1.41-.58-1.8h0c-.11.41-.29.92-.61,1.82l-.84,2.3Z"/><polygon class="cls-2" points="83.59 51.02 89.91 51.03 89.38 52.72 85.67 52.72 85.67 55.78 89.31 55.78 89.31 57.48 85.67 57.48 85.67 62.47 83.59 62.47 83.59 51.02"/><path class="cls-2" d="M91.91,51H93.8l3,4.32c.39.58.69,1,1,1.47h0c.24-.43.54-.93.94-1.54L101.47,51h1.91V62.47h-2.1V56c0-.47,0-1.06,0-1.51h0c-.16.33-.58,1-.78,1.28l-2.26,3.5h-1L94.79,55.7A10.24,10.24,0,0,1,94,54.51h0c0,.46,0,1.05,0,1.44v6.52H91.91Z"/></svg>