<svg id="Layer_1" data-name="Layer 1" xmlns="http://www.w3.org/2000/svg" viewBox="0 0 113.39 113.39"><defs><style>.cls-1{fill:#231f20;}.cls-2{fill:#cc2027;}</style></defs><title>News App Logos</title><g id="_Group_" data-name="&lt;Group&gt;"><path id="_Compound_Path_" data-name="&lt;Compound Path&gt;" class="cls-1" d="M69.11,96.68c-.16,0-.24-.05-.24-.16s.1-.2.31-.22a.61.61,0,0,0,.34-.12v.15c0,.22-.15.33-.41.35m.63-.11v-.48c0-.31-.16-.47-.52-.46s-.49.11-.54.35l.22,0a.29.29,0,0,1,.32-.22c.2,0,.3.07.29.23a1,1,0,0,1-.44.13c-.29,0-.43.16-.43.36s.13.31.37.32a.56.56,0,0,0,.5-.22.3.3,0,0,0,.07.19h.22a.48.48,0,0,1-.06-.24m-3.86-.91c-.16.55-.25.84-.26.87a.26.26,0,0,1,0,.11.18.18,0,0,0,0,0s0,0,0-.06-.08-.31-.22-.87h-.23c-.15.57-.22.86-.23.88a.3.3,0,0,1,0,.1.41.41,0,0,1,0-.1s-.09-.31-.25-.88h-.25l.39,1.15H65c.16-.52.23-.8.24-.83a.18.18,0,0,1,0,0v-.06h0a.26.26,0,0,0,0,.11s.06.3.2.83h.26l.4-1.15Zm-4.12-.5h-.24v1.65h.24Zm-3.46.64a.33.33,0,0,1,.34.36H58a.34.34,0,0,1,.35-.36m0,.88a.35.35,0,0,1-.36-.36h.92v-.06a.55.55,0,0,0-.58-.63.57.57,0,0,0-.58.63.55.55,0,0,0,.6.58.53.53,0,0,0,.57-.34l-.25,0a.31.31,0,0,1-.32.22m-3.24-1.52h-.24v1.65h.24Zm-3,0h-.24v1.65h.24Zm-3.8,1.09c0-.28.12-.42.34-.42s.33.15.34.42-.12.42-.34.42-.33-.15-.34-.42m-.24,0a.55.55,0,0,0,.58.58.53.53,0,0,0,.58-.59.55.55,0,0,0-.57-.61.56.56,0,0,0-.59.62m-2.64-.17c0-.3-.13-.46-.39-.46a.41.41,0,0,0-.38.25.31.31,0,0,0-.34-.25.45.45,0,0,0-.38.24v-.21h-.23v1.15H44v-.66c0-.22.1-.32.27-.33s.24.1.23.3v.69h.25v-.67c0-.2.09-.31.26-.32s.24.1.24.31v.68h.24ZM34.55,95.8q.31,0,.33.36H34.2a.33.33,0,0,1,.35-.36m0,.88a.35.35,0,0,1-.36-.36h.92v-.06c0-.41-.2-.62-.59-.63s-.56.23-.58.63a.55.55,0,0,0,.61.58.54.54,0,0,0,.57-.34l-.25,0a.31.31,0,0,1-.32.22m-3.15-1H31.1l-.54.54v-1h-.24v1.65h.24v-.35l.22-.2.38.55h.29l-.51-.7Z"/><path id="_Compound_Path_2" data-name="&lt;Compound Path&gt;" class="cls-2" d="M88.2,96.25c0-.2.14-.3.36-.31s.3.12.31.35a.32.32,0,0,1-.32.35c-.22,0-.34-.14-.35-.39m.36-1.09c-.4,0-.6.3-.61.86s.2.8.61.79a.51.51,0,0,0,.54-.54.48.48,0,0,0-.5-.51.43.43,0,0,0-.41.22c0-.43.13-.64.37-.64a.27.27,0,0,1,.28.25l.23,0a.5.5,0,0,0-.51-.39m-1.67,1.62h.29V96.5h-.29Zm-1.69-.53a.32.32,0,0,1,.35-.31c.2,0,.31.12.32.35a.32.32,0,0,1-.32.35c-.22,0-.34-.14-.35-.39m.36-1.09c-.4,0-.6.3-.61.86s.2.8.6.79a.51.51,0,0,0,.55-.54.49.49,0,0,0-.5-.51.43.43,0,0,0-.41.22c0-.43.13-.64.37-.64a.27.27,0,0,1,.28.25l.23,0a.5.5,0,0,0-.51-.39M83.37,96c0-.44.11-.65.32-.65s.33.21.32.65-.1.65-.32.64-.32-.21-.32-.64m-.25,0c0,.54.19.82.57.82s.57-.27.57-.82-.19-.82-.57-.83-.56.3-.57.83m-.86.8V95.17h-.18a1.12,1.12,0,0,1-.55.46v.21a1.72,1.72,0,0,0,.49-.3v1.25Zm-1.42-.88H79.75v.18h1.09ZM79,95.37V95.2H77.9v.2h.85a3.21,3.21,0,0,0-.58,1.39h.26A2.8,2.8,0,0,1,79,95.37m-2.2,1.41h.29V96.5h-.29ZM76,95.37V95.2H74.92v.2h.84a3.21,3.21,0,0,0-.58,1.39h.26A2.8,2.8,0,0,1,76,95.37m-2.11.23c0,.15-.1.24-.28.27a.27.27,0,0,1-.28-.28c0-.16.11-.24.28-.25a.25.25,0,0,1,.28.26m-.61.76c0-.18.11-.28.32-.31s.34.13.34.32-.11.27-.33.28-.33-.1-.33-.29m-.25,0c0,.28.19.43.56.44s.6-.15.6-.44a.41.41,0,0,0-.35-.41h0a.35.35,0,0,0,.3-.36c0-.27-.21-.41-.53-.43s-.5.16-.53.43a.37.37,0,0,0,.28.36h0a.41.41,0,0,0-.33.41"/><path id="_Compound_Path_3" data-name="&lt;Compound Path&gt;" class="cls-2" d="M82.37,79a2.49,2.49,0,0,0-.79.53,2.57,2.57,0,0,0-.56.85,3.11,3.11,0,0,0-.2,1.15V93h1.55V81.52a1.08,1.08,0,0,1,.29-.82,1,1,0,0,1,.66-.27.86.86,0,0,1,.63.27,1.07,1.07,0,0,1,.28.82V93h1.5V81.52A1.08,1.08,0,0,1,86,80.7a1,1,0,0,1,.66-.27.93.93,0,0,1,.66.27,1.11,1.11,0,0,1,.27.82V93h1.57V81.52A3.05,3.05,0,0,0,89,80.35a2.5,2.5,0,0,0-.55-.85,2.54,2.54,0,0,0-.8-.53,2.57,2.57,0,0,0-.94-.18,1.94,1.94,0,0,0-1,.21,2.8,2.8,0,0,0-.72.6,2.8,2.8,0,0,0-.72-.6,2,2,0,0,0-1-.21,2.51,2.51,0,0,0-.95.18m-4.62,7.27V84.66H74.68V81a.73.73,0,0,1,.33-.39,1.06,1.06,0,0,1,.55-.15,1,1,0,0,1,.65.25.92.92,0,0,1,.31.77V82a3.22,3.22,0,0,1,0,.33c0,.08,0,.16,0,.23s0,.15,0,.24H78a2.32,2.32,0,0,0,0-.24,1.64,1.64,0,0,0,0-.23A2.91,2.91,0,0,0,78,82v-.5a3.37,3.37,0,0,0-.2-1.21,2.37,2.37,0,0,0-.53-.84,2.12,2.12,0,0,0-.78-.48,2.9,2.9,0,0,0-.94-.16,2.84,2.84,0,0,0-.81.12,3,3,0,0,0-.73.31,2.56,2.56,0,0,0-.61.53,2.12,2.12,0,0,0-.38.73V93h1.62V86.24Z"/><path id="_Compound_Path_4" data-name="&lt;Compound Path&gt;" class="cls-1" d="M34.79,91.63A3.38,3.38,0,0,0,35,90.42v-.48a2.91,2.91,0,0,0,0-.31,1.64,1.64,0,0,0,0-.23,2.32,2.32,0,0,0,0-.24H33.41l0,.24c0,.07,0,.15,0,.23a3,3,0,0,1,0,.32v.5a1,1,0,0,1-.29.79,1,1,0,0,1-.64.25,1,1,0,0,1-.54-.15.75.75,0,0,1-.34-.39V79H30V91.43a1.91,1.91,0,0,0,.39.73,2.67,2.67,0,0,0,.6.52,2.47,2.47,0,0,0,.74.33,2.73,2.73,0,0,0,.81.11,2.94,2.94,0,0,0,.94-.15,2,2,0,0,0,.76-.49,2.49,2.49,0,0,0,.52-.85m5.91-2.2c0,.31,0,.67,0,1.07,0,.68-.26,1-.76,1s-.71-.33-.71-1V86.24h2.9V84.66h-2.9V81.28c0-.57.24-.85.71-.85s.76.29.76.86a9.59,9.59,0,0,1-.06,1.23h1.54c0-.29.05-.71.05-1.26a3.22,3.22,0,0,0-.17-1.08,2.4,2.4,0,0,0-.48-.77,2.1,2.1,0,0,0-.74-.46,2.66,2.66,0,0,0-.9-.16,2.22,2.22,0,0,0-2.33,2.47v9.12a3.25,3.25,0,0,0,.55,2.05,2.23,2.23,0,0,0,1.85.69,2,2,0,0,0,1.65-.69,3.11,3.11,0,0,0,.57-2c0-.77,0-1.34-.05-1.71H40.65a6.45,6.45,0,0,1,.05.74m9-6.84a11.63,11.63,0,0,0,0-1.33,3,3,0,0,0-.17-1.08,2.1,2.1,0,0,0-.48-.77,2.06,2.06,0,0,0-.73-.46,2.76,2.76,0,0,0-.91-.16,2.23,2.23,0,0,0-2.33,2.47v2.17a3.31,3.31,0,0,0,.49,1.75,2.3,2.3,0,0,0,1.61.75h0a.78.78,0,0,1,.83.87v3.64c0,.67-.23,1-.69,1s-.77-.34-.77-1,0-1.43,0-1.81H45.17c0,.38-.05,1-.05,1.78a3.11,3.11,0,0,0,.57,2,2,2,0,0,0,1.65.69,2.23,2.23,0,0,0,1.85-.69,3.25,3.25,0,0,0,.55-2.05V86.59h0a2.14,2.14,0,0,0-2.12-2.23h0c-.89,0-.83-1.26-.83-1.26V81.31c0-.56.24-.84.71-.84s.76.28.76.86,0,1,0,1.26Zm6.15,6.84c0,.31,0,.67,0,1.07,0,.68-.25,1-.76,1s-.71-.33-.71-1V86.24h2.9V84.66h-2.9V81.28c0-.57.24-.85.71-.85s.76.29.76.86,0,.94,0,1.23h1.53a10.3,10.3,0,0,0,0-1.26,3,3,0,0,0-.17-1.08,2.24,2.24,0,0,0-.48-.77A2,2,0,0,0,56,79a2.66,2.66,0,0,0-.9-.16,2.23,2.23,0,0,0-2.33,2.47v9.12a3.32,3.32,0,0,0,.55,2.05,2.25,2.25,0,0,0,1.85.69,2,2,0,0,0,1.65-.69,3.11,3.11,0,0,0,.57-2c0-.77,0-1.34,0-1.71H55.85c0,.19,0,.43,0,.74m7.7,1.25c0,.46-.21.68-.64.68h-.9V80.55h1.07c.31,0,.47.17.47.5Zm1.53,0V81.1c0-1.42-.61-2.13-1.82-2.13H60.43V93h2.73c1.31,0,2-.76,2-2.29M69.88,79H68.26V93h1.62Z"/><polygon id="_Path_" data-name="&lt;Path&gt;" class="cls-1" points="32.07 73.71 31.82 77.15 32.66 77.15 32.39 73.17 32.07 73.71"/><polygon id="_Path_2" data-name="&lt;Path&gt;" class="cls-1" points="33.12 71.94 38.63 77.15 40.33 77.15 33.19 71.81 33.12 71.94"/><polygon id="_Path_3" data-name="&lt;Path&gt;" class="cls-1" points="32.93 72.26 35.84 77.15 36.97 77.15 33.02 72.1 32.93 72.26"/><polygon id="_Path_4" data-name="&lt;Path&gt;" class="cls-2" points="34.36 69.84 34.13 70.24 75.72 52.79 73.16 48.47 34.36 69.84"/><polygon id="_Path_5" data-name="&lt;Path&gt;" class="cls-1" points="33.43 71.42 53.91 77.15 67.09 77.15 33.5 71.3 33.43 71.42"/><polygon id="_Path_6" data-name="&lt;Path&gt;" class="cls-1" points="31.3 75 30.03 77.15 30.77 77.15 31.3 75"/><polygon id="_Path_7" data-name="&lt;Path&gt;" class="cls-1" points="32.65 72.74 33.72 77.15 34.62 77.15 32.79 72.49 32.65 72.74"/><polygon id="_Path_8" data-name="&lt;Path&gt;" class="cls-2" points="33.93 70.58 33.8 70.79 81.53 62.59 78.88 58.12 33.93 70.58"/><polygon id="_Path_9" data-name="&lt;Path&gt;" class="cls-1" points="33.28 71.67 43.16 77.15 46.58 77.15 33.34 71.56 33.28 71.67"/><polygon id="_Path_10" data-name="&lt;Path&gt;" class="cls-2" points="35.54 67.85 34.82 69.07 69.9 42.96 67.06 38.18 35.54 67.85"/><polygon id="_Path_11" data-name="&lt;Path&gt;" class="cls-2" points="33.68 71 33.59 71.14 88.23 73.9 85.04 68.53 33.68 71"/><polygon id="_Path_12" data-name="&lt;Path&gt;" class="cls-2" points="54.6 20.27 59.15 28 38.17 63.41 63.24 31.71 61.04 28 65.58 20.27 54.6 20.27"/></g></svg>