<svg id="Layer_1" data-name="Layer 1" xmlns="http://www.w3.org/2000/svg" viewBox="0 0 113.39 113.39"><defs><style>.cls-1{fill:#f7941d;}.cls-2,.cls-3,.cls-6{fill:#231f20;}.cls-2,.cls-4{fill-rule:evenodd;}.cls-3,.cls-5{stroke:#fff;stroke-miterlimit:3.86;}.cls-3{stroke-width:0.1px;}.cls-4,.cls-5{fill:#fff;}.cls-5{stroke-width:0.14px;}</style></defs><title>News App Logos</title><rect class="cls-1" x="58.22" y="39.22" width="41.68" height="41.67"/><path class="cls-2" d="M23.7,61.5H21.29v1.35a3.71,3.71,0,0,1-3.82,3.89,3.71,3.71,0,0,1-3.85-3.89V56.27h7.64V53.94H13.62V50.8H11.2V62.85a6,6,0,0,0,6.27,6.23,6,6,0,0,0,6.23-6.23Z"/><path class="cls-3" d="M23.7,61.5H21.29v1.35a3.71,3.71,0,0,1-3.82,3.89,3.71,3.71,0,0,1-3.85-3.89V56.27h7.64V53.94H13.62V50.8H11.2V62.85a6,6,0,0,0,6.27,6.23,6,6,0,0,0,6.23-6.23Z"/><path class="cls-2" d="M39.49,59.84c0-3.67-2.06-6.26-5.68-6.26a5.44,5.44,0,0,0-4.31,2V53.94H27.14v14.8h2.44v-9a3.78,3.78,0,0,1,3.88-3.89c2.3,0,3.62,1.65,3.62,3.94v1.09h2.41Z"/><path class="cls-3" d="M39.49,59.84c0-3.67-2.06-6.26-5.68-6.26a5.44,5.44,0,0,0-4.31,2V53.94H27.14v14.8h2.44v-9a3.78,3.78,0,0,1,3.88-3.89c2.3,0,3.62,1.65,3.62,3.94v1.09h2.41Z"/><path class="cls-4" d="M70.57,56.39H73V55a6.26,6.26,0,0,0-12.52,0v4l-2.27,0v2.34h2.27v7.43h2.45v-7.4h7.63V59H62.94V55a3.82,3.82,0,1,1,7.63,0Z"/><path class="cls-5" d="M70.57,56.39H73V55a6.26,6.26,0,0,0-12.52,0v4l-2.27,0v2.34h2.27v7.43h2.45v-7.4h7.63V59H62.94V55a3.82,3.82,0,1,1,7.63,0Z"/><path class="cls-4" d="M97.08,59.58c0-3.69-2.06-6-5.48-6A5.19,5.19,0,0,0,87,56.1a5,5,0,0,0-4.56-2.52,4.79,4.79,0,0,0-3.94,2V53.94H76.12v14.8h2.43v-9a3.62,3.62,0,0,1,3.5-3.89c2.19,0,3.34,1.41,3.34,3.7v9.23h2.42v-9a3.58,3.58,0,0,1,3.47-3.89c2.27,0,3.37,1.41,3.37,3.7v9.23h2.43Z"/><path class="cls-5" d="M97.08,59.58c0-3.69-2.06-6-5.48-6A5.19,5.19,0,0,0,87,56.1a5,5,0,0,0-4.56-2.52,4.79,4.79,0,0,0-3.94,2V53.94H76.12v14.8h2.43v-9a3.62,3.62,0,0,1,3.5-3.89c2.19,0,3.34,1.41,3.34,3.7v9.23h2.42v-9a3.58,3.58,0,0,1,3.47-3.89c2.27,0,3.37,1.41,3.37,3.7v9.23h2.43Z"/><path class="cls-6" d="M54.28,53.94v9A6.15,6.15,0,1,1,42,62.85V53.94h2.42v9a3.64,3.64,0,0,0,3.64,3.91A3.88,3.88,0,0,0,51.87,63V53.94h2.41Z"/><path class="cls-3" d="M54.28,53.94v9A6.15,6.15,0,1,1,42,62.85V53.94h2.42v9a3.64,3.64,0,0,0,3.64,3.91A3.88,3.88,0,0,0,51.87,63V53.94h2.41Z"/></svg>