<svg id="Layer_1" data-name="Layer 1" xmlns="http://www.w3.org/2000/svg" viewBox="0 0 113.39 113.39"><defs><style>.cls-1{fill:#231f20;fill-rule:evenodd;}</style></defs><title>News App Logos</title><polygon class="cls-1" points="33.94 89.75 32.13 89.75 32.13 84.33 30.35 87.86 29.12 87.86 27.33 84.33 27.33 89.75 25.51 89.75 25.51 80.45 27.3 80.45 29.73 85.48 32.15 80.45 33.94 80.45 33.94 89.75"/><polygon class="cls-1" points="42.59 89.75 36.46 89.75 36.46 80.45 42.59 80.45 42.59 82.07 38.27 82.07 38.27 84.25 41.95 84.25 41.95 85.87 38.27 85.87 38.27 88.13 42.59 88.13 42.59 89.75"/><polygon class="cls-1" points="50.69 82.07 48.26 82.07 48.26 89.75 46.45 89.75 46.45 82.07 44.02 82.07 44.02 80.45 50.69 80.45 50.69 82.07"/><path class="cls-1" d="M59.56,89.75H57.45L55.64,86H54.33v3.71H52.51v-9.3h3.65a3,3,0,0,1,2.22.83,2.77,2.77,0,0,1,.8,2,2.52,2.52,0,0,1-.51,1.59,2.57,2.57,0,0,1-1.19.85Zm-2.2-6.45a1.15,1.15,0,0,0-.36-.89,1.36,1.36,0,0,0-1-.34H54.33v2.46H56a1.41,1.41,0,0,0,1-.34A1.18,1.18,0,0,0,57.36,83.3Z"/><path class="cls-1" d="M68,85.1a12.21,12.21,0,0,1-.12,2.1A3,3,0,0,1,67,88.81a3.61,3.61,0,0,1-5,0,3,3,0,0,1-.81-1.61,20.1,20.1,0,0,1,0-4.2A3,3,0,0,1,62,81.39a3.61,3.61,0,0,1,5,0A3,3,0,0,1,67.85,83,12.21,12.21,0,0,1,68,85.1Zm-1.82,0c0-.71,0-1.17,0-1.36a2.1,2.1,0,0,0-.43-1.25,1.49,1.49,0,0,0-1.16-.5,1.52,1.52,0,0,0-1.18.5,2.32,2.32,0,0,0-.42,1.25c0,.16,0,.61,0,1.36s0,1.2,0,1.36a2.32,2.32,0,0,0,.42,1.25,1.62,1.62,0,0,0,2.45-.13A5.27,5.27,0,0,0,66.15,85.1Z"/><polygon class="cls-1" points="79.8 81.34 75.02 81.34 75.02 84.76 79.09 84.76 79.09 85.65 75.02 85.65 75.02 89.75 74.02 89.75 74.02 80.45 79.8 80.45 79.8 81.34"/><polygon class="cls-1" points="89.92 89.75 88.93 89.75 88.93 82.68 86.38 88.29 85.53 88.29 82.94 82.68 82.94 89.75 81.95 89.75 81.95 80.45 82.94 80.45 85.97 87.05 88.93 80.45 89.92 80.45 89.92 89.75"/><polygon class="cls-1" points="45.18 20.79 45.18 47.92 47.83 47.92 47.83 37.49 53.59 37.49 53.59 41.92 56.22 41.92 56.23 32.09 61.83 32.09 61.83 26.01 67.45 26.01 67.45 74.14 56.22 74.14 56.23 50.63 50.63 74.14 42.29 74.14 36.75 50.63 36.74 74.14 25.49 74.14 25.49 27.2 31.1 27.2 31.1 32.13 36.71 32.13 36.71 37.49 39.36 37.49 39.36 20.79 45.18 20.79"/></svg>