<svg id="Layer_1" data-name="Layer 1" xmlns="http://www.w3.org/2000/svg" viewBox="0 0 113.39 113.39"><defs><style>.cls-1{fill:#cd5627;}.cls-2{fill:#00623e;}.cls-3{fill:#6f5024;}.cls-4{fill:#a35624;}.cls-5{fill:#4f532d;}.cls-6{fill:#005b39;}</style></defs><title>News App Logos</title><path class="cls-1" d="M62.67,55.05v0A3.32,3.32,0,0,1,66,51.62a3.46,3.46,0,0,1,2.56,1.05l-.34.36a3,3,0,0,0-2.23-1A2.82,2.82,0,0,0,63.18,55v0A2.84,2.84,0,0,0,66,58a3,3,0,0,0,2.27-1l.33.32A3.51,3.51,0,0,1,66,58.44,3.28,3.28,0,0,1,62.67,55.05Z"/><path class="cls-1" d="M69.92,51.73h.49v3.05h4.22V51.73h.49v6.59h-.49V55.23H70.41v3.09h-.49Z"/><path class="cls-1" d="M79.58,51.68h.47l3.08,6.64h-.54l-.84-1.84H77.86L77,58.32h-.51Zm2,4.35-1.73-3.81L78.07,56Z"/><path class="cls-1" d="M84.52,51.73H85l4.55,5.74V51.73H90v6.59h-.37L85,52.46v5.86h-.47Z"/><path class="cls-1" d="M92,51.73h.46L97,57.47V51.73h.47v6.59h-.36l-4.65-5.86v5.86H92Z"/><path class="cls-1" d="M99.4,51.73h4.69v.45h-4.2v2.59h3.78v.45H99.89v2.65h4.25v.45H99.4Z"/><path class="cls-1" d="M105.71,51.73h.49v6.14h3.87v.45h-4.36Z"/><path class="cls-1" d="M65,61h1.34l2.82,6.64H67.69l-.61-1.48H64.29l-.6,1.48H62.21Zm1.52,3.88-.87-2.14-.88,2.14Z"/><path class="cls-1" d="M70.22,61.07h5v1.32H71.67V63.8h3.15v1.32H71.67v2.55H70.22Z"/><path class="cls-1" d="M76.4,61.07h3a2.63,2.63,0,0,1,1.92.67,2.08,2.08,0,0,1,.57,1.51v0a2,2,0,0,1-1.41,2l1.61,2.36H80.4L79,65.56H77.85v2.11H76.4Zm2.92,3.21c.71,0,1.11-.38,1.11-.94h0c0-.63-.43-.95-1.14-.95H77.85v1.9Z"/><path class="cls-1" d="M83.28,61.07h1.45v6.6H83.28Z"/><path class="cls-1" d="M86.08,64.39v0A3.36,3.36,0,0,1,89.52,61a3.42,3.42,0,0,1,2.6,1L91.2,63a2.45,2.45,0,0,0-1.69-.74,2,2,0,0,0-1.91,2v0a2,2,0,0,0,1.91,2.07,2.37,2.37,0,0,0,1.73-.77l.93.93a3.36,3.36,0,0,1-2.71,1.18A3.33,3.33,0,0,1,86.08,64.39Z"/><path class="cls-1" d="M95.59,61h1.33l2.83,6.64H98.23l-.6-1.48H94.84l-.6,1.48H92.76Zm1.52,3.88-.87-2.14-.88,2.14Z"/><path class="cls-1" d="M62.77,71.58h-.62v-.41h1.69v.41h-.62V73.2h-.45Z"/><path class="cls-1" d="M64.18,71.17h.45V72h.82v-.8h.45v2h-.45v-.81h-.82v.81h-.45Z"/><path class="cls-1" d="M66.39,71.17h1.53v.4H66.83V72h1v.4h-1v.42h1.11v.4H66.39Z"/><path class="cls-1" d="M69.9,71.15h.42l.87,2h-.47l-.19-.45h-.86l-.18.45H69Zm.47,1.2-.27-.66-.27.66Z"/><path class="cls-1" d="M71.5,71.17h1.55v.41H72V72h1v.41H72v.78H71.5Z"/><path class="cls-1" d="M73.41,71.17h.93a.8.8,0,0,1,.59.21.64.64,0,0,1,.17.46h0a.64.64,0,0,1-.43.63l.49.72h-.52l-.43-.65h-.36v.65h-.44Zm.9,1c.21,0,.34-.12.34-.29h0c0-.19-.13-.29-.35-.29h-.45v.59Z"/><path class="cls-1" d="M75.53,71.17H76v2h-.44Z"/><path class="cls-1" d="M76.39,72.19h0a1,1,0,0,1,1.06-1.06,1,1,0,0,1,.8.32l-.28.33a.73.73,0,0,0-.52-.23.6.6,0,0,0-.59.63h0a.61.61,0,0,0,.59.64.75.75,0,0,0,.53-.24l.29.28a1.07,1.07,0,0,1-1.88-.68Z"/><path class="cls-1" d="M79.32,71.15h.42l.87,2h-.47L80,72.75h-.86l-.18.45h-.46Zm.47,1.2-.27-.66-.27.66Z"/><path class="cls-1" d="M80.92,71.17h.41l1,1.25V71.17h.44v2h-.38l-1-1.29V73.2h-.44Z"/><path class="cls-1" d="M84.09,71.17h.83a.69.69,0,0,1,.77.7h0c0,.47-.36.71-.82.71h-.34v.61h-.44Zm.8,1a.31.31,0,0,0,.35-.3h0c0-.2-.14-.31-.36-.31h-.35v.62Z"/><path class="cls-1" d="M86,71.17h1.53v.4H86.47V72h1v.4h-1v.42h1.1v.4H86Z"/><path class="cls-1" d="M88,71.17h.93a.77.77,0,0,1,.59.21.6.6,0,0,1,.18.46h0a.64.64,0,0,1-.44.63l.5.72h-.52l-.44-.65h-.35v.65H88Zm.9,1c.22,0,.34-.12.34-.29h0c0-.19-.13-.29-.35-.29h-.44v.59Z"/><path class="cls-1" d="M89.93,72.91l.27-.32a.92.92,0,0,0,.6.25c.19,0,.3-.08.3-.19h0c0-.11-.07-.17-.41-.26s-.68-.22-.68-.62h0a.63.63,0,0,1,.71-.61,1.17,1.17,0,0,1,.76.26l-.23.34a.92.92,0,0,0-.53-.2c-.17,0-.26.07-.26.17h0c0,.13.08.18.44.27s.64.25.64.61h0c0,.41-.31.63-.75.63A1.35,1.35,0,0,1,89.93,72.91Z"/><path class="cls-1" d="M91.93,71.17h.83a.7.7,0,0,1,.78.7h0a.73.73,0,0,1-.82.71h-.34v.61h-.45Zm.8,1c.23,0,.36-.13.36-.3h0c0-.2-.14-.31-.37-.31h-.34v.62Z"/><path class="cls-1" d="M93.87,71.17H95.4v.4H94.31V72h1v.4h-1v.42h1.11v.4H93.87Z"/><path class="cls-1" d="M95.73,72.19h0a1.09,1.09,0,0,1,1.86-.74l-.29.33a.7.7,0,0,0-.52-.23.6.6,0,0,0-.59.63h0a.62.62,0,0,0,.59.64.76.76,0,0,0,.54-.24l.28.28a1.06,1.06,0,0,1-1.87-.68Z"/><path class="cls-1" d="M98.43,71.58h-.62v-.41H99.5v.41h-.62V73.2h-.45Z"/><path class="cls-1" d="M99.86,71.17h.45v2h-.45Z"/><path class="cls-1" d="M100.64,71.17h.5l.53,1.43.53-1.43h.48l-.82,2h-.39Z"/><path class="cls-1" d="M103,71.17h1.53v.4h-1.09V72h1v.4h-1v.42h1.1v.4H103Z"/><polygon id="_Path_" data-name="&lt;Path&gt;" class="cls-2" points="42.49 21.66 39.37 24.29 39.33 24.26 32.76 18.66 32.76 18.66 32.69 18.72 26.15 24.29 26.15 24.29 19.54 18.66 19.54 18.66 19.51 18.69 12.99 24.24 10.01 26.79 12.93 29.37 12.99 29.32 19.51 23.77 19.54 23.75 26.15 29.37 32.69 23.8 32.76 23.75 39.16 29.2 39.33 29.34 39.37 29.37 45.45 24.19 42.49 21.66"/><polygon id="_Path_2" data-name="&lt;Path&gt;" class="cls-3" points="55.66 52.15 52.7 54.65 52.55 54.77 46.06 49.25 45.93 49.14 39.33 54.76 39.32 54.77 32.71 49.14 32.69 49.16 26.85 54.15 29.78 56.73 32.69 54.23 32.73 54.2 39.32 59.85 39.33 59.84 45.94 54.23 46.06 54.33 52.54 59.85 52.7 59.72 58.62 54.67 55.66 52.15"/><polygon id="_Path_3" data-name="&lt;Path&gt;" class="cls-1" points="46.06 69.58 45.93 69.48 39.33 75.09 39.32 75.11 32.71 69.48 32.69 69.49 29.78 72 29.77 72 32.69 74.5 39.32 80.19 39.33 80.18 46.06 74.44 48.9 72.02 46.06 69.58"/><polygon id="_Path_4" data-name="&lt;Path&gt;" class="cls-4" points="46.06 59.4 45.93 59.29 39.33 64.91 39.32 64.92 32.71 59.29 32.69 59.31 29.78 61.81 32.69 64.31 39.32 70 39.33 69.99 45.94 64.38 46.06 64.48 48.88 66.83 51.82 64.29 46.06 59.4"/><polygon id="_Path_5" data-name="&lt;Path&gt;" class="cls-5" points="59.21 38.96 59.19 38.98 52.7 44.46 52.55 44.59 46.06 39.06 45.93 38.96 39.33 44.58 39.32 44.59 32.71 38.96 32.69 38.98 26.15 44.57 26.12 44.59 19.51 38.96 19.51 38.96 12.99 44.51 12.9 44.59 6.35 39.01 6.29 38.96 3.3 41.52 6.35 44.11 12.9 49.67 12.99 49.59 19.51 44.05 19.52 44.04 26.12 49.67 26.15 49.65 32.69 44.06 32.72 44.04 39.32 49.67 39.33 49.66 45.94 44.04 46.06 44.15 52.34 49.49 52.54 49.67 52.7 49.54 59.19 44.06 59.21 44.04 61.64 46.12 64.61 43.57 64.61 43.57 59.21 38.96"/><polygon id="_Path_6" data-name="&lt;Path&gt;" class="cls-6" points="55.09 32.39 52.7 34.43 52.68 34.45 46.07 28.81 46.06 28.82 39.45 34.44 39.33 34.33 32.85 28.81 32.69 28.94 26.26 34.44 26.15 34.35 19.65 28.81 19.51 28.92 13.03 34.44 12.99 34.4 7.01 29.3 6.35 29.86 4.01 31.86 6.35 33.85 12.99 39.48 13.04 39.52 19.51 34.01 19.65 33.9 26.15 39.43 26.26 39.52 32.69 34.03 32.85 33.9 39.33 39.41 39.46 39.52 46.06 33.91 46.07 33.9 52.47 39.35 52.68 39.52 52.7 39.5 58.08 34.92 55.09 32.39"/></svg>