<svg id="Layer_1" data-name="Layer 1" xmlns="http://www.w3.org/2000/svg" xmlns:xlink="http://www.w3.org/1999/xlink" viewBox="0 0 113.39 113.39"><defs><style>.cls-1,.cls-8,.cls-9{fill:none;}.cls-2{clip-path:url(#clip-path);}.cls-3{fill:#d2232a;}.cls-4{fill:#f68631;}.cls-5{fill:#41ad49;}.cls-6{fill:#25408f;}.cls-7{fill:#231f20;}.cls-8{stroke:#d2232a;}.cls-8,.cls-9{stroke-width:0.35px;}.cls-9{stroke:#41ad49;}</style><clipPath id="clip-path"><rect class="cls-1" x="8.71" y="21.71" width="95.33" height="63.55"/></clipPath></defs><title>News App Logos</title><g class="cls-2"><g class="cls-2"><path class="cls-3" d="M95.47,75.34H95l-.09-1.25v-.17a.45.45,0,0,1,0-.11l0-.5v-.44c0,.09,0,.17,0,.23s0,.12,0,.17l-.06.33,0,.13-.31,1.61h-.33L93.77,74c0-.18-.08-.37-.11-.56s-.06-.38-.08-.59l-.14,2.54H93l.3-3.69h.43L94,73.16c0,.18.08.37.11.56l.09.59v-.09l.07-.42.06-.4.06-.27.28-1.48h.43Zm-3.1-3.27h-.83v1.17h.75v.42h-.75v1.68h-.49V71.65h1.32ZM96,70.65H90.49v5.69H96Z"/></g><rect class="cls-4" x="52.05" y="30.63" width="0.7" height="9.27"/><rect class="cls-4" x="59.96" y="30.63" width="0.7" height="9.27"/><rect class="cls-5" x="50.64" y="30.63" width="0.7" height="9.27"/><rect class="cls-5" x="61.37" y="30.63" width="0.7" height="9.27"/><rect class="cls-6" x="45.51" y="30.63" width="0.7" height="9.27"/><rect class="cls-6" x="66.49" y="30.63" width="0.7" height="9.27"/><rect class="cls-5" x="40.59" y="30.63" width="1.41" height="9.27"/><rect class="cls-5" x="70.71" y="30.63" width="1.41" height="9.27"/><rect class="cls-3" x="44.11" y="30.63" width="0.7" height="9.27"/><rect class="cls-3" x="67.9" y="30.63" width="0.7" height="9.27"/><rect class="cls-7" x="32.52" y="30.63" width="1.41" height="9.27"/><rect class="cls-7" x="78.78" y="30.63" width="1.41" height="9.27"/><rect class="cls-6" x="36.04" y="30.63" width="0.7" height="9.27"/><rect class="cls-6" x="75.97" y="30.63" width="0.7" height="9.27"/><rect class="cls-4" x="29.7" y="30.63" width="2.11" height="9.27"/><rect class="cls-4" x="80.89" y="30.63" width="2.11" height="9.27"/><rect class="cls-5" x="21.72" y="30.63" width="0.7" height="9.27"/><rect class="cls-5" x="90.49" y="30.63" width="0.7" height="9.27"/><rect class="cls-3" x="16.79" y="30.63" width="1.41" height="9.27"/><rect class="cls-3" x="94.71" y="30.63" width="1.41" height="9.27"/><rect class="cls-7" x="20.31" y="30.63" width="0.7" height="9.27"/><rect class="cls-7" x="91.9" y="30.63" width="0.7" height="9.27"/><rect class="cls-4" x="52.05" y="59.44" width="0.7" height="9.27"/><rect class="cls-4" x="59.96" y="59.44" width="0.7" height="9.27"/><rect class="cls-5" x="50.64" y="59.44" width="0.7" height="9.27"/><rect class="cls-5" x="61.37" y="59.44" width="0.7" height="9.27"/><rect class="cls-6" x="45.51" y="59.44" width="0.7" height="9.27"/><rect class="cls-6" x="66.49" y="59.44" width="0.7" height="9.27"/><rect class="cls-5" x="40.59" y="59.44" width="1.41" height="9.27"/><rect class="cls-5" x="70.71" y="59.44" width="1.41" height="9.27"/><rect class="cls-3" x="44.11" y="59.44" width="0.7" height="9.27"/><rect class="cls-3" x="67.9" y="59.44" width="0.7" height="9.27"/><rect class="cls-7" x="32.52" y="59.44" width="1.41" height="9.27"/><rect class="cls-7" x="78.78" y="59.44" width="1.41" height="9.27"/><rect class="cls-6" x="36.04" y="59.44" width="0.7" height="9.27"/><rect class="cls-6" x="75.97" y="59.44" width="0.7" height="9.27"/><rect class="cls-4" x="29.7" y="59.44" width="2.11" height="9.27"/><rect class="cls-4" x="80.89" y="59.44" width="2.11" height="9.27"/><rect class="cls-5" x="21.72" y="59.44" width="0.7" height="9.27"/><rect class="cls-5" x="90.49" y="59.44" width="0.7" height="9.27"/><rect class="cls-3" x="16.79" y="59.44" width="1.41" height="9.27"/><rect class="cls-3" x="94.71" y="59.44" width="1.41" height="9.27"/><rect class="cls-7" x="20.31" y="59.44" width="0.7" height="9.27"/><rect class="cls-7" x="91.9" y="59.44" width="0.7" height="9.27"/><g class="cls-2"><path class="cls-3" d="M90.85,53.19l1.62-6.38L94,53.19Zm1.34-10.47-3.36,13.6h1.24l.49-1.9h3.79l.47,1.9h1.27L92.7,42.72ZM87.82,55.1H83.16V42.72H81.92v13.6h5.9ZM74.76,53.19l1.61-6.38L78,53.19ZM76.1,42.72l-3.37,13.6H74l.49-1.9h3.79l.47,1.9H80l-3.38-13.6Zm-6.52,3.77H66.39V42.72H65.16v13.6h1.23v-8.6h3.19v8.6h1.23V42.72H69.58Zm-11,5.38a6.08,6.08,0,0,0,.87-.11,3.31,3.31,0,0,0,.82-.28,4.85,4.85,0,0,0,1.42-1,4.61,4.61,0,0,0,1-1.46,4.45,4.45,0,0,0,0-3.46,8.08,8.08,0,0,0-.43-.77,4.35,4.35,0,0,0-.55-.67,5,5,0,0,0-1.42-1,4.24,4.24,0,0,0-1.69-.41H57.32v13.6h1.23Zm0-7.95a4.14,4.14,0,0,1,.63.1,3.73,3.73,0,0,1,.61.22,3.6,3.6,0,0,1,1,.72,3.39,3.39,0,0,1,.72,1,3.43,3.43,0,0,1,0,2.57,3.39,3.39,0,0,1-.72,1.05,3.46,3.46,0,0,1-1,.74,3.09,3.09,0,0,1-1.24.29Zm-8.39,9.27,1.62-6.38,1.57,6.38ZM51.5,42.72l-3.36,13.6h1.24l.49-1.9h3.8l.46,1.9H55.4L52,42.72ZM47.13,55.1H42.48V42.72H41.23v13.6h5.9ZM34.07,53.19l1.61-6.38,1.58,6.38Zm1.34-10.47L32,56.32h1.25l.49-1.9h3.79l.47,1.9h1.27l-3.39-13.6Zm-6.52,3.77H25.7V42.72H24.48v13.6H25.7v-8.6h3.19v8.6h1.23V42.72H28.89Zm-11,5.38a6.41,6.41,0,0,0,.88-.11,3.38,3.38,0,0,0,.81-.28,4.85,4.85,0,0,0,1.42-1A4.61,4.61,0,0,0,22,49a4.45,4.45,0,0,0,0-3.46,8.08,8.08,0,0,0-.43-.77,4.35,4.35,0,0,0-.55-.67,5,5,0,0,0-1.42-1,4.24,4.24,0,0,0-1.69-.41H16.63v13.6h1.23Zm0-7.95a4.14,4.14,0,0,1,.63.1,4.2,4.2,0,0,1,.62.22,3.56,3.56,0,0,1,1,.72,3.39,3.39,0,0,1,.72,1,3.43,3.43,0,0,1,0,2.57,3.39,3.39,0,0,1-.72,1.05,3.55,3.55,0,0,1-1,.74,3.14,3.14,0,0,1-1.25.29Z"/><path class="cls-3" d="M82.39,73.72a.7.7,0,0,1,0,1,.82.82,0,0,1-.61.23,1,1,0,0,1-.43-.09.69.69,0,0,1-.29-.27.66.66,0,0,1-.11-.36.73.73,0,0,1,.25-.55.89.89,0,0,1,1.18,0m-.1-1.55a.54.54,0,0,1,.18.39.58.58,0,0,1-.09.3.59.59,0,0,1-.24.23.68.68,0,0,1-.81-.1.59.59,0,0,1-.2-.42.53.53,0,0,1,.19-.41A.69.69,0,0,1,81.8,72a.64.64,0,0,1,.49.18m.4.83a.7.7,0,0,0,.13-.42,1,1,0,0,0-.13-.46.94.94,0,0,0-.37-.34,1,1,0,0,0-.51-.13,1.06,1.06,0,0,0-.52.13.9.9,0,0,0-.38.34.81.81,0,0,0-.13.45.79.79,0,0,0,.12.42,1.07,1.07,0,0,0,.39.33,1.26,1.26,0,0,0-.52.42.88.88,0,0,0-.16.53,1.07,1.07,0,0,0,.3.73,1.12,1.12,0,0,0,.88.33,1.18,1.18,0,0,0,.93-.38,1.09,1.09,0,0,0,.26-.71.91.91,0,0,0-.15-.52,1.44,1.44,0,0,0-.51-.4,1.07,1.07,0,0,0,.37-.32m-3.06,1.8a.29.29,0,0,0,0,.42.25.25,0,0,0,.2.09A.3.3,0,0,0,80,74.8a.32.32,0,0,0-.21-.08.28.28,0,0,0-.2.08M77,72.07h1.67l-1.62,3.11.29.15,1.88-3.59H77Zm-2.36.53a.92.92,0,0,1,.31-.46.66.66,0,0,1,.44-.16.68.68,0,0,1,.43.16.94.94,0,0,1,.32.49,3.2,3.2,0,0,1,0,1.77.92.92,0,0,1-.31.46.7.7,0,0,1-.43.15.73.73,0,0,1-.44-.15,1,1,0,0,1-.31-.47,2.57,2.57,0,0,1-.11-.89,2.87,2.87,0,0,1,.11-.9m-.29,2a1.23,1.23,0,0,0,.42.58,1.07,1.07,0,0,0,.6.19,1,1,0,0,0,.62-.2,1.3,1.3,0,0,0,.44-.59,3.53,3.53,0,0,0,0-2.1,1.37,1.37,0,0,0-.44-.59,1,1,0,0,0-.62-.2,1,1,0,0,0-.6.2,1.25,1.25,0,0,0-.42.57,3.89,3.89,0,0,0,0,2.14m-2-2.48h.55v3.16h.34v-3.5h-.68Zm-1.87,2h1.31v-.29H70.5Zm-2-.82a.69.69,0,0,1-.22-.52.72.72,0,0,1,.21-.52.74.74,0,0,1,1,0,.75.75,0,0,1,0,1,.73.73,0,0,1-.52.22.71.71,0,0,1-.52-.22m1.2.5a4.31,4.31,0,0,0,.31-.57,1.54,1.54,0,0,0,.08-.46,1,1,0,0,0-.14-.53,1,1,0,0,0-.38-.4,1.14,1.14,0,0,0-.54-.14,1.06,1.06,0,0,0-.55.15.89.89,0,0,0-.4.39,1,1,0,0,0-.14.54,1,1,0,0,0,.29.74.94.94,0,0,0,.71.3,1.12,1.12,0,0,0,.35-.06l-.94,1.43.28.19Zm-2.82,1a.3.3,0,0,0,.21.51.25.25,0,0,0,.2-.09.29.29,0,0,0,0-.42.28.28,0,0,0-.2-.08.32.32,0,0,0-.21.08m-2.2-2.73H66.3l-1.61,3.11.29.15,1.87-3.59H64.63Zm-1.11,1.65a.72.72,0,0,1,.24.52.71.71,0,0,1-.22.53.84.84,0,0,1-.61.23,1,1,0,0,1-.44-.09.75.75,0,0,1-.29-.27.65.65,0,0,1-.1-.36.75.75,0,0,1,.24-.55A.83.83,0,0,1,63,73.5a.8.8,0,0,1,.57.22m-.09-1.55a.54.54,0,0,1,.08.69.53.53,0,0,1-.24.23.63.63,0,0,1-.33.09.64.64,0,0,1-.47-.19.53.53,0,0,1,0-.83.72.72,0,0,1,.48-.17.67.67,0,0,1,.5.18m.4.83a.76.76,0,0,0,.12-.42.87.87,0,0,0-.13-.46,1,1,0,0,0-.36-.34,1,1,0,0,0-.51-.13,1,1,0,0,0-.52.13.84.84,0,0,0-.38.34.82.82,0,0,0-.14.45A.72.72,0,0,0,62,73a1,1,0,0,0,.38.33,1.33,1.33,0,0,0-.52.42,1,1,0,0,0-.16.53A1.07,1.07,0,0,0,62,75a1.14,1.14,0,0,0,.88.33,1.16,1.16,0,0,0,.93-.38,1,1,0,0,0,.26-.71.91.91,0,0,0-.15-.52,1.28,1.28,0,0,0-.51-.4,1.11,1.11,0,0,0,.38-.32"/><path class="cls-8" d="M82.39,73.72a.7.7,0,0,1,0,1,.82.82,0,0,1-.61.23,1,1,0,0,1-.43-.09.69.69,0,0,1-.29-.27.66.66,0,0,1-.11-.36.73.73,0,0,1,.25-.55.89.89,0,0,1,1.18,0Zm-.1-1.55a.54.54,0,0,1,.18.39.58.58,0,0,1-.09.3.59.59,0,0,1-.24.23.68.68,0,0,1-.81-.1.59.59,0,0,1-.2-.42.53.53,0,0,1,.19-.41A.69.69,0,0,1,81.8,72,.64.64,0,0,1,82.29,72.17Zm.4.83a.7.7,0,0,0,.13-.42,1,1,0,0,0-.13-.46.94.94,0,0,0-.37-.34,1,1,0,0,0-.51-.13,1.06,1.06,0,0,0-.52.13.9.9,0,0,0-.38.34.81.81,0,0,0-.13.45.79.79,0,0,0,.12.42,1.07,1.07,0,0,0,.39.33,1.26,1.26,0,0,0-.52.42.88.88,0,0,0-.16.53,1.07,1.07,0,0,0,.3.73,1.12,1.12,0,0,0,.88.33,1.18,1.18,0,0,0,.93-.38,1.09,1.09,0,0,0,.26-.71.91.91,0,0,0-.15-.52,1.44,1.44,0,0,0-.51-.4A1.07,1.07,0,0,0,82.69,73Zm-3.06,1.8a.29.29,0,0,0,0,.42.25.25,0,0,0,.2.09A.3.3,0,0,0,80,74.8a.32.32,0,0,0-.21-.08A.28.28,0,0,0,79.63,74.8ZM77,72.07h1.67l-1.62,3.11.29.15,1.88-3.59H77Zm-2.36.53a.92.92,0,0,1,.31-.46.66.66,0,0,1,.44-.16.68.68,0,0,1,.43.16.94.94,0,0,1,.32.49,3.2,3.2,0,0,1,0,1.77.92.92,0,0,1-.31.46.7.7,0,0,1-.43.15.73.73,0,0,1-.44-.15,1,1,0,0,1-.31-.47,2.57,2.57,0,0,1-.11-.89A2.87,2.87,0,0,1,74.68,72.6Zm-.29,2a1.23,1.23,0,0,0,.42.58,1.07,1.07,0,0,0,.6.19,1,1,0,0,0,.62-.2,1.3,1.3,0,0,0,.44-.59,3.53,3.53,0,0,0,0-2.1,1.37,1.37,0,0,0-.44-.59,1,1,0,0,0-.62-.2,1,1,0,0,0-.6.2,1.25,1.25,0,0,0-.42.57,3.89,3.89,0,0,0,0,2.14Zm-2-2.48h.55v3.16h.34v-3.5h-.68Zm-1.87,2h1.31v-.29H70.5Zm-2-.82a.69.69,0,0,1-.22-.52.72.72,0,0,1,.21-.52.74.74,0,0,1,1,0,.75.75,0,0,1,0,1,.73.73,0,0,1-.52.22A.71.71,0,0,1,68.45,73.25Zm1.2.5a4.31,4.31,0,0,0,.31-.57,1.54,1.54,0,0,0,.08-.46,1,1,0,0,0-.14-.53,1,1,0,0,0-.38-.4,1.14,1.14,0,0,0-.54-.14,1.06,1.06,0,0,0-.55.15.89.89,0,0,0-.4.39,1,1,0,0,0-.14.54,1,1,0,0,0,.29.74.94.94,0,0,0,.71.3,1.12,1.12,0,0,0,.35-.06l-.94,1.43.28.19Zm-2.82,1a.3.3,0,0,0,.21.51.25.25,0,0,0,.2-.09.29.29,0,0,0,0-.42.28.28,0,0,0-.2-.08A.32.32,0,0,0,66.83,74.8Zm-2.2-2.73H66.3l-1.61,3.11.29.15,1.87-3.59H64.63Zm-1.11,1.65a.72.72,0,0,1,.24.52.71.71,0,0,1-.22.53.84.84,0,0,1-.61.23,1,1,0,0,1-.44-.09.75.75,0,0,1-.29-.27.65.65,0,0,1-.1-.36.75.75,0,0,1,.24-.55A.83.83,0,0,1,63,73.5.8.8,0,0,1,63.52,73.72Zm-.09-1.55a.54.54,0,0,1,.08.69.53.53,0,0,1-.24.23.63.63,0,0,1-.33.09.64.64,0,0,1-.47-.19.53.53,0,0,1,0-.83.72.72,0,0,1,.48-.17A.67.67,0,0,1,63.43,72.17Zm.4.83a.76.76,0,0,0,.12-.42.87.87,0,0,0-.13-.46,1,1,0,0,0-.36-.34,1,1,0,0,0-.51-.13,1,1,0,0,0-.52.13.84.84,0,0,0-.38.34.82.82,0,0,0-.14.45A.72.72,0,0,0,62,73a1,1,0,0,0,.38.33,1.33,1.33,0,0,0-.52.42,1,1,0,0,0-.16.53A1.07,1.07,0,0,0,62,75a1.14,1.14,0,0,0,.88.33,1.16,1.16,0,0,0,.93-.38,1,1,0,0,0,.26-.71.91.91,0,0,0-.15-.52,1.28,1.28,0,0,0-.51-.4A1.11,1.11,0,0,0,63.83,73Z"/><path class="cls-5" d="M56.49,75.3h1.58V75H56.82V73h1v-.33h-1V72h1.25v-.33H56.49Zm-1.21-2.62h-.85v-1H54.1V75.3h.33V73h.85V75.3h.33V71.67h-.33ZM52.85,75.3V72h.62v-.33H51.89V72h.63v3.3Zm-3.74-3.15a1.47,1.47,0,0,1,.71-.18,1.52,1.52,0,0,1,.59.12,1.6,1.6,0,0,1,.81.81,1.52,1.52,0,0,1,.12.59,1.43,1.43,0,0,1-.12.58,1.7,1.7,0,0,1-.33.48,1.76,1.76,0,0,1-.49.33,1.43,1.43,0,0,1-.58.12,1.46,1.46,0,0,1-.6-.12,1.51,1.51,0,0,1-.49-.33,1.49,1.49,0,0,1-.32-.48,1.48,1.48,0,0,1,.14-1.42,1.42,1.42,0,0,1,.56-.5m2.4.63a2.16,2.16,0,0,0-.39-.59,2,2,0,0,0-.59-.39,1.78,1.78,0,0,0-1.43,0,1.77,1.77,0,0,0-1,1,1.67,1.67,0,0,0-.15.71,1.71,1.71,0,0,0,.15.71,1.87,1.87,0,0,0,.17.31,1.49,1.49,0,0,0,.23.27,1.18,1.18,0,0,0,.27.23,1.41,1.41,0,0,0,.32.17,1.86,1.86,0,0,0,2-.39,1.9,1.9,0,0,0,.39-.59,1.76,1.76,0,0,0,0-1.42M46.77,75.3V73.48L48,71.67h-.4l-1,1.46-1-1.46h-.4l1.22,1.81V75.3Zm-3.46,0h.33V71.67h-.33Zm-2.14-.17a1.17,1.17,0,0,0,.62.19,1.06,1.06,0,0,0,.37-.06.83.83,0,0,0,.52-.8,2.5,2.5,0,0,0-.49-1.14l-.27-.4a1.26,1.26,0,0,1-.28-.59A.31.31,0,0,1,42,72a.54.54,0,0,1,.34.15h0s.09-.07.23-.21a.62.62,0,0,0-.52-.28.75.75,0,0,0-.26,0,.93.93,0,0,0-.22.14.65.65,0,0,0-.16.22.59.59,0,0,0-.07.29,2.05,2.05,0,0,0,.48,1l.27.38a1.48,1.48,0,0,1,.3.65.6.6,0,0,1,0,.24l-.06.1a.3.3,0,0,1-.08.08.41.41,0,0,1-.2.12.67.67,0,0,1-.24,0,.78.78,0,0,1-.57-.25Zm-1,.17h.33V71.67h-.33Zm-3-3.63-.91,3.63h.34l.64-2.54.63,2.54H38l.63-2.54.64,2.54h.33l-.9-3.63h-.13L38,74.12l-.61-2.45ZM34.28,75.3h.33V71.67h-.33Zm-3.11,0,.74-3,.74,3h.13l.91-3.63h-.34l-.63,2.55-.64-2.55h-.34l-.63,2.55-.64-2.55h-.33L31,75.3ZM28,71.67V75.3h.33V73.15l.8,2.15h.38V71.67h-.32V74.5l-1.06-2.83Zm-.67,0h-.3V72h.15c0,.19-.05.28-.15.28v.14q.3,0,.3-.42Zm-3.23,2.8.44-1.71L25,74.47Zm.36-2.8-.9,3.63h.33l.13-.51h1l.13.51h.33l-.9-3.63Zm-3,0V75.3h.33V73.15l.8,2.15H23V71.67h-.32V74.5l-1.06-2.83ZM19.06,75.3h.33V71.67h-.33ZM17.15,72a1.05,1.05,0,0,1,.34.08,1,1,0,0,1,.27.19,1,1,0,0,1,.19.29.77.77,0,0,1,.07.34,1,1,0,0,1-.06.34.85.85,0,0,1-.18.28,1.1,1.1,0,0,1-.28.2.82.82,0,0,1-.35.08Zm-.33-.32V75.3h.33V74.11h0l.09.07.09.09.05.07a.22.22,0,0,1,0,.08.19.19,0,0,1,.05.09l.06.1.13.29a1.06,1.06,0,0,0,.66.43V75a.77.77,0,0,1-.46-.39l-.16-.3a1.09,1.09,0,0,0-.08-.15l-.05-.07L17.57,74a1.17,1.17,0,0,0,.77-1.14,1.06,1.06,0,0,0-.1-.46,1.14,1.14,0,0,0-.25-.38,1.46,1.46,0,0,0-.38-.27,1.41,1.41,0,0,0-.46-.11Z"/><path class="cls-9" d="M56.49,75.3h1.58V75H56.82V73h1v-.33h-1V72h1.25v-.33H56.49Zm-1.21-2.62h-.85v-1H54.1V75.3h.33V73h.85V75.3h.33V71.67h-.33ZM52.85,75.3V72h.62v-.33H51.89V72h.63v3.3Zm-3.74-3.15a1.47,1.47,0,0,1,.71-.18,1.52,1.52,0,0,1,.59.12,1.6,1.6,0,0,1,.81.81,1.52,1.52,0,0,1,.12.59,1.43,1.43,0,0,1-.12.58,1.7,1.7,0,0,1-.33.48,1.76,1.76,0,0,1-.49.33,1.43,1.43,0,0,1-.58.12,1.46,1.46,0,0,1-.6-.12,1.51,1.51,0,0,1-.49-.33,1.49,1.49,0,0,1-.32-.48,1.48,1.48,0,0,1,.14-1.42A1.42,1.42,0,0,1,49.11,72.15Zm2.4.63a2.16,2.16,0,0,0-.39-.59,2,2,0,0,0-.59-.39,1.78,1.78,0,0,0-1.43,0,1.77,1.77,0,0,0-1,1,1.67,1.67,0,0,0-.15.71,1.71,1.71,0,0,0,.15.71,1.87,1.87,0,0,0,.17.31,1.49,1.49,0,0,0,.23.27,1.18,1.18,0,0,0,.27.23,1.41,1.41,0,0,0,.32.17,1.86,1.86,0,0,0,2-.39,1.9,1.9,0,0,0,.39-.59,1.76,1.76,0,0,0,0-1.42ZM46.77,75.3V73.48L48,71.67h-.4l-1,1.46-1-1.46h-.4l1.22,1.81V75.3Zm-3.46,0h.33V71.67h-.33Zm-2.14-.17a1.17,1.17,0,0,0,.62.19,1.06,1.06,0,0,0,.37-.06.83.83,0,0,0,.52-.8,2.5,2.5,0,0,0-.49-1.14l-.27-.4a1.26,1.26,0,0,1-.28-.59A.31.31,0,0,1,42,72a.54.54,0,0,1,.34.15h0s.09-.07.23-.21a.62.62,0,0,0-.52-.28.75.75,0,0,0-.26,0,.93.93,0,0,0-.22.14.65.65,0,0,0-.16.22.59.59,0,0,0-.07.29,2.05,2.05,0,0,0,.48,1l.27.38a1.48,1.48,0,0,1,.3.65.6.6,0,0,1,0,.24l-.06.1a.3.3,0,0,1-.08.08.41.41,0,0,1-.2.12.67.67,0,0,1-.24,0,.78.78,0,0,1-.57-.25Zm-1,.17h.33V71.67h-.33Zm-3-3.63-.91,3.63h.34l.64-2.54.63,2.54H38l.63-2.54.64,2.54h.33l-.9-3.63h-.13L38,74.12l-.61-2.45ZM34.28,75.3h.33V71.67h-.33Zm-3.11,0,.74-3,.74,3h.13l.91-3.63h-.34l-.63,2.55-.64-2.55h-.34l-.63,2.55-.64-2.55h-.33L31,75.3ZM28,71.67V75.3h.33V73.15l.8,2.15h.38V71.67h-.32V74.5l-1.06-2.83Zm-.67,0h-.3V72h.15c0,.19-.05.28-.15.28v.14q.3,0,.3-.42Zm-3.23,2.8.44-1.71L25,74.47Zm.36-2.8-.9,3.63h.33l.13-.51h1l.13.51h.33l-.9-3.63Zm-3,0V75.3h.33V73.15l.8,2.15H23V71.67h-.32V74.5l-1.06-2.83ZM19.06,75.3h.33V71.67h-.33ZM17.15,72a1.05,1.05,0,0,1,.34.08,1,1,0,0,1,.27.19,1,1,0,0,1,.19.29.77.77,0,0,1,.07.34,1,1,0,0,1-.06.34.85.85,0,0,1-.18.28,1.1,1.1,0,0,1-.28.2.82.82,0,0,1-.35.08Zm-.33-.32V75.3h.33V74.11h0l.09.07.09.09.05.07a.22.22,0,0,1,0,.08.19.19,0,0,1,.05.09l.06.1.13.29a1.06,1.06,0,0,0,.66.43V75a.77.77,0,0,1-.46-.39l-.16-.3a1.09,1.09,0,0,0-.08-.15l-.05-.07L17.57,74a1.17,1.17,0,0,0,.77-1.14,1.06,1.06,0,0,0-.1-.46,1.14,1.14,0,0,0-.25-.38,1.46,1.46,0,0,0-.38-.27,1.41,1.41,0,0,0-.46-.11Z"/></g></g></svg>