<svg id="Layer_1" data-name="Layer 1" xmlns="http://www.w3.org/2000/svg" viewBox="0 0 113.39 113.39"><defs><style>.cls-1{fill:#e11b22;stroke:#e11b22;stroke-miterlimit:3.86;stroke-width:0.07px;fill-rule:evenodd;}</style></defs><title>News App Logos</title><path class="cls-1" d="M47.55,70.79,42,57.38l23.23-9.61,1.6,3.87-19,7.87,2,4.91a6.8,6.8,0,0,1,2.3-1.78c1.12-.59,2.32-1,3-1.32l7-2.92c5-2.1,8.77-1.92,11,3.4l1.07,2.58c1.76,4.25,1.65,7.3-5.89,10.41l-9,3.76c-4.17,1.73-6.92,1.39-8.92-1.53l-.58-.84L54,74.45l.39.36c.53.45,1.72.54,4-.39l7.56-3.14c5.34-2.2,5.06-2.93,3.65-6.35l-.4-1c-1-2.49-2.17-3-6.32-1.3L54.74,66c-2.21.9-3.05,1.49-3,3ZM84.66,39.51l2.88,7-1.73.72-1.89-4.88.23,5.57-1.81.73-3.87-4.13,2.18,4.85-1.8.74-2.88-7L78.55,42l3.86,4.29-.23-5.8ZM75.19,45.3l-2.64,1.1c-1.3.54-1.72,1.07-1.35,2.12l4.55-1.87.61,1.48L71.81,50l1,2.53-1.76.73-1.28-3.1c-.55-1.36-.92-2.44-.47-3.38A4.8,4.8,0,0,1,72,44.74l2.52-1ZM37.6,72.75A23.51,23.51,0,0,0,81,54.75c-.19-.42-.38-.85-.57-1.26l4.11-1.69c.18.41.37.82.55,1.26A27.92,27.92,0,1,1,74.31,40.17L69,42.37A23.49,23.49,0,0,0,37.6,72.75ZM70.16,28l.37-1.45-4.19-1.05-1.69,6.75,1.44.37.61-2.42,2.08.52.36-1.44-2.08-.52.35-1.44Zm-8.38,2.45-1.69-.09.21-3.95,1.69.08Zm1.41,1.56.37-6.93-4.67-.25-.35,7ZM51.47,28.92l-1.64.38-.39-1.66,1.65-.37Zm2.63,3.26-1.77-2,.92-.2-1-4.52-4.55,1.07,1.57,6.76L50.67,33l-.52-2.23.7-.16,1.61,2Zm-6.19,1.55-.63-1.35-2.79,1.3L44,32.56l1.42-.66-.63-1.36-1.43.66-.52-1.12,2.79-1.32L45,27.43l-4.14,1.92,2.94,6.3Zm-5.18,2.38-4.19-5.55-1.19.91,3.29,4.36-1,.75-3.29-4.37-1.19.9,3.29,4.36-1,.74-3.29-4.36-1.2.9,4.19,5.55Zm-8.37,5.22-1.11,1.28-3-2.62,1.11-1.28Zm2.09-.14-5.24-4.58-3.07,3.53,5.25,4.57ZM29,44.94l-.87,1.44-1.62-1L27.36,44Zm2-.51-4.18-2.51-2.4,4,6,3.58.77-1.28-1.79-1.07Zm-2.46,9.7-1.45-.34-.7,3-1.2-.26L25.57,55l-1.45-.34-.36,1.53-1.21-.29.7-3-1.46-.34-1,4.45,6.77,1.57ZM27.36,59.9l-6.94-.38L20.34,61l2.7.14L23,62.85l-2.7-.16-.08,1.5,7,.37.08-1.5-2.76-.14.09-1.69,2.76.16Zm-5.67,6.35-1.47.21.65,4.63,1.48-.21-.23-1.57,5.42-.77-.22-1.47-5.41.76Z"/></svg>