<svg xmlns="http://www.w3.org/2000/svg" xmlns:xlink="http://www.w3.org/1999/xlink" width="87.139" height="37" viewBox="0 0 87.139 37"><defs><style>.a{fill:none;}.b{clip-path:url(#a);}.c{fill:#fff;}.d{fill:#ffb211;}.e{fill:#247425;}.f{fill:#0d1162;}.g{fill:#a00604;}.h{fill:#ecf632;}.i{fill:#47a929;}.j{fill:#323a96;}.k{fill:#fd1307;}</style><clipPath id="a"><rect class="a" width="87.135" height="37"/></clipPath></defs><g transform="translate(-407.261 -58.117)"><g transform="translate(407.266 58.117)"><g transform="translate(0 -0.826)"><g transform="translate(0 0.826)"><g class="b"><path class="c" d="M64.036.389A7.255,7.255,0,0,0,61.821.036c-1.873,0-3.33.932-3.33,2.684,0,3.066,4.46,2.458,4.46,4.662,0,1.159-1.189,1.611-2.037,1.611a6.573,6.573,0,0,1-2.155-.48L58.61,9.827a7.256,7.256,0,0,0,2.126.41c2.081,0,3.791-.833,3.791-2.939,0-3.25-4.46-2.812-4.46-4.7,0-1.031.981-1.314,1.814-1.314a4.776,4.776,0,0,1,1.948.41Z" transform="translate(-39.684 -0.024)"/><path class="c" d="M144.313.424A5.987,5.987,0,0,0,141.979,0c-3.167,0-5.486,2.02-5.486,5.058,0,3.137,2.185,5.143,5.471,5.143a6.8,6.8,0,0,0,2.364-.353l-.089-1.37a5.334,5.334,0,0,1-2.26.48,3.771,3.771,0,0,1-3.91-3.857,3.755,3.755,0,0,1,3.984-3.857,4.34,4.34,0,0,1,2.141.551Z" transform="translate(-92.607 0)"/><path class="c" d="M111.358,10.412h2.765c2.111,0,3.954-.508,3.954-2.628a2.364,2.364,0,0,0-2.408-2.374V5.382c1.308-.311,2.141-.989,2.141-2.345,0-1.822-1.487-2.486-3.642-2.486h-2.81Zm1.487-4.493h.966c1.278,0,2.691.212,2.691,1.738,0,1.328-1.2,1.6-2.542,1.6h-1.115Zm0-4.21h1.561c.862,0,1.918.3,1.918,1.469,0,1.455-1.219,1.582-2.661,1.582h-.818Z" transform="translate(-75.553 -0.371)"/></g></g><path class="c" d="M84.156,3.9l-1.6,3.685h3.216Zm2.175,4.938H81.968l-.785,1.716H79.651L84.089.743l4.491,9.81H87.067Z" transform="translate(-54.041 0.325)"/><g transform="translate(0 0.826)"><g class="b"><path class="d" d="M185.628,1.04A25.838,25.838,0,0,1,205.652,3.6l.07,3.59a13.018,13.018,0,0,1,7.356.21l-3.5,3.064S200.447.325,186.43,4.141Z" transform="translate(-125.943 -0.051)"/><path class="e" d="M174.845,21.646l1.579,2.642s11.346-6.6,21.374,2.976l2.395-2.084s-10.653-11.518-25.348-3.535" transform="translate(-118.627 -12.705)"/><path class="f" d="M206.466,37.863A13.688,13.688,0,0,1,217.119,42.1l-2.273,2.293s-2.342-3.256-8.38-3.536Z" transform="translate(-140.081 -25.527)"/><path class="g" d="M206.251,56.631a8.109,8.109,0,0,1,6.385,2.293l-6.246,5.813Z" transform="translate(-139.935 -38.185)"/><path class="h" d="M201,1.4A25.218,25.218,0,0,0,185.628.989l.8,3.1c4.632-1.261,7.965-1.007,12.553.022Z" transform="translate(-125.943 0)"/><path class="i" d="M186.215,22.034s1.49.02,1.843-.356l1.572-1.888s.108-.235,1.706.178a22.116,22.116,0,0,1,5.37,2.462,20.628,20.628,0,0,0-21.861-.7l1.579,2.642s11.346-6.6,21.373,2.977l.067-.058a18.079,18.079,0,0,0-11.649-5.258" transform="translate(-118.627 -12.777)"/><path class="j" d="M207.078,41.347s1.307-.027,1.49-.343a14.016,14.016,0,0,0,.757-2.111c.053-.238.236-.211.236-.211a13.111,13.111,0,0,1,5.464,2.084s.1.106-.052.37-.771,2.018-.771,2.018-.157.258.471,1.089a10.545,10.545,0,0,0-3.275-2,15.384,15.384,0,0,0-4.32-.9" transform="translate(-140.496 -26.101)"/><path class="k" d="M211.867,59.155l-.19-.607a8.021,8.021,0,0,0-5.412-1.556l-.028,0,.073,4.276,2.809,1.148,2.18-2.029Z" transform="translate(-139.926 -38.42)"/></g></g></g><g transform="translate(-0.004 12.505)"><path class="c" d="M-.012,39.155H2.622c2.617,0,5.74-.1,5.74,3.625a2.978,2.978,0,0,1-2.512,3.107v.038c.663.058,1.047.786,1.291,1.381l1.954,5.236H6.373L4.907,48.361c-.349-1-.663-1.381-1.692-1.381H2.43v5.562H-.012ZM2.43,44.871h.8c1.2,0,2.582-.192,2.582-1.86,0-1.611-1.361-1.745-2.582-1.745h-.8Z" transform="translate(0.012 -38.925)"/><path class="c" d="M38.414,39.156h0l6.141,13.387h-2.7l-1.047-2.2H35.866l-1.064,2.2h-2.53Zm-.07,4.559V43.57l-1.78,5.013h3.559Z" transform="translate(-21.892 -38.926)"/><path class="c" d="M75.734,39.156h3.332c3.733,0,7.031,1.381,7.031,6.693s-3.3,6.693-7.031,6.693H75.734Zm2.442,11.277h1.361c2.041,0,4.012-1.669,4.012-4.584s-1.971-4.584-4.012-4.584H78.176Z" transform="translate(-51.379 -38.926)"/><path class="c" d="M114.15,39.156h2.442V52.543H114.15Z" transform="translate(-77.443 -38.926)"/><path class="c" d="M134.007,38.449c3.821,0,5.966,2.838,5.966,6.885s-2.111,6.962-5.966,6.962c-3.908,0-5.966-2.858-5.966-6.962S130.134,38.449,134.007,38.449Zm0,11.737c2.495,0,3.419-2.436,3.419-4.852,0-2.359-.994-4.776-3.419-4.776s-3.419,2.417-3.419,4.776C130.587,47.75,131.512,50.186,134.007,50.186Z" transform="translate(-86.868 -38.449)"/></g></g></g></svg>